<?xml version="1.0" encoding="UTF-8" standalone="no"?>
<!DOCTYPE svg PUBLIC "-//W3C//DTD SVG 1.1//EN" "http://www.w3.org/Graphics/SVG/1.1/DTD/svg11.dtd">
<svg xmlns="http://www.w3.org/2000/svg" version="1.1" viewBox="0.00 0.00 1773.00 1773.00">
<g fill="#000000">
<path d="
  M 851.78 257.19
  C 851.35 253.34 851.19 248.29 851.32 242.03
  C 851.35 240.14 851.49 238.88 851.72 238.24
  C 852.54 235.98 855.46 233.34 855.74 231.21
  C 856.05 228.84 856.18 226.19 856.12 223.27
  C 856.10 222.37 855.02 221.91 854.36 222.52
  C 851.93 224.76 849.76 224.51 846.03 224.54
  C 843.56 224.55 841.69 224.18 840.41 223.41
  C 839.20 222.68 837.87 222.30 836.42 222.26
  C 832.51 222.15 829.15 222.11 826.33 222.16
  C 825.77 222.17 825.30 222.57 825.20 223.12
  C 823.71 231.18 822.76 233.16 813.76 234.09
  C 805.80 234.91 801.36 235.34 800.43 235.37
  C 795.68 235.52 787.54 235.92 776.01 236.59
  C 771.64 236.85 768.42 232.01 767.50 228.18
  C 762.92 208.99 762.16 189.34 765.22 169.23
  C 766.04 163.83 767.50 155.45 774.26 155.22
  C 786.83 154.80 799.58 154.96 812.50 155.70
  C 814.94 155.83 820.94 155.89 822.80 158.41
  C 824.48 160.69 825.23 163.32 825.05 166.31
  C 824.98 167.38 825.83 168.29 826.90 168.30
  L 837.98 168.38
  C 838.58 168.39 839.19 168.24 839.73 167.96
  C 840.91 167.34 842.00 166.05 843.52 165.83
  C 844.90 165.63 846.47 165.58 848.22 165.67
  C 850.62 165.79 850.69 164.30 850.45 162.27
  C 848.54 146.33 850.75 130.57 860.97 117.84
  C 874.48 101.00 899.69 98.61 916.53 112.01
  C 925.06 118.80 931.03 129.61 932.76 140.95
  C 933.94 148.63 933.73 156.47 932.12 164.47
  C 931.80 166.08 932.46 166.88 934.09 166.88
  C 939.32 166.89 942.17 166.90 942.62 166.89
  C 942.92 166.88 943.22 166.96 943.48 167.11
  C 944.81 167.85 945.57 168.90 945.76 170.26
  C 947.75 185.16 947.87 199.84 946.12 214.31
  C 945.82 216.80 945.10 218.87 943.97 220.51
  C 942.71 222.35 941.25 222.35 939.00 222.36
  C 935.86 222.39 932.07 222.35 927.63 222.24
  C 926.96 222.22 926.40 222.76 926.40 223.43
  L 926.40 230.16
  C 926.40 230.76 926.55 231.36 926.83 231.90
  C 929.23 236.44 930.79 239.00 930.62 244.51
  C 930.39 252.04 930.20 256.47 930.05 257.79
  C 929.98 258.42 929.37 258.84 928.76 258.69
  C 920.45 256.73 911.14 254.28 902.41 253.60
  C 890.88 252.71 879.93 252.85 869.56 254.03
  C 868.65 254.13 862.95 255.35 852.46 257.68
  C 852.13 257.75 851.82 257.52 851.78 257.19
  Z
  M 908.95 129.48
  C 912.15 131.65 914.96 135.97 916.64 139.27
  C 916.85 139.68 917.45 139.57 917.50 139.12
  C 917.69 137.31 917.30 135.43 916.31 133.46
  C 910.00 120.88 895.61 115.00 882.58 120.64
  C 875.73 123.60 870.72 129.67 868.19 136.60
  C 868.08 136.92 868.21 137.27 868.50 137.43
  C 868.80 137.59 869.17 137.51 869.37 137.24
  L 875.36 129.27
  C 875.48 129.11 875.71 129.07 875.88 129.18
  C 876.05 129.30 876.10 129.53 875.99 129.70
  L 870.73 138.32
  C 870.60 138.53 870.51 138.77 870.48 139.03
  C 870.11 141.90 869.00 145.02 868.89 147.75
  C 868.44 158.67 871.84 169.75 881.73 174.92
  C 886.85 177.60 892.17 178.25 897.69 176.87
  C 907.52 174.42 913.31 166.91 915.43 157.13
  C 917.60 147.10 915.33 138.00 908.61 129.85
  C 908.53 129.75 908.53 129.61 908.62 129.52
  C 908.70 129.43 908.85 129.41 908.95 129.48
  Z
  M 942.0514 179.5890
  C 942.04 178.78 941.38 178.13 940.5661 178.1345
  L 933.7065 178.2063
  C 932.89 178.21 932.24 178.88 932.2519 179.6916
  L 932.3686 190.8310
  C 932.38 191.64 933.04 192.29 933.8539 192.2855
  L 940.7135 192.2137
  C 941.53 192.21 942.18 191.54 942.1681 190.7284
  L 942.0514 179.5890
  Z
  M 840.72 193.16
  L 840.68 179.98
  C 840.67 178.94 839.83 178.10 838.79 178.11
  L 828.59 178.14
  C 826.12 178.15 824.12 180.16 824.13 182.64
  L 824.15 190.62
  C 824.16 193.09 826.18 195.09 828.65 195.08
  L 838.85 195.05
  C 839.89 195.04 840.73 194.20 840.72 193.16
  Z"
/>
<path d="
  M 1010.93 143.95
  C 1010.93 143.20 1011.61 142.62 1012.36 142.75
  C 1023.95 144.68 1032.33 147.13 1045.96 150.86
  C 1052.49 152.65 1058.02 154.31 1062.55 155.85
  C 1112.78 172.87 1158.50 197.52 1199.72 229.81
  C 1246.39 266.36 1285.47 310.02 1316.96 360.79
  C 1323.27 370.97 1329.29 381.36 1335.02 391.95
  C 1353.13 425.46 1367.36 461.32 1377.71 499.52
  C 1378.74 503.33 1379.87 508.15 1381.10 514.00
  C 1381.23 514.60 1380.97 515.22 1380.46 515.55
  L 1353.06 533.51
  C 1352.57 533.83 1351.91 533.56 1351.78 532.99
  C 1329.26 437.94 1279.82 349.13 1206.28 284.22
  C 1186.35 266.63 1164.14 250.33 1139.67 235.34
  C 1103.52 213.19 1064.86 196.69 1023.68 185.85
  C 1021.10 185.17 1017.24 184.19 1012.11 182.90
  C 1011.42 182.72 1010.93 182.10 1010.93 181.39
  L 1010.93 143.95
  Z"
/>
<path d="
  M 740.31 145.59
  C 740.90 145.53 741.41 146.03 741.35 146.62
  L 737.42 188.11
  C 737.32 189.22 736.54 190.15 735.47 190.46
  C 732.58 191.30 727.38 192.95 719.88 195.40
  C 677.89 209.11 639.18 228.40 603.74 253.27
  C 591.90 261.58 580.80 270.06 570.45 278.71
  C 567.78 280.94 562.28 285.78 553.97 293.22
  C 547.38 299.11 542.08 304.15 538.07 308.35
  C 518.51 328.82 502.41 348.04 489.77 366.03
  C 471.26 392.37 455.25 420.61 441.76 450.76
  C 436.43 462.67 432.04 473.78 428.59 484.11
  C 423.29 499.94 418.95 515.33 415.56 530.28
  C 415.49 530.60 415.12 530.76 414.85 530.58
  L 382.95 510.14
  C 382.05 509.57 381.63 508.48 381.89 507.45
  C 385.31 494.08 389.10 481.34 393.26 469.24
  C 397.55 456.78 403.25 442.55 410.34 426.54
  C 416.04 413.67 423.97 398.37 434.13 380.62
  C 446.14 359.65 461.14 337.74 479.14 314.88
  C 497.01 292.17 517.47 270.74 540.50 250.58
  C 563.76 230.23 587.62 212.66 612.09 197.87
  C 650.14 174.89 690.92 157.83 734.45 146.70
  C 736.58 146.15 738.53 145.78 740.31 145.59
  Z"
/>
<path d="
  M 1006.93 374.23
  C 1006.93 374.36 1006.79 374.45 1006.66 374.41
  C 992.05 369.12 976.97 365.13 961.42 362.44
  C 918.53 355.01 876.64 353.32 835.02 359.58
  C 820.47 361.77 806.21 364.40 792.24 367.49
  C 791.72 367.60 791.23 367.19 791.26 366.66
  C 791.95 349.65 797.83 335.98 808.23 322.26
  C 817.02 310.67 828.49 300.67 841.71 293.57
  C 848.04 290.18 852.24 288.02 854.31 287.10
  C 857.23 285.81 861.30 284.50 866.53 283.15
  C 866.65 283.12 866.72 282.99 866.68 282.88
  L 866.56 282.47
  C 866.51 282.31 866.36 282.22 866.20 282.24
  C 858.09 283.57 851.09 285.16 845.22 287.02
  C 826.92 292.80 811.01 305.49 799.46 320.98
  C 797.35 323.81 795.50 326.88 793.92 330.18
  C 790.62 337.10 786.99 344.56 785.70 349.45
  C 784.02 355.83 783.06 362.19 782.81 368.53
  C 782.79 369.14 782.37 369.67 781.78 369.85
  L 767.84 374.09
  C 767.21 374.28 766.57 373.83 766.55 373.17
  C 765.88 354.66 769.68 337.10 777.95 320.49
  C 778.56 319.26 780.74 315.83 784.47 310.19
  C 786.90 306.52 789.36 303.31 791.85 300.54
  C 809.55 280.90 834.37 267.43 860.52 263.06
  C 886.76 258.67 911.45 260.38 936.45 268.95
  C 941.15 270.56 946.40 273.25 952.07 276.19
  C 963.53 282.12 973.71 290.25 982.60 300.57
  C 1000.51 321.34 1008.09 346.51 1006.93 374.23
  Z"
/>
<path d="
  M 1010.22 930.10
  C 1010.00 929.84 1009.59 930.03 1009.63 930.37
  C 1010.60 937.83 1011.17 946.09 1012.19 952.53
  C 1013.80 962.62 1015.13 971.70 1016.16 979.77
  C 1016.22 980.21 1015.66 980.46 1015.37 980.12
  C 1008.27 971.82 1002.44 961.69 997.29 951.95
  C 989.17 936.61 984.45 918.80 979.95 900.81
  C 979.57 899.30 978.71 897.02 977.36 893.97
  C 975.31 889.36 971.95 886.85 967.27 886.46
  C 951.79 885.14 943.62 912.86 940.89 923.85
  C 938.31 934.25 936.69 940.97 936.04 944.00
  C 933.12 957.51 930.49 968.31 928.15 976.42
  C 922.46 996.13 915.46 1014.15 907.17 1030.46
  C 904.12 1036.46 898.84 1045.62 891.33 1057.95
  C 885.84 1066.96 879.91 1075.71 873.54 1084.20
  C 865.69 1094.65 857.51 1104.99 848.98 1115.24
  C 843.85 1121.41 839.55 1127.65 834.38 1134.33
  C 828.97 1141.32 824.72 1147.08 821.63 1151.63
  C 819.50 1154.76 816.39 1160.08 812.30 1167.60
  C 805.52 1180.05 800.76 1194.13 798.84 1206.27
  C 797.82 1212.71 797.63 1219.69 798.26 1227.21
  C 799.44 1241.33 805.48 1256.46 812.56 1269.32
  C 812.73 1269.62 812.38 1269.95 812.09 1269.76
  C 809.55 1268.11 807.40 1266.56 805.64 1265.09
  C 781.63 1245.04 768.59 1219.34 766.52 1187.99
  C 765.44 1171.60 769.16 1152.95 774.37 1136.91
  C 777.01 1128.81 780.22 1121.91 783.81 1113.11
  C 784.40 1111.67 785.83 1108.56 788.12 1103.79
  C 794.07 1091.36 799.78 1079.27 805.25 1067.52
  C 814.02 1048.68 820.63 1028.96 825.10 1008.37
  C 827.82 995.84 829.57 984.95 829.86 972.43
  C 830.15 959.66 830.04 949.94 829.52 943.25
  C 828.29 927.56 825.00 912.35 817.76 898.53
  C 815.38 893.98 812.05 890.37 807.78 887.70
  C 807.46 887.50 807.12 887.34 806.76 887.23
  C 800.29 885.18 795.44 887.09 792.21 892.95
  C 790.34 896.36 788.97 899.74 788.12 903.09
  C 785.35 914.00 782.92 922.66 780.83 929.09
  C 775.42 945.65 767.95 960.60 758.42 973.95
  C 756.75 976.29 754.99 978.35 753.13 980.14
  C 752.88 980.38 752.46 980.17 752.50 979.82
  C 753.73 969.92 755.34 962.09 756.37 953.03
  C 757.20 945.70 758.44 938.26 758.84 930.74
  C 758.87 930.10 758.02 929.86 757.71 930.42
  C 752.05 940.57 744.99 950.77 736.52 961.02
  C 722.73 977.70 706.97 992.19 689.23 1004.48
  C 671.34 1016.88 653.34 1027.51 632.54 1033.53
  C 631.67 1033.78 631.04 1033.92 630.63 1033.94
  C 630.27 1033.95 630.05 1033.54 630.27 1033.26
  C 632.26 1030.64 633.45 1028.35 635.08 1026.09
  C 643.70 1014.15 650.99 1003.36 656.96 993.72
  C 671.27 970.58 680.46 955.84 684.52 949.51
  C 691.83 938.10 700.44 926.55 710.34 914.86
  C 711.01 914.08 711.92 913.41 712.36 912.29
  C 712.51 911.92 712.11 911.57 711.76 911.77
  C 708.21 913.78 704.90 914.88 701.36 916.78
  C 684.66 925.76 666.94 933.67 648.20 940.50
  C 640.59 943.28 631.58 945.92 624.41 948.11
  C 609.67 952.61 594.95 955.22 580.26 955.93
  C 579.80 955.95 579.59 955.37 579.96 955.09
  C 587.45 949.59 594.15 944.33 600.06 939.30
  C 606.69 933.66 610.90 930.94 616.43 925.69
  C 617.11 925.04 619.25 923.18 622.86 920.11
  C 626.21 917.26 634.03 910.71 646.30 900.46
  C 657.18 891.38 667.36 884.33 678.97 876.98
  C 682.42 874.79 686.38 872.49 690.84 870.06
  C 699.23 865.50 709.62 862.01 718.61 859.21
  C 719.08 859.06 719.01 858.38 718.52 858.33
  C 709.66 857.40 699.12 856.72 686.91 856.31
  C 684.28 856.22 681.66 856.21 679.07 856.28
  C 675.70 856.37 672.61 855.90 668.65 856.02
  C 662.50 856.19 656.29 856.03 650.04 855.52
  C 649.69 855.49 649.57 855.03 649.86 854.83
  C 651.38 853.75 655.05 851.34 660.88 847.61
  C 664.87 845.05 668.72 842.96 672.43 841.35
  C 680.91 837.65 687.19 835.12 691.28 833.77
  C 706.15 828.86 721.05 826.62 735.98 827.06
  C 747.91 827.41 759.53 830.28 770.83 835.66
  C 774.59 837.46 777.22 838.39 778.72 838.46
  C 787.21 838.83 796.19 830.37 800.01 823.50
  C 806.86 811.17 808.16 798.90 807.98 784.50
  C 807.75 765.06 805.04 745.86 799.87 726.90
  C 799.12 724.16 797.46 719.74 794.87 713.65
  C 792.84 708.88 789.34 703.96 784.35 698.91
  C 775.32 689.74 761.23 689.77 751.32 697.05
  C 747.10 700.16 741.99 705.31 737.93 710.02
  C 719.62 731.24 700.01 752.29 680.76 768.24
  C 671.44 775.95 660.38 783.68 647.59 791.42
  C 644.14 793.50 640.39 795.48 636.35 797.35
  C 631.92 799.40 626.63 802.23 620.98 804.52
  C 609.09 809.32 596.85 812.98 584.26 815.51
  C 581.13 816.14 578.42 816.47 576.13 816.51
  C 575.81 816.52 575.64 816.14 575.85 815.90
  C 577.52 814.01 579.39 812.11 581.45 810.20
  C 592.74 799.74 602.33 790.25 610.22 781.73
  C 625.38 765.35 650.38 736.47 671.35 713.28
  C 671.72 712.87 671.24 712.26 670.75 712.51
  C 663.40 716.33 655.41 719.98 646.78 723.45
  C 617.92 735.07 587.75 742.26 556.28 745.03
  C 550.70 745.52 541.70 745.46 529.27 744.85
  C 520.78 744.44 509.77 742.83 496.25 740.02
  C 487.79 738.27 479.29 735.73 470.75 732.41
  C 461.26 728.72 453.12 725.09 446.32 721.52
  C 445.80 721.25 446.00 720.47 446.58 720.46
  C 470.35 720.16 495.49 717.42 518.35 711.82
  C 522.19 710.89 530.87 708.51 544.38 704.68
  C 551.92 702.55 560.49 699.83 570.10 696.50
  C 590.96 689.29 604.24 684.60 609.93 682.43
  C 614.00 680.88 621.15 678.69 631.37 675.84
  C 632.46 675.53 633.38 674.99 634.12 674.22
  C 634.26 674.08 634.16 673.84 633.96 673.83
  C 602.27 672.52 571.55 666.48 541.80 655.71
  C 527.85 650.66 514.19 644.95 500.82 638.59
  C 492.75 634.75 484.94 630.09 477.56 626.17
  C 468.97 621.60 458.71 615.04 446.78 606.47
  C 442.53 603.42 438.43 600.21 434.49 596.84
  C 429.58 592.63 423.62 587.98 419.07 583.67
  C 413.40 578.28 407.00 571.79 399.86 564.19
  C 394.63 558.63 389.71 552.37 385.09 545.41
  C 381.95 540.68 379.31 535.78 377.16 530.70
  C 377.02 530.37 377.38 530.05 377.69 530.24
  C 387.35 536.08 396.12 542.34 404.82 546.98
  C 409.80 549.63 415.57 553.47 421.45 556.54
  C 436.72 564.53 452.38 571.65 468.42 577.89
  C 474.66 580.32 480.52 581.98 486.59 584.21
  C 488.84 585.04 491.28 585.84 493.91 586.63
  C 510.50 591.60 526.49 595.99 541.90 599.82
  C 549.41 601.69 555.05 602.96 558.80 603.62
  C 571.16 605.79 580.57 608.51 594.17 610.59
  C 604.81 612.21 615.50 615.20 626.33 616.74
  C 626.62 616.78 626.89 616.60 626.97 616.32
  C 627.05 616.04 626.91 615.75 626.64 615.63
  C 594.03 601.50 563.78 583.49 535.88 561.62
  C 521.45 550.31 506.71 535.93 496.31 520.69
  C 483.16 501.44 474.70 479.87 470.93 456.00
  C 470.62 454.07 470.51 452.31 470.58 450.73
  C 470.60 450.29 471.16 450.12 471.42 450.47
  C 484.16 467.24 498.16 482.37 513.42 495.84
  C 526.18 507.11 539.30 516.37 554.79 524.70
  C 569.92 532.85 586.30 540.23 603.93 546.84
  C 608.66 548.61 615.98 551.96 625.91 556.88
  C 639.75 563.75 647.97 567.89 650.57 569.32
  C 650.79 569.44 651.07 569.39 651.23 569.19
  C 651.38 568.99 651.37 568.71 651.20 568.52
  C 650.17 567.39 644.68 561.88 634.73 551.98
  C 622.19 539.50 610.91 527.19 601.33 514.95
  C 595.76 507.84 589.84 499.09 583.55 488.72
  C 574.08 473.11 566.73 456.37 561.48 438.51
  C 558.23 427.47 556.27 416.13 555.60 404.49
  C 555.12 396.15 554.98 385.00 556.09 375.88
  C 557.56 363.76 559.94 352.22 563.23 341.25
  C 563.36 340.83 563.96 340.88 564.02 341.31
  C 567.01 362.89 572.45 384.63 581.49 404.73
  C 589.90 423.42 599.62 439.88 610.65 454.11
  C 620.59 466.93 631.05 478.72 642.04 489.48
  C 665.20 512.17 685.77 528.47 716.01 553.31
  C 730.92 565.56 744.92 578.99 758.01 593.62
  C 760.47 596.38 762.64 599.69 765.32 601.80
  C 768.48 604.30 772.05 605.66 776.02 605.87
  C 784.45 606.33 792.02 604.04 798.73 598.99
  C 811.99 589.02 821.01 575.73 826.27 560.33
  C 829.29 551.49 830.57 540.50 827.31 531.13
  C 824.40 522.78 823.55 514.58 824.78 506.51
  C 826.61 494.44 831.46 483.71 839.33 474.31
  C 839.59 474.00 840.46 473.59 841.95 473.07
  C 842.66 472.82 843.32 472.42 843.87 471.91
  C 849.05 467.01 854.16 462.54 860.85 459.71
  C 877.24 452.77 893.55 452.54 909.76 459.01
  C 915.95 461.48 921.88 465.75 927.55 471.83
  C 927.65 471.94 927.77 472.04 927.91 472.12
  L 930.15 473.42
  C 930.73 473.76 931.26 474.20 931.71 474.71
  C 937.16 480.97 941.22 488.15 943.89 496.25
  C 945.38 500.78 946.22 504.80 946.40 508.33
  C 946.87 517.63 945.52 524.58 942.22 533.99
  C 938.66 544.11 942.45 559.55 946.64 568.14
  C 953.78 582.75 964.00 595.79 978.22 603.02
  C 983.29 605.59 988.55 606.57 994.01 605.94
  C 1000.80 605.15 1004.09 602.27 1008.84 596.74
  C 1017.82 586.29 1023.72 579.71 1026.53 577.02
  C 1038.25 565.82 1049.70 555.69 1060.88 546.64
  C 1074.61 535.52 1081.44 529.80 1091.87 521.31
  C 1103.84 511.56 1115.62 501.08 1127.19 489.86
  C 1131.63 485.55 1135.42 481.57 1138.57 477.91
  C 1143.90 471.71 1148.41 467.31 1153.02 461.28
  C 1160.46 451.57 1165.48 444.76 1168.07 440.85
  C 1170.21 437.62 1174.05 431.12 1179.59 421.34
  C 1183.87 413.80 1186.50 406.21 1190.32 397.63
  C 1191.45 395.10 1192.69 391.85 1194.05 387.89
  C 1199.18 372.93 1202.82 357.47 1204.95 341.51
  C 1205.00 341.14 1205.51 341.10 1205.62 341.45
  C 1215.07 371.50 1215.96 401.79 1208.31 432.31
  C 1206.87 438.05 1203.88 447.08 1199.35 459.40
  C 1196.85 466.18 1193.66 471.91 1189.26 480.77
  C 1183.48 492.39 1176.02 503.92 1166.87 515.37
  C 1157.36 527.28 1149.91 536.00 1144.53 541.53
  C 1139.56 546.64 1136.95 549.31 1136.72 549.56
  C 1130.71 555.84 1124.88 561.19 1118.11 567.34
  C 1117.63 567.77 1117.36 568.24 1117.30 568.74
  C 1117.25 569.19 1117.72 569.52 1118.12 569.30
  C 1141.11 556.80 1161.69 548.56 1191.36 536.35
  C 1196.40 534.28 1203.51 530.85 1212.70 526.06
  C 1232.83 515.59 1251.05 501.25 1267.30 485.30
  C 1268.33 484.29 1272.31 480.04 1279.24 472.55
  C 1285.79 465.47 1290.74 459.19 1298.11 451.21
  C 1298.25 451.06 1298.50 451.17 1298.48 451.37
  C 1297.97 458.06 1296.73 464.86 1294.77 471.79
  C 1286.26 501.85 1271.22 527.66 1249.65 549.22
  C 1241.28 557.58 1231.39 565.74 1219.97 573.70
  C 1195.49 590.77 1170.15 603.60 1143.42 615.69
  C 1143.19 615.79 1143.07 616.05 1143.14 616.29
  C 1143.21 616.53 1143.44 616.68 1143.69 616.65
  C 1146.23 616.31 1147.53 616.13 1147.59 616.12
  C 1159.95 613.21 1175.90 610.63 1188.21 607.95
  C 1198.89 605.62 1211.79 603.53 1223.24 600.86
  C 1241.23 596.67 1259.02 591.92 1276.61 586.62
  C 1278.97 585.91 1285.53 583.70 1296.28 579.99
  C 1304.44 577.18 1314.10 572.97 1320.17 570.38
  C 1336.62 563.33 1352.58 555.00 1368.04 545.37
  C 1374.76 541.19 1380.88 536.70 1388.17 532.00
  C 1388.43 531.83 1388.76 532.09 1388.65 532.38
  C 1386.48 538.09 1383.69 543.38 1380.26 548.27
  C 1368.04 565.68 1354.19 580.83 1338.72 593.72
  C 1323.96 606.01 1313.74 614.49 1299.20 622.93
  C 1289.98 628.28 1283.55 632.59 1275.99 636.10
  C 1266.54 640.48 1257.62 645.00 1248.71 648.29
  C 1240.86 651.18 1235.80 653.75 1227.48 656.45
  C 1207.60 662.90 1190.94 667.25 1177.50 669.49
  C 1164.12 671.72 1150.89 673.19 1137.80 673.90
  C 1137.44 673.92 1137.15 674.19 1137.11 674.55
  C 1137.07 674.90 1137.29 675.24 1137.63 675.34
  C 1150.61 679.21 1162.99 683.22 1176.83 688.48
  C 1202.44 698.22 1227.86 706.09 1253.09 712.09
  C 1266.68 715.33 1281.77 718.04 1296.45 719.04
  C 1309.82 719.95 1318.55 720.53 1322.65 720.79
  C 1322.88 720.80 1322.96 721.12 1322.75 721.23
  C 1305.94 730.71 1287.36 737.72 1268.15 741.13
  C 1264.32 741.81 1256.87 743.42 1251.25 744.06
  C 1235.58 745.85 1219.82 745.85 1203.98 744.06
  C 1167.44 739.94 1132.73 729.74 1099.85 713.46
  C 1099.69 713.37 1099.51 713.33 1099.33 713.33
  L 1098.80 713.33
  C 1098.26 713.33 1097.99 713.97 1098.35 714.37
  C 1104.34 720.86 1111.50 727.67 1117.11 734.11
  C 1128.43 747.14 1136.82 756.71 1142.27 762.80
  C 1156.68 778.90 1168.33 791.27 1177.22 799.90
  C 1183.67 806.16 1189.11 811.53 1193.56 816.00
  C 1193.79 816.23 1193.61 816.61 1193.29 816.59
  C 1188.04 816.22 1182.21 815.15 1175.79 813.40
  C 1165.69 810.65 1157.18 807.83 1150.27 804.95
  C 1142.93 801.89 1130.89 796.56 1122.77 791.57
  C 1105.98 781.26 1091.90 771.06 1080.52 760.97
  C 1069.11 750.86 1060.94 743.13 1055.99 737.76
  C 1047.50 728.53 1041.45 722.35 1033.42 713.10
  C 1027.97 706.83 1022.79 701.60 1017.86 697.41
  C 1013.83 693.98 1008.97 692.16 1003.26 691.94
  C 992.98 691.55 985.00 696.63 978.84 704.55
  C 977.07 706.82 975.08 710.44 972.89 715.42
  C 968.90 724.43 965.80 735.30 963.59 748.03
  C 961.02 762.82 959.82 777.81 960.00 792.99
  C 960.09 800.66 961.38 807.96 963.85 814.88
  C 967.48 825.02 978.48 839.94 990.92 838.48
  C 991.32 838.43 991.72 838.33 992.09 838.16
  C 997.42 835.70 1001.87 833.24 1006.53 831.71
  C 1018.08 827.91 1030.05 826.38 1042.43 827.11
  C 1066.80 828.56 1089.37 836.34 1109.88 848.92
  C 1113.01 850.84 1115.86 852.84 1118.43 854.92
  C 1118.73 855.16 1118.56 855.65 1118.17 855.66
  C 1100.11 856.07 1089.46 856.29 1086.23 856.32
  C 1085.97 856.32 1082.64 856.46 1076.25 856.75
  C 1066.76 857.17 1058.67 857.08 1050.88 858.70
  C 1050.48 858.78 1050.46 859.33 1050.84 859.46
  C 1054.06 860.50 1058.92 862.21 1065.43 864.59
  C 1072.65 867.22 1077.84 870.21 1086.20 874.94
  C 1093.82 879.26 1098.39 882.85 1107.03 888.94
  C 1110.20 891.17 1113.55 893.74 1117.09 896.64
  C 1130.57 907.68 1144.10 919.33 1157.67 931.58
  C 1158.46 932.29 1159.08 932.95 1159.55 933.57
  C 1159.80 933.90 1159.75 934.37 1159.43 934.63
  L 1144.13 947.23
  C 1143.58 947.69 1142.83 947.84 1142.14 947.62
  C 1130.02 943.76 1123.18 941.79 1114.05 938.12
  C 1097.84 931.61 1083.11 925.51 1069.25 917.92
  C 1064.66 915.41 1060.97 913.55 1058.17 912.35
  C 1057.70 912.15 1057.34 912.07 1057.07 912.11
  C 1056.67 912.16 1056.49 912.63 1056.75 912.93
  C 1063.90 921.24 1070.10 929.34 1075.33 937.25
  C 1086.62 954.30 1096.47 969.69 1104.88 983.40
  C 1115.77 1001.13 1126.68 1017.72 1137.62 1033.17
  C 1137.80 1033.42 1137.57 1033.76 1137.27 1033.70
  C 1133.93 1033.05 1130.72 1032.12 1127.65 1030.92
  C 1116.29 1026.46 1108.62 1023.02 1104.63 1020.60
  C 1099.57 1017.53 1095.20 1014.94 1091.53 1012.83
  C 1086.78 1010.10 1083.27 1007.90 1081.00 1006.23
  C 1076.47 1002.90 1072.04 1000.10 1067.64 996.27
  C 1055.37 985.61 1047.71 978.64 1044.64 975.36
  C 1038.09 968.37 1031.83 961.14 1025.85 953.68
  C 1023.09 950.24 1017.90 942.79 1014.74 936.77
  C 1013.46 934.34 1011.95 932.11 1010.22 930.10
  Z
  M 584.59 448.95
  C 584.42 449.03 584.34 449.23 584.41 449.40
  C 593.93 473.47 608.36 496.63 625.71 516.60
  C 633.21 525.24 639.20 532.63 646.63 540.32
  C 660.46 554.64 668.20 562.61 669.83 564.22
  C 684.34 578.49 696.11 591.16 705.14 602.23
  C 707.54 605.18 709.62 607.84 711.38 610.23
  C 714.46 614.42 716.41 617.20 717.22 618.58
  C 725.11 631.97 728.53 645.70 727.47 659.78
  C 726.52 672.37 723.38 684.55 718.05 696.32
  C 717.89 696.67 718.02 697.07 718.35 697.27
  C 718.67 697.46 719.09 697.38 719.32 697.08
  C 722.63 692.73 726.27 688.38 730.24 684.02
  C 735.35 678.41 741.62 673.98 749.06 670.74
  C 769.37 661.90 791.32 671.73 802.87 689.24
  C 803.21 689.75 804.00 689.62 804.15 689.02
  C 804.18 688.89 804.15 688.71 804.05 688.47
  C 798.75 675.64 790.34 665.50 778.83 658.06
  C 775.25 655.75 769.69 653.19 766.48 651.01
  C 758.91 645.89 752.96 638.88 749.19 630.33
  C 745.15 621.18 740.85 613.29 734.49 605.26
  C 729.86 599.41 726.46 595.34 724.30 593.07
  C 710.90 579.02 695.77 565.00 675.59 547.67
  C 666.60 539.94 657.00 531.36 646.79 521.93
  C 629.84 506.25 614.90 489.78 601.82 473.25
  C 595.91 465.78 590.33 457.73 585.06 449.08
  C 584.96 448.92 584.76 448.86 584.60 448.94
  L 584.59 448.95
  Z
  M 1183.62 451.82
  C 1183.38 451.69 1183.08 451.76 1182.93 451.99
  C 1172.52 467.83 1159.94 483.65 1145.20 499.45
  C 1132.18 513.41 1120.58 524.15 1104.25 539.00
  C 1101.50 541.50 1098.66 543.99 1095.73 546.46
  C 1094.52 547.49 1091.65 549.95 1087.12 553.84
  C 1082.84 557.51 1076.95 562.65 1069.46 569.24
  C 1063.73 574.29 1058.85 578.89 1054.82 583.06
  C 1044.65 593.58 1035.99 603.11 1027.50 615.00
  C 1022.29 622.30 1020.50 630.93 1015.52 637.99
  C 1011.28 643.98 1006.72 648.32 999.95 652.27
  C 991.53 657.18 983.26 662.26 976.93 669.80
  C 971.62 676.13 967.62 682.57 964.92 689.12
  C 964.82 689.36 964.92 689.63 965.14 689.75
  C 965.36 689.87 965.64 689.81 965.79 689.60
  C 971.88 681.05 978.99 674.47 989.05 670.29
  C 1004.78 663.76 1023.20 669.13 1035.32 680.92
  C 1041.32 686.75 1046.41 692.60 1050.59 698.47
  C 1050.80 698.76 1051.20 698.84 1051.51 698.66
  L 1051.60 698.60
  C 1051.90 698.42 1052.02 698.04 1051.86 697.72
  C 1046.21 686.21 1042.79 674.05 1041.60 661.26
  C 1040.27 646.89 1043.19 633.68 1050.36 621.64
  C 1053.74 615.97 1057.00 611.14 1060.15 607.14
  C 1067.03 598.38 1074.44 589.87 1082.38 581.62
  C 1088.17 575.60 1093.64 569.42 1098.58 564.49
  C 1116.91 546.20 1135.04 526.43 1152.05 505.33
  C 1157.65 498.38 1161.64 491.76 1167.48 482.99
  C 1171.67 476.71 1177.14 466.59 1183.89 452.62
  C 1184.03 452.33 1183.92 451.99 1183.64 451.83
  L 1183.62 451.82
  Z
  M 780.85 1204.91
  C 781.34 1193.93 780.83 1186.26 782.83 1177.11
  C 785.22 1166.16 787.70 1157.11 790.27 1149.96
  C 794.14 1139.19 796.75 1132.32 798.10 1129.34
  C 801.87 1120.95 805.33 1113.77 808.47 1107.82
  C 817.60 1090.52 821.08 1083.45 830.10 1065.87
  C 834.78 1056.77 840.45 1043.62 847.11 1026.41
  C 850.39 1017.93 853.38 1008.73 856.09 998.82
  C 859.92 984.77 862.26 975.39 863.10 970.67
  C 867.51 945.93 870.23 920.79 871.25 895.25
  C 872.57 862.52 871.61 832.29 870.14 801.76
  C 869.19 782.04 867.28 762.80 864.40 744.05
  C 863.04 735.21 861.04 725.45 858.91 717.83
  C 854.92 703.62 851.30 690.58 848.05 678.73
  C 844.26 664.90 842.30 650.56 842.17 635.73
  C 842.09 626.95 842.80 618.17 844.31 609.38
  C 846.98 593.78 852.23 577.27 856.62 563.64
  C 860.48 551.65 861.55 540.41 861.00 528.24
  C 860.60 519.47 857.36 507.37 850.97 500.81
  C 848.93 498.72 846.36 496.45 843.27 494.01
  C 842.76 493.61 842.01 494.00 842.06 494.65
  C 842.34 498.27 841.77 501.53 840.34 504.42
  C 838.41 508.33 840.26 511.54 843.04 514.24
  C 849.49 520.49 852.46 528.70 851.95 538.86
  C 851.59 545.97 850.23 553.04 847.88 560.07
  C 845.74 566.46 841.78 573.85 839.48 579.55
  C 836.42 587.11 834.31 590.89 830.62 598.82
  C 828.34 603.70 825.75 610.79 822.85 620.08
  C 815.42 643.92 816.31 670.08 822.39 694.13
  C 824.45 702.29 827.06 712.17 830.23 723.78
  C 837.62 750.90 842.93 778.26 846.07 805.97
  C 849.58 837.02 851.47 866.62 851.73 894.76
  C 851.84 907.30 851.69 917.96 851.27 926.75
  C 850.54 942.10 849.09 956.66 846.94 970.45
  C 843.06 995.25 835.12 1020.13 825.09 1043.11
  C 820.12 1054.52 815.15 1065.88 809.51 1076.59
  C 806.70 1081.92 804.05 1087.34 801.57 1092.85
  C 801.32 1093.40 801.28 1094.03 801.45 1094.61
  L 801.96 1096.27
  C 802.11 1096.76 802.06 1097.29 801.84 1097.75
  C 794.05 1113.76 786.44 1131.38 781.87 1149.41
  C 777.16 1167.99 776.33 1186.20 779.39 1204.03
  C 779.49 1204.60 779.63 1205.01 779.82 1205.24
  C 780.15 1205.66 780.83 1205.44 780.85 1204.91
  Z
  M 801.29 1159.42
  C 801.66 1158.97 801.90 1158.66 802.00 1158.50
  C 810.68 1143.93 819.14 1130.00 829.47 1115.76
  C 832.38 1111.75 839.69 1101.27 851.42 1084.34
  C 857.44 1075.65 862.16 1067.54 866.78 1060.35
  C 870.00 1055.34 873.32 1049.67 876.73 1043.32
  C 881.47 1034.48 884.47 1028.63 885.74 1025.77
  C 889.60 1016.99 893.36 1009.80 896.38 1001.29
  C 901.73 986.17 905.23 975.55 906.86 969.42
  C 911.89 950.61 915.74 928.66 918.39 903.56
  C 918.56 901.97 918.71 899.31 918.85 895.59
  C 919.12 888.62 919.69 881.88 919.84 875.65
  C 920.31 856.27 920.63 842.96 920.81 835.71
  C 921.24 817.98 921.88 804.68 922.73 795.83
  C 925.07 771.40 929.71 747.15 936.66 723.08
  C 938.18 717.83 939.66 712.59 941.10 707.34
  C 945.54 691.21 950.03 672.59 950.83 658.48
  C 951.64 643.89 949.05 629.04 944.86 614.71
  C 943.53 610.15 940.74 603.09 936.50 593.53
  C 928.66 575.82 924.56 567.10 920.51 552.48
  C 918.86 546.53 918.25 540.52 918.66 534.44
  C 919.13 527.55 921.42 522.29 925.76 517.31
  C 928.10 514.62 932.86 509.52 931.45 505.79
  C 930.09 502.17 927.17 499.68 929.08 494.92
  C 929.32 494.32 928.65 493.76 928.10 494.10
  C 907.92 506.64 907.54 531.67 910.87 552.52
  C 911.52 556.59 913.01 562.68 915.35 570.78
  C 919.48 585.05 922.05 594.36 923.06 598.69
  C 924.75 605.92 925.79 611.28 926.18 614.77
  C 926.18 614.78 926.52 618.60 927.21 626.24
  C 928.90 645.05 925.41 662.72 919.48 681.29
  C 910.98 707.87 901.49 736.16 899.84 765.00
  C 898.92 781.05 898.65 796.31 899.02 810.76
  C 899.86 843.15 900.05 873.48 897.60 906.31
  C 896.86 916.20 895.82 925.13 894.47 933.12
  C 890.75 955.14 886.82 975.62 880.34 996.12
  C 879.75 998.01 877.92 1003.10 874.85 1011.37
  C 872.64 1017.34 870.56 1022.33 868.61 1026.34
  C 865.31 1033.15 862.83 1040.69 858.93 1048.18
  C 849.48 1066.36 839.82 1083.49 829.97 1099.58
  C 824.60 1108.36 819.25 1118.47 815.14 1125.94
  C 809.51 1136.19 804.63 1147.19 800.48 1158.96
  C 800.31 1159.46 800.95 1159.83 801.29 1159.42
  Z
  M 538.34 538.24
  C 549.00 547.83 559.70 556.49 570.43 564.24
  C 578.56 570.10 585.84 574.43 597.06 581.68
  C 606.20 587.59 616.54 593.30 628.08 598.81
  C 633.65 601.48 638.65 603.63 643.06 605.28
  C 653.30 609.10 663.14 613.14 673.16 616.19
  C 678.45 617.80 683.45 619.31 688.16 620.72
  C 688.78 620.91 689.27 620.19 688.87 619.68
  C 685.49 615.39 681.72 611.40 677.55 607.71
  C 664.94 596.56 651.63 587.37 637.61 580.16
  C 630.51 576.51 625.25 573.48 618.54 570.66
  C 606.00 565.40 595.48 560.68 582.12 555.29
  C 568.19 549.67 554.78 544.05 541.91 538.44
  C 541.29 538.17 540.31 537.76 538.97 537.23
  C 538.34 536.98 537.84 537.79 538.34 538.24
  Z
  M 1229.59 538.12
  C 1229.10 538.17 1228.60 538.32 1228.07 538.57
  C 1210.62 546.86 1194.93 552.74 1172.52 562.11
  C 1162.95 566.12 1156.44 568.82 1152.97 570.23
  C 1142.54 574.45 1131.79 579.68 1120.74 585.91
  C 1115.62 588.79 1111.02 591.82 1106.95 594.99
  C 1099.28 600.96 1094.97 604.39 1094.02 605.28
  C 1089.80 609.26 1085.31 613.94 1080.55 619.31
  C 1080.18 619.72 1079.99 620.00 1079.96 620.15
  C 1079.88 620.66 1080.39 621.07 1080.93 620.93
  C 1086.03 619.60 1092.82 617.54 1101.31 614.75
  C 1110.71 611.65 1122.58 606.67 1132.02 603.25
  C 1134.90 602.20 1137.39 601.12 1139.50 600.01
  C 1157.48 590.51 1163.93 587.21 1177.09 579.16
  C 1186.35 573.50 1195.38 566.74 1204.42 560.19
  C 1213.69 553.47 1221.78 546.31 1230.02 539.09
  C 1230.43 538.73 1230.13 538.06 1229.59 538.12
  Z
  M 491.03 609.25
  C 491.50 609.78 492.03 610.24 492.60 610.63
  C 500.63 616.10 509.68 621.37 519.77 626.44
  C 535.93 634.55 552.66 641.28 569.97 646.65
  C 577.88 649.10 584.94 650.94 591.16 652.17
  C 600.01 653.92 607.21 655.12 612.75 655.79
  C 628.20 657.66 644.99 657.49 663.10 655.28
  C 668.95 654.57 674.76 653.46 680.53 651.96
  C 680.96 651.85 681.26 651.63 681.43 651.30
  C 681.52 651.14 681.44 650.93 681.26 650.87
  C 668.71 646.48 656.26 642.63 643.91 639.32
  C 633.16 636.44 622.88 634.38 613.07 631.55
  C 607.26 629.88 601.63 628.94 595.04 627.52
  C 591.57 626.77 576.03 624.00 548.41 619.23
  C 537.93 617.42 529.19 615.35 519.83 613.84
  C 512.01 612.59 501.19 609.77 491.53 608.33
  C 491.01 608.25 490.68 608.86 491.03 609.25
  Z
  M 1274.79 609.15
  C 1271.68 609.90 1268.33 610.29 1265.42 610.99
  C 1255.31 613.43 1244.52 615.06 1234.70 617.09
  C 1232.75 617.50 1228.04 618.34 1220.58 619.61
  C 1203.84 622.46 1187.73 625.35 1172.26 628.28
  C 1166.06 629.45 1160.47 630.70 1155.48 632.05
  C 1146.14 634.57 1137.37 636.23 1129.45 638.46
  C 1117.64 641.79 1106.43 645.09 1095.82 648.35
  C 1093.51 649.06 1091.30 649.88 1089.19 650.82
  C 1088.76 651.01 1088.78 651.63 1089.23 651.79
  C 1090.75 652.33 1094.09 653.45 1096.39 653.88
  C 1110.70 656.54 1125.73 657.68 1141.50 657.29
  C 1148.61 657.11 1155.12 656.54 1161.03 655.58
  C 1201.93 648.95 1240.65 633.40 1275.62 611.11
  C 1276.06 610.83 1276.24 610.26 1276.03 609.78
  C 1275.83 609.29 1275.30 609.03 1274.79 609.15
  Z
  M 539.65 727.68
  C 539.37 727.99 539.57 728.49 539.99 728.52
  C 541.27 728.61 542.69 728.63 544.24 728.57
  C 559.75 727.99 575.73 726.20 592.16 723.20
  C 610.91 719.78 628.19 714.82 644.01 708.32
  C 659.49 701.95 674.58 693.21 685.34 682.84
  C 685.90 682.29 686.35 681.76 686.70 681.25
  C 687.01 680.81 686.63 680.21 686.10 680.29
  C 669.64 682.71 652.71 686.96 636.44 690.94
  C 632.67 691.86 625.87 694.08 616.05 697.60
  C 608.20 700.41 601.52 702.94 596.00 705.19
  C 583.32 710.35 564.63 717.77 539.92 727.45
  C 539.85 727.48 539.76 727.56 539.65 727.68
  Z
  M 1229.55 727.53
  C 1229.44 727.41 1229.35 727.33 1229.28 727.30
  C 1204.64 717.65 1186.00 710.26 1173.35 705.11
  C 1167.85 702.88 1161.18 700.35 1153.36 697.55
  C 1143.56 694.04 1136.78 691.83 1133.02 690.91
  C 1116.80 686.95 1099.91 682.71 1083.50 680.30
  C 1082.97 680.23 1082.60 680.82 1082.90 681.26
  C 1083.25 681.77 1083.70 682.30 1084.26 682.84
  C 1094.99 693.18 1110.04 701.90 1125.48 708.24
  C 1141.25 714.72 1158.49 719.67 1177.18 723.07
  C 1193.57 726.06 1209.50 727.84 1224.97 728.42
  C 1226.52 728.48 1227.93 728.46 1229.21 728.37
  C 1229.62 728.34 1229.83 727.84 1229.55 727.53
  Z
  M 663.95 745.49
  C 657.21 753.01 647.45 764.24 634.69 779.17
  C 634.46 779.44 634.58 779.86 634.92 779.96
  C 635.13 780.03 635.32 779.99 635.47 779.82
  C 635.69 779.58 635.83 779.44 635.89 779.40
  C 648.60 771.21 659.69 761.65 669.62 750.57
  C 679.55 739.49 687.85 727.43 694.60 713.90
  C 694.63 713.83 694.76 713.68 694.97 713.43
  C 695.12 713.26 695.15 713.08 695.05 712.87
  C 694.91 712.55 694.48 712.47 694.24 712.73
  C 680.79 727.05 670.69 737.97 663.95 745.49
  Z
  M 1105.32 745.36
  C 1098.58 737.91 1088.49 727.11 1075.05 712.94
  C 1074.81 712.69 1074.39 712.76 1074.25 713.09
  C 1074.15 713.29 1074.18 713.48 1074.33 713.65
  C 1074.55 713.89 1074.67 714.04 1074.70 714.11
  C 1081.48 727.52 1089.79 739.47 1099.71 750.44
  C 1109.64 761.40 1120.71 770.86 1133.38 778.93
  C 1133.44 778.97 1133.58 779.11 1133.80 779.35
  C 1133.96 779.51 1134.14 779.56 1134.35 779.48
  C 1134.69 779.38 1134.81 778.96 1134.57 778.70
  C 1121.81 763.92 1112.06 752.81 1105.32 745.36
  Z
  M 947.78 813.51
  C 947.03 824.62 948.60 835.14 952.49 845.07
  C 954.84 851.07 960.44 857.29 966.93 860.52
  C 970.40 862.25 972.25 863.16 972.49 863.27
  C 979.15 866.34 983.79 870.22 986.83 876.40
  C 989.01 880.82 990.52 884.65 991.35 887.88
  C 992.64 892.85 993.76 896.90 994.71 900.03
  C 994.88 900.60 995.72 900.50 995.75 899.91
  L 996.08 894.30
  C 996.09 894.13 996.08 893.95 996.05 893.77
  C 993.78 881.45 993.90 862.23 1005.69 854.47
  C 1005.93 854.31 1005.92 853.96 1005.67 853.81
  C 1005.26 853.56 1004.85 853.51 1004.43 853.64
  C 993.71 856.92 983.60 857.62 973.59 852.16
  C 963.33 846.57 956.39 838.35 952.76 827.52
  C 951.41 823.47 949.99 818.78 948.48 813.44
  C 948.43 813.27 948.27 813.16 948.10 813.18
  C 947.93 813.20 947.79 813.34 947.78 813.51
  Z
  M 819.80 814.34
  C 818.09 825.81 813.48 835.85 805.99 844.46
  C 799.00 852.50 788.43 856.48 777.86 856.22
  C 773.23 856.11 768.49 854.45 763.21 853.13
  C 762.98 853.07 762.82 853.07 762.73 853.13
  C 762.28 853.42 762.28 854.07 762.72 854.39
  C 767.57 857.78 770.70 862.29 772.09 867.93
  C 774.60 878.10 774.01 887.89 773.08 898.26
  C 773.05 898.56 773.26 898.83 773.56 898.88
  L 773.58 898.89
  C 773.87 898.94 774.16 898.76 774.23 898.47
  C 775.62 893.05 777.12 887.82 778.75 882.77
  C 780.88 876.13 784.55 870.79 789.76 866.74
  C 794.29 863.22 800.05 862.09 804.13 859.12
  C 810.17 854.73 814.91 849.65 817.17 842.62
  C 820.01 833.77 821.46 823.51 820.77 814.38
  C 820.75 814.13 820.55 813.94 820.30 813.93
  C 820.05 813.92 819.84 814.09 819.80 814.34
  Z
  M 754.88 850.85
  C 754.37 849.96 753.60 849.22 752.58 848.63
  C 743.26 843.25 733.29 841.65 722.07 841.35
  C 713.53 841.12 705.16 842.13 696.96 844.40
  C 696.11 844.63 696.22 845.87 697.10 845.95
  L 754.53 851.40
  C 754.82 851.43 755.02 851.11 754.88 850.85
  Z
  M 1073.10 845.24
  C 1073.34 844.93 1073.18 844.47 1072.80 844.39
  C 1064.43 842.52 1055.82 841.53 1046.99 841.42
  C 1034.89 841.26 1024.53 843.69 1015.91 848.70
  C 1014.64 849.44 1013.62 850.09 1012.87 850.66
  C 1012.41 851.01 1012.69 851.74 1013.26 851.68
  C 1030.07 849.94 1043.61 848.59 1053.90 847.63
  C 1059.97 847.06 1065.52 846.46 1070.35 846.44
  C 1071.56 846.43 1072.47 846.03 1073.10 845.24
  Z
  M 1129.67 928.56
  C 1130.16 928.50 1130.36 927.89 1130.00 927.55
  C 1118.90 916.96 1106.37 906.54 1092.41 896.30
  C 1084.39 890.41 1076.30 885.89 1067.89 881.83
  C 1055.59 875.88 1042.69 872.50 1029.20 871.67
  C 1028.55 871.62 1027.85 871.67 1027.12 871.80
  C 1026.42 871.93 1026.19 872.81 1026.73 873.26
  C 1043.07 886.99 1060.95 898.32 1080.38 907.27
  C 1092.13 912.69 1099.87 916.26 1103.58 917.97
  C 1111.34 921.57 1119.15 924.52 1128.67 928.37
  C 1129.08 928.53 1129.41 928.59 1129.67 928.56
  Z
  M 639.31 928.15
  C 639.57 928.19 639.90 928.12 640.31 927.96
  C 649.82 924.15 657.62 921.23 665.38 917.66
  C 669.09 915.96 676.82 912.42 688.57 907.04
  C 707.99 898.17 725.87 886.91 742.22 873.25
  C 742.77 872.80 742.53 871.93 741.84 871.80
  C 741.11 871.66 740.42 871.62 739.76 871.66
  C 726.29 872.45 713.41 875.79 701.11 881.69
  C 692.71 885.72 684.62 890.20 676.59 896.06
  C 662.63 906.24 650.09 916.60 638.98 927.14
  C 638.62 927.48 638.82 928.09 639.31 928.15
  Z
  M 675.47 994.60
  C 675.39 995.09 675.92 995.45 676.34 995.19
  C 678.59 993.82 681.09 992.04 683.84 989.84
  C 688.33 986.24 694.65 980.81 702.81 973.56
  C 706.01 970.71 711.95 964.79 720.64 955.78
  C 723.05 953.27 725.93 949.91 729.28 945.69
  C 736.28 936.85 743.10 927.25 747.57 918.34
  C 750.82 911.86 753.28 904.82 754.97 897.22
  C 755.08 896.73 754.89 896.42 754.41 896.27
  C 754.16 896.20 753.83 896.25 753.44 896.43
  C 752.45 896.87 750.89 897.98 748.76 899.75
  C 739.85 907.13 732.16 913.79 724.17 922.52
  C 713.57 934.09 704.22 946.45 696.11 959.60
  C 690.38 968.89 683.59 980.35 675.72 993.97
  C 675.59 994.21 675.50 994.42 675.47 994.60
  Z
  M 1091.89 993.60
  C 1087.43 983.30 1081.10 974.60 1075.60 965.28
  C 1071.19 957.81 1067.86 952.54 1065.61 949.48
  C 1055.50 935.74 1049.17 927.45 1046.62 924.61
  C 1037.24 914.16 1026.71 904.72 1015.02 896.30
  C 1014.39 895.85 1013.54 896.40 1013.69 897.16
  C 1016.91 913.22 1025.64 929.13 1036.01 941.79
  C 1043.60 951.04 1050.05 958.41 1055.37 963.89
  C 1060.91 969.58 1068.64 976.72 1078.57 985.31
  C 1082.41 988.64 1086.87 991.58 1090.74 994.51
  C 1091.36 994.98 1092.20 994.31 1091.89 993.60
  Z"
/>
<path d="
  M 1007.03 405.00
  C 1007.03 405.51 1006.52 405.86 1006.04 405.68
  C 983.11 397.03 960.84 390.90 936.89 387.62
  C 904.43 383.16 872.22 383.23 840.27 387.84
  C 815.58 391.40 790.87 397.29 767.20 406.08
  C 766.55 406.32 765.87 405.84 765.87 405.16
  L 765.87 391.16
  C 765.87 390.50 766.29 389.92 766.92 389.72
  C 784.15 384.07 801.36 379.48 818.57 375.97
  C 838.83 371.83 858.97 370.18 879.76 369.42
  C 885.33 369.22 890.33 369.21 894.76 369.40
  C 908.85 369.99 917.34 370.40 920.24 370.64
  C 934.66 371.83 949.95 374.17 966.10 377.64
  C 973.18 379.17 979.50 380.84 985.07 382.67
  C 996.00 386.27 1002.77 388.03 1006.25 389.83
  C 1006.73 390.08 1007.03 390.58 1007.03 391.11
  L 1007.03 405.00
  Z"
/>
<path d="
  M 948.42 412.00
  C 948.56 412.51 948.63 412.79 948.62 412.85
  C 946.84 424.92 944.68 434.44 942.15 441.41
  C 939.62 448.36 936.29 456.03 932.18 464.42
  C 931.99 464.81 931.49 464.93 931.15 464.67
  L 919.50 455.91
  C 918.79 455.38 918.62 454.38 919.12 453.64
  L 947.43 411.83
  C 947.70 411.44 948.30 411.54 948.42 412.00
  Z"
/>
<path d="
  M 823.72 412.98
  C 823.84 412.53 824.44 412.43 824.70 412.82
  L 852.47 454.00
  C 852.96 454.72 852.79 455.71 852.09 456.23
  L 840.61 464.82
  C 840.28 465.08 839.79 464.96 839.60 464.57
  C 835.57 456.31 832.32 448.76 829.84 441.92
  C 827.36 435.07 825.25 425.70 823.53 413.82
  C 823.52 413.76 823.58 413.48 823.72 412.98
  Z"
/>
<path d="
  M 1003.52 462.80
  C 1003.59 462.65 1003.77 462.57 1003.93 462.61
  C 1004.09 462.65 1004.20 462.81 1004.18 462.98
  C 1003.85 465.83 1003.11 470.51 1001.97 477.02
  C 997.46 502.67 979.38 524.04 953.15 528.64
  C 952.81 528.70 952.52 528.39 952.61 528.05
  C 954.01 522.74 954.53 517.18 954.17 511.38
  C 954.12 510.51 954.69 509.72 955.54 509.50
  C 969.53 505.88 979.80 497.95 988.77 486.55
  C 994.76 478.94 999.68 471.03 1003.52 462.80
  Z"
/>
<path d="
  M 767.86 464.03
  C 767.84 463.49 768.59 463.34 768.79 463.84
  C 773.82 476.35 781.33 487.22 791.30 496.45
  C 798.03 502.68 806.10 507.54 814.87 509.10
  C 815.69 509.25 816.26 510.01 816.18 510.84
  C 815.56 517.00 816.43 522.86 818.79 528.43
  C 818.89 528.67 818.69 528.92 818.43 528.88
  C 805.64 526.67 794.89 520.92 786.16 511.64
  C 779.39 504.45 774.59 496.17 771.74 486.80
  C 769.35 478.95 768.06 471.36 767.86 464.03
  Z"
/>
<path d="
  M 371.20 563.26
  C 371.30 562.80 371.86 562.63 372.19 562.95
  C 379.84 570.38 387.02 577.76 395.19 584.64
  C 398.25 587.22 401.17 589.68 403.95 592.01
  C 404.74 592.68 405.06 593.87 404.89 595.57
  C 403.24 612.12 402.34 624.51 402.17 632.76
  C 401.95 643.81 401.78 658.48 402.58 670.92
  C 403.21 680.67 403.59 686.28 403.72 687.75
  C 405.67 710.58 409.00 732.43 413.70 753.28
  C 417.17 768.69 421.63 785.95 426.93 801.95
  C 432.96 820.10 439.37 836.59 446.16 851.41
  C 453.41 867.23 460.52 881.27 467.47 893.54
  C 470.18 898.31 474.67 905.65 480.96 915.58
  C 498.11 942.65 517.79 967.95 540.01 991.50
  C 551.55 1003.73 560.31 1012.26 572.49 1023.51
  C 590.48 1040.13 607.95 1054.41 624.90 1066.36
  C 647.25 1082.11 670.42 1096.11 694.43 1108.35
  C 696.59 1109.45 697.82 1110.21 698.12 1110.62
  C 698.27 1110.83 698.14 1111.12 697.89 1111.15
  C 697.65 1111.18 692.72 1111.26 683.11 1111.39
  C 670.16 1111.56 657.60 1112.57 645.73 1113.51
  C 644.69 1113.59 643.64 1113.36 642.72 1112.85
  C 619.75 1100.00 597.50 1085.66 575.98 1069.83
  C 553.79 1053.50 533.70 1036.28 515.71 1018.15
  C 486.27 988.49 460.74 956.14 439.13 921.10
  C 406.02 867.41 383.18 806.13 371.70 743.59
  C 362.50 693.48 360.82 642.69 366.65 591.24
  C 367.66 582.25 369.18 572.92 371.20 563.26
  Z"
/>
<path d="
  M 1389.61 568.26
  C 1389.82 568.05 1390.17 568.16 1390.22 568.45
  C 1390.97 572.72 1391.49 576.07 1391.76 578.48
  C 1394.97 606.71 1395.76 634.67 1394.13 662.37
  C 1393.96 665.34 1393.32 669.13 1393.36 672.72
  C 1393.38 674.12 1393.32 675.50 1393.19 676.85
  C 1390.84 700.22 1388.07 719.84 1384.89 735.71
  C 1377.79 771.12 1367.09 807.63 1352.80 845.25
  C 1351.36 849.03 1348.97 854.87 1345.63 862.77
  C 1336.93 883.31 1327.50 904.14 1317.48 922.02
  C 1316.69 923.44 1315.90 924.64 1315.13 925.63
  C 1314.92 925.90 1314.55 925.96 1314.27 925.77
  L 1300.10 916.17
  C 1299.35 915.66 1299.09 914.67 1299.51 913.87
  C 1310.98 891.69 1320.52 870.71 1328.14 850.94
  C 1340.74 818.25 1350.36 784.19 1357.01 748.74
  C 1366.62 697.47 1368.42 646.30 1362.40 595.24
  C 1362.26 594.07 1362.74 592.90 1363.67 592.17
  C 1371.16 586.26 1377.19 580.95 1381.76 576.26
  C 1386.17 571.73 1388.79 569.07 1389.61 568.26
  Z"
/>
<path d="
  M 1219.92 950.78
  C 1219.70 950.88 1219.66 951.18 1219.86 951.33
  C 1222.57 953.28 1225.93 954.57 1229.15 956.81
  C 1239.14 963.79 1246.17 972.86 1250.23 984.03
  C 1252.59 990.53 1253.49 997.77 1252.92 1005.75
  C 1251.65 1023.69 1245.40 1040.39 1235.30 1055.31
  C 1231.16 1061.43 1227.00 1066.76 1222.81 1071.31
  C 1211.96 1083.08 1201.63 1092.32 1191.81 1099.05
  C 1180.58 1106.74 1169.69 1113.02 1159.16 1117.89
  C 1150.87 1121.72 1145.60 1124.11 1143.33 1125.06
  C 1137.79 1127.39 1127.15 1131.08 1111.40 1136.13
  C 1108.43 1137.08 1100.36 1138.98 1087.19 1141.82
  C 1078.52 1143.69 1070.36 1145.16 1062.72 1146.23
  C 1038.33 1149.64 1013.57 1150.96 988.45 1150.19
  C 974.87 1149.77 966.28 1148.84 949.79 1147.34
  C 934.10 1145.92 916.17 1143.11 896.01 1138.91
  C 881.88 1135.96 873.32 1134.11 870.34 1133.35
  C 867.86 1132.71 866.30 1132.13 863.58 1131.13
  C 863.11 1130.96 863.08 1130.30 863.53 1130.07
  C 865.46 1129.10 867.45 1128.66 869.50 1128.75
  C 896.80 1129.92 923.77 1129.62 950.42 1127.84
  C 986.45 1125.43 1022.56 1118.66 1058.73 1107.51
  C 1078.23 1101.50 1096.23 1094.24 1112.74 1085.73
  C 1134.09 1074.72 1154.54 1061.06 1166.62 1041.58
  C 1172.29 1032.45 1175.21 1020.91 1173.09 1010.16
  C 1169.89 993.82 1151.77 987.28 1137.62 993.10
  C 1133.14 994.95 1129.31 996.99 1126.14 999.22
  C 1125.82 999.44 1125.41 999.11 1125.56 998.75
  C 1131.43 984.53 1140.24 970.61 1151.75 959.01
  C 1163.94 946.72 1178.41 937.11 1195.14 930.19
  C 1217.57 920.91 1240.61 918.62 1264.24 923.31
  C 1278.10 926.06 1292.02 932.61 1303.88 941.67
  C 1314.27 949.61 1323.21 958.39 1330.70 968.01
  C 1338.83 978.46 1345.28 988.99 1352.04 1002.02
  C 1359.55 1016.47 1364.21 1025.29 1366.03 1028.48
  C 1378.43 1050.16 1393.80 1070.81 1412.81 1088.18
  C 1423.92 1098.33 1436.52 1107.55 1450.61 1115.84
  C 1469.44 1126.92 1489.35 1135.60 1510.35 1141.88
  C 1510.54 1141.94 1510.65 1142.12 1510.63 1142.31
  C 1510.60 1142.50 1510.43 1142.65 1510.24 1142.65
  C 1494.13 1142.77 1477.60 1140.94 1461.59 1136.58
  C 1448.01 1132.88 1435.61 1128.47 1424.39 1123.35
  C 1417.30 1120.11 1409.44 1115.89 1400.79 1110.69
  C 1382.17 1099.50 1365.78 1085.64 1351.63 1069.12
  C 1342.22 1058.14 1333.51 1046.82 1325.09 1032.92
  C 1320.95 1026.08 1315.52 1017.51 1308.80 1007.20
  C 1302.99 998.29 1296.84 990.01 1290.33 982.36
  C 1285.90 977.15 1279.00 970.66 1273.39 966.60
  C 1258.03 955.48 1240.74 950.09 1221.52 950.44
  C 1220.95 950.45 1220.41 950.56 1219.92 950.78
  Z"
/>
<path d="
  M 1472.43 1171.54
  C 1472.50 1171.58 1472.54 1171.67 1472.51 1171.75
  L 1472.50 1171.76
  C 1472.47 1171.84 1472.37 1171.89 1472.29 1171.86
  C 1454.25 1166.19 1435.39 1161.72 1415.71 1158.47
  C 1406.57 1156.96 1396.03 1156.28 1386.58 1155.06
  C 1383.02 1154.60 1379.12 1154.35 1374.89 1154.31
  C 1359.46 1154.16 1349.99 1154.22 1346.50 1154.50
  C 1328.56 1155.94 1317.25 1157.00 1312.57 1157.68
  C 1303.99 1158.92 1292.39 1160.55 1281.55 1163.01
  C 1273.08 1164.93 1268.93 1165.55 1261.92 1167.65
  C 1254.76 1169.79 1242.21 1172.60 1232.91 1175.48
  C 1220.16 1179.42 1204.99 1183.97 1187.38 1189.14
  C 1122.98 1208.02 1057.21 1218.60 991.26 1213.36
  C 974.78 1212.06 956.14 1210.43 937.76 1207.85
  C 908.39 1203.73 877.51 1198.54 847.18 1193.73
  C 836.37 1192.02 827.05 1190.52 819.23 1189.25
  C 818.65 1189.15 818.29 1188.57 818.45 1188.01
  C 821.02 1179.26 824.68 1171.31 829.45 1164.18
  C 832.32 1159.89 835.58 1155.15 839.24 1149.96
  C 841.45 1146.84 843.07 1147.63 846.82 1148.36
  C 876.38 1154.11 903.70 1158.97 928.79 1162.94
  C 948.24 1166.03 968.04 1168.25 988.19 1169.60
  C 999.00 1170.33 1009.77 1170.53 1020.50 1170.21
  C 1044.61 1169.51 1068.42 1166.73 1091.93 1161.87
  C 1115.97 1156.90 1141.12 1149.23 1162.46 1139.54
  C 1172.65 1134.92 1181.41 1129.75 1190.03 1125.01
  C 1190.62 1124.68 1193.96 1122.52 1200.03 1118.51
  C 1213.31 1109.74 1225.55 1099.31 1236.75 1087.24
  C 1254.15 1068.48 1267.02 1047.17 1273.02 1022.56
  C 1274.51 1016.47 1275.40 1008.05 1276.54 1002.38
  C 1276.64 1001.88 1277.22 1001.65 1277.63 1001.96
  C 1279.04 1003.01 1280.39 1004.48 1281.68 1006.37
  C 1288.24 1016.00 1294.23 1025.13 1299.66 1033.78
  C 1310.61 1051.22 1320.94 1066.24 1332.84 1080.65
  C 1351.51 1103.25 1375.21 1121.68 1400.98 1135.49
  C 1407.30 1138.88 1419.49 1145.32 1429.62 1150.16
  C 1441.91 1156.03 1456.18 1163.15 1472.43 1171.54
  Z"
/>
<ellipse cx="0.00" cy="0.00" transform="translate(857.12,1129.09) rotate(-164.2)" rx="0.77" ry="0.47"/>
<path d="
  M 475.79 1196.35
  C 475.66 1196.38 475.53 1196.31 475.49 1196.19
  C 475.44 1196.06 475.49 1195.92 475.61 1195.86
  C 477.03 1195.07 479.06 1193.68 481.69 1191.71
  C 489.16 1186.09 498.11 1180.36 508.54 1174.52
  C 522.31 1166.81 536.19 1160.39 550.18 1155.27
  C 579.99 1144.36 610.36 1137.22 641.28 1133.85
  C 655.21 1132.33 669.19 1130.87 683.62 1130.71
  C 695.00 1130.58 703.46 1130.57 709.00 1130.68
  C 718.90 1130.87 729.40 1131.60 740.50 1132.86
  C 746.88 1133.59 751.60 1133.76 757.61 1134.89
  C 758.42 1135.04 758.91 1135.88 758.64 1136.66
  C 754.05 1150.08 752.19 1164.78 751.63 1178.74
  C 751.61 1179.26 751.19 1179.66 750.68 1179.67
  C 749.71 1179.68 748.82 1179.63 748.00 1179.52
  C 733.33 1177.57 719.78 1176.20 707.33 1175.41
  C 704.39 1175.23 700.37 1174.41 697.24 1174.34
  C 693.81 1174.27 687.89 1173.92 679.50 1173.30
  C 668.04 1172.45 652.92 1172.55 643.50 1172.73
  C 636.49 1172.86 630.53 1173.07 625.62 1173.36
  C 621.29 1173.62 617.55 1173.81 614.38 1173.93
  C 609.44 1174.12 604.66 1174.45 600.03 1174.93
  C 570.79 1177.97 547.47 1181.21 530.06 1184.64
  C 513.77 1187.86 495.68 1191.76 475.79 1196.35
  Z"
/>
<path d="
  M 1080.22 1344.82
  C 1080.72 1344.82 1081.08 1345.32 1080.91 1345.80
  C 1069.98 1377.15 1060.53 1407.76 1049.02 1440.28
  C 1045.80 1449.37 1040.44 1457.33 1032.95 1464.16
  C 1022.91 1473.32 1011.12 1478.52 997.57 1479.77
  C 995.54 1479.96 989.35 1480.04 979.00 1480.01
  C 965.66 1479.97 916.01 1479.98 830.06 1480.03
  C 818.14 1480.04 810.32 1479.55 806.61 1478.56
  C 798.82 1476.49 791.89 1472.87 785.82 1467.72
  C 779.86 1462.68 773.94 1453.04 773.12 1444.54
  C 772.66 1439.73 772.73 1435.72 773.34 1432.52
  C 774.14 1428.35 775.56 1423.22 777.60 1417.15
  C 781.99 1404.08 787.24 1387.91 793.33 1368.62
  C 797.56 1355.25 803.60 1336.29 811.46 1311.74
  C 814.39 1302.60 817.82 1294.68 823.13 1287.65
  C 824.66 1285.64 827.34 1282.70 831.17 1278.85
  C 833.59 1276.42 836.66 1273.90 840.37 1271.29
  C 852.24 1262.94 864.93 1257.55 878.43 1255.12
  C 884.04 1254.11 893.11 1253.61 905.66 1253.62
  C 973.76 1253.67 1022.89 1253.66 1053.05 1253.58
  C 1067.05 1253.55 1081.27 1258.35 1089.48 1270.05
  C 1094.34 1276.99 1095.66 1288.08 1094.31 1295.63
  C 1093.23 1301.62 1091.41 1307.87 1088.84 1314.36
  C 1088.42 1315.42 1087.40 1316.11 1086.27 1316.10
  L 1017.84 1316.03
  C 1017.16 1316.03 1016.54 1315.65 1016.21 1315.05
  C 1015.56 1313.83 1015.09 1311.67 1014.04 1310.41
  C 1012.64 1308.74 1010.71 1307.90 1008.24 1307.89
  C 963.18 1307.88 931.37 1307.87 912.82 1307.86
  C 911.05 1307.86 909.66 1307.84 908.66 1307.80
  C 899.56 1307.42 892.63 1311.16 887.87 1319.03
  C 887.60 1319.48 887.39 1319.95 887.22 1320.45
  C 881.61 1337.76 874.69 1358.41 866.44 1382.40
  C 865.60 1384.83 863.88 1390.11 861.29 1398.22
  C 858.62 1406.57 856.85 1411.81 855.97 1413.96
  C 854.09 1418.54 856.05 1424.99 860.69 1427.52
  C 862.62 1428.57 865.14 1429.10 868.24 1429.10
  C 909.26 1429.05 940.00 1429.07 960.45 1429.14
  C 965.62 1429.16 969.26 1428.69 971.36 1427.73
  C 977.89 1424.74 980.88 1420.94 983.28 1413.67
  C 985.88 1405.77 988.02 1399.26 989.70 1394.14
  C 989.94 1393.42 989.40 1392.68 988.64 1392.68
  L 913.73 1392.68
  C 913.18 1392.68 912.79 1392.13 912.97 1391.61
  L 928.57 1346.21
  C 928.86 1345.38 929.64 1344.82 930.51 1344.82
  L 1080.22 1344.82
  Z"
/>
<path d="
  M 274.60 1428.90
  C 274.50 1429.23 274.74 1429.56 275.08 1429.56
  C 339.54 1429.88 383.01 1429.96 405.50 1429.80
  C 409.50 1429.77 415.64 1429.97 423.92 1430.38
  C 424.83 1430.43 425.44 1431.33 425.14 1432.19
  L 409.24 1478.46
  C 409.00 1479.17 408.33 1479.65 407.58 1479.64
  C 402.71 1479.64 398.70 1480.03 394.39 1480.03
  C 345.46 1480.02 278.67 1479.99 194.00 1479.95
  C 191.01 1479.94 187.32 1479.87 182.93 1479.74
  C 182.34 1479.72 181.94 1479.15 182.12 1478.59
  L 253.97 1255.50
  C 254.27 1254.56 255.15 1253.93 256.13 1253.93
  L 330.07 1253.93
  C 330.51 1253.93 330.82 1254.36 330.69 1254.78
  L 274.60 1428.90
  Z"
/>
<path d="
  M 1303.56 1479.92
  L 1231.13 1479.92
  C 1230.32 1479.92 1229.75 1479.13 1229.99 1478.36
  L 1299.91 1254.59
  C 1300.06 1254.09 1300.53 1253.75 1301.05 1253.75
  L 1374.53 1253.75
  C 1375.34 1253.75 1375.92 1254.54 1375.67 1255.31
  L 1304.71 1479.08
  C 1304.55 1479.58 1304.08 1479.92 1303.56 1479.92
  Z"
/>
<path d="
  M 1475.63 1306.78
  C 1474.91 1306.24 1473.76 1306.03 1472.17 1306.15
  C 1472.06 1306.16 1471.61 1306.16 1470.83 1306.17
  C 1445.88 1306.27 1419.72 1306.28 1392.35 1306.19
  C 1391.57 1306.19 1391.02 1305.41 1391.27 1304.67
  C 1394.78 1294.20 1398.08 1284.27 1401.17 1274.90
  C 1403.38 1268.21 1405.61 1262.20 1407.86 1256.89
  C 1408.73 1254.83 1409.58 1254.27 1411.81 1254.07
  C 1414.40 1253.83 1418.30 1253.71 1423.50 1253.72
  C 1492.79 1253.87 1564.29 1253.87 1638.00 1253.72
  C 1641.63 1253.71 1644.91 1253.78 1647.83 1253.93
  C 1648.72 1253.98 1649.32 1254.84 1649.06 1255.69
  L 1633.69 1304.86
  C 1633.45 1305.63 1632.74 1306.16 1631.93 1306.16
  L 1550.17 1306.16
  C 1549.54 1306.16 1548.99 1306.56 1548.80 1307.16
  L 1494.54 1478.24
  C 1494.23 1479.21 1493.33 1479.87 1492.32 1479.87
  L 1423.08 1479.87
  C 1422.46 1479.87 1422.01 1479.26 1422.20 1478.67
  L 1475.77 1307.22
  C 1475.82 1307.06 1475.76 1306.88 1475.63 1306.78
  Z"
/>
<path d="
  M 782.33 1288.89
  C 783.38 1296.16 782.81 1303.49 780.61 1310.88
  C 775.80 1327.07 771.09 1342.27 766.48 1356.47
  C 761.11 1373.00 757.11 1387.10 752.26 1401.00
  C 751.76 1402.45 749.68 1409.39 746.01 1421.84
  C 744.19 1428.02 742.47 1432.15 739.62 1439.62
  C 734.18 1453.90 720.63 1465.58 707.33 1472.57
  C 701.80 1475.47 695.12 1477.64 687.28 1479.09
  C 683.72 1479.75 676.68 1480.07 666.16 1480.04
  C 622.82 1479.91 564.76 1480.24 502.83 1479.95
  C 497.15 1479.92 492.86 1479.62 489.97 1479.05
  C 485.11 1478.09 480.97 1477.00 477.56 1475.78
  C 475.01 1474.87 471.60 1473.03 467.32 1470.25
  C 457.93 1464.15 452.54 1455.59 451.16 1444.56
  C 450.34 1438.00 450.97 1431.60 453.06 1425.35
  C 454.50 1421.03 461.43 1399.30 473.85 1360.17
  C 481.75 1335.25 487.19 1317.92 490.17 1308.17
  C 497.08 1285.56 511.63 1269.78 533.82 1260.84
  C 541.97 1257.55 550.04 1255.43 558.01 1254.48
  C 561.88 1254.02 570.21 1253.82 583.02 1253.89
  C 589.47 1253.92 638.97 1253.93 731.50 1253.92
  C 746.00 1253.92 760.87 1257.72 771.67 1267.42
  C 777.48 1272.64 781.27 1281.54 782.33 1288.89
  Z
  M 533.27 1415.07
  C 531.45 1423.73 536.87 1429.03 545.77 1429.07
  C 554.40 1429.10 588.17 1429.11 647.10 1429.11
  C 652.35 1429.11 655.91 1428.69 657.79 1427.86
  C 661.32 1426.31 664.36 1424.08 666.91 1421.17
  C 668.51 1419.35 670.36 1415.21 672.46 1408.76
  C 673.86 1404.46 675.73 1398.69 678.06 1391.44
  C 683.76 1373.77 689.49 1356.16 695.25 1338.63
  C 698.34 1329.22 700.16 1323.58 700.71 1321.71
  C 703.05 1313.71 698.80 1307.90 690.75 1307.89
  C 672.09 1307.87 637.53 1307.85 587.08 1307.83
  C 578.00 1307.82 572.54 1308.39 566.77 1314.46
  C 565.13 1316.19 563.15 1320.72 560.82 1328.06
  C 548.93 1365.50 542.54 1385.72 541.65 1388.73
  C 540.92 1391.22 539.47 1395.59 537.30 1401.82
  C 535.20 1407.88 533.86 1412.30 533.27 1415.07
  Z"
/>
<path d="
  M 1230.70 1346.96
  L 1214.61 1393.76
  C 1214.39 1394.41 1213.78 1394.84 1213.10 1394.84
  L 1102.51 1394.84
  C 1101.41 1394.84 1100.64 1393.76 1101.00 1392.72
  L 1117.08 1345.92
  C 1117.30 1345.27 1117.91 1344.84 1118.59 1344.84
  L 1229.19 1344.84
  C 1230.29 1344.84 1231.06 1345.92 1230.70 1346.96
  Z"
/>
<rect x="1223.59" y="1531.89" width="10.30" height="68.30" rx="1.64"/>
<path d="
  M 408.91 1547.25
  C 409.17 1547.95 408.79 1548.72 408.07 1548.94
  L 399.35 1551.58
  C 398.58 1551.82 397.75 1551.47 397.38 1550.75
  C 395.15 1546.45 391.61 1544.79 386.75 1545.75
  C 382.80 1546.53 381.40 1550.64 384.18 1553.76
  C 385.21 1554.90 386.76 1555.77 388.83 1556.37
  C 400.74 1559.76 413.77 1563.14 410.09 1579.44
  C 408.04 1588.52 398.09 1592.12 389.54 1592.15
  C 378.53 1592.19 370.26 1587.53 367.64 1576.53
  C 367.47 1575.82 367.95 1575.11 368.67 1574.99
  L 378.37 1573.51
  C 378.90 1573.43 379.41 1573.73 379.60 1574.22
  C 381.46 1578.92 384.95 1581.20 390.05 1581.08
  C 393.20 1581.00 397.13 1579.72 397.38 1576.23
  C 397.72 1571.53 393.99 1569.98 389.82 1568.85
  C 380.22 1566.26 369.63 1563.46 369.62 1551.43
  C 369.61 1542.17 376.29 1536.19 385.18 1535.19
  C 395.67 1534.01 404.99 1536.66 408.91 1547.25
  Z"
/>
<path d="
  M 479.59 1550.77
  C 479.76 1551.29 479.47 1551.85 478.94 1552.02
  L 467.62 1555.46
  C 467.21 1555.58 466.78 1555.37 466.62 1554.98
  C 464.08 1548.75 459.67 1546.01 453.38 1546.76
  C 447.06 1547.51 443.12 1552.46 442.14 1558.60
  C 440.99 1565.82 441.84 1576.19 449.91 1579.32
  C 455.01 1581.30 459.70 1580.42 463.97 1576.67
  C 464.47 1576.23 464.87 1575.71 465.16 1575.12
  L 467.12 1571.09
  C 467.41 1570.51 468.08 1570.23 468.69 1570.44
  L 478.74 1573.90
  C 479.73 1574.24 480.23 1575.35 479.82 1576.31
  C 475.75 1585.84 468.49 1591.08 458.02 1592.04
  C 451.61 1592.63 445.85 1591.44 440.74 1588.49
  C 429.82 1582.19 425.80 1567.17 428.89 1555.35
  C 432.79 1540.45 444.93 1533.18 459.92 1535.10
  C 468.84 1536.25 476.88 1542.55 479.59 1550.77
  Z"
/>
<path d="
  M 1179.34 1547.16
  C 1179.60 1547.86 1179.22 1548.63 1178.50 1548.85
  L 1169.77 1551.50
  C 1169.00 1551.74 1168.17 1551.39 1167.80 1550.67
  C 1165.57 1546.37 1162.03 1544.70 1157.17 1545.67
  C 1153.21 1546.45 1151.81 1550.56 1154.60 1553.68
  C 1155.63 1554.83 1157.18 1555.70 1159.25 1556.29
  C 1171.16 1559.68 1184.20 1563.06 1180.52 1579.37
  C 1178.48 1588.45 1168.52 1592.05 1159.97 1592.09
  C 1148.95 1592.13 1140.68 1587.47 1138.06 1576.47
  C 1137.89 1575.75 1138.36 1575.04 1139.09 1574.93
  L 1148.79 1573.44
  C 1149.32 1573.36 1149.83 1573.66 1150.02 1574.15
  C 1151.89 1578.85 1155.37 1581.14 1160.48 1581.01
  C 1163.63 1580.93 1167.56 1579.65 1167.81 1576.16
  C 1168.15 1571.46 1164.41 1569.91 1160.24 1568.78
  C 1150.64 1566.19 1140.04 1563.39 1140.03 1551.36
  C 1140.02 1542.09 1146.70 1536.11 1155.59 1535.10
  C 1166.09 1533.92 1175.41 1536.57 1179.34 1547.16
  Z"
/>
<path d="
  M 1434.89 1534.85
  C 1451.85 1535.51 1461.13 1548.31 1460.51 1564.48
  C 1459.89 1580.65 1449.65 1592.70 1432.69 1592.05
  C 1415.74 1591.40 1406.46 1578.60 1407.08 1562.43
  C 1407.70 1546.25 1417.94 1534.20 1434.89 1534.85
  Z
  M 1420.65 1563.45
  C 1420.65 1571.95 1423.81 1580.28 1433.87 1580.28
  C 1443.93 1580.28 1447.10 1571.96 1447.10 1563.46
  C 1447.10 1554.96 1443.94 1546.64 1433.88 1546.63
  C 1423.82 1546.63 1420.66 1554.95 1420.65 1563.45
  Z"
/>
<path d="
  M 770.34 1547.14
  C 770.61 1547.84 770.23 1548.62 769.51 1548.84
  L 760.79 1551.54
  C 760.02 1551.78 759.19 1551.43 758.82 1550.72
  C 756.57 1546.43 753.02 1544.78 748.16 1545.77
  C 744.20 1546.57 742.82 1550.69 745.63 1553.80
  C 746.66 1554.94 748.22 1555.80 750.30 1556.38
  C 762.23 1559.71 775.29 1563.02 771.69 1579.36
  C 769.70 1588.45 759.76 1592.10 751.21 1592.19
  C 740.18 1592.29 731.89 1587.67 729.21 1576.68
  C 729.03 1575.96 729.50 1575.25 730.23 1575.13
  L 739.92 1573.59
  C 740.45 1573.51 740.96 1573.80 741.16 1574.30
  C 743.05 1578.99 746.55 1581.26 751.66 1581.10
  C 754.81 1581.01 758.73 1579.70 758.96 1576.21
  C 759.28 1571.51 755.53 1569.98 751.35 1568.87
  C 741.74 1566.33 731.12 1563.59 731.05 1551.55
  C 730.99 1542.28 737.64 1536.26 746.52 1535.21
  C 757.02 1533.97 766.36 1536.57 770.34 1547.14
  Z"
/>
<path d="
  M 1051.94 1570.81
  C 1052.06 1570.60 1052.30 1570.50 1052.53 1570.57
  L 1063.78 1574.08
  C 1064.27 1574.24 1064.53 1574.78 1064.34 1575.26
  C 1061.61 1582.03 1057.46 1586.78 1051.88 1589.51
  C 1044.64 1593.04 1034.11 1592.91 1026.74 1589.59
  C 1022.95 1587.87 1021.23 1586.11 1018.39 1582.78
  C 1010.38 1573.41 1010.53 1556.46 1017.12 1546.33
  C 1022.03 1538.78 1029.39 1534.97 1039.18 1534.90
  C 1050.93 1534.81 1059.16 1539.96 1063.85 1550.37
  C 1064.15 1551.03 1063.80 1551.81 1063.11 1552.02
  L 1052.88 1555.12
  C 1052.07 1555.36 1051.21 1555.00 1050.81 1554.26
  C 1047.95 1548.81 1043.82 1546.26 1038.43 1546.61
  C 1033.30 1546.95 1028.64 1550.68 1027.08 1555.28
  C 1024.38 1563.31 1025.42 1576.96 1035.35 1579.85
  C 1040.10 1581.24 1046.23 1579.70 1049.23 1575.36
  C 1049.93 1574.34 1050.83 1572.82 1051.94 1570.81
  Z"
/>
<path d="
  M 1319.08 1547.49
  C 1319.33 1548.19 1318.93 1548.96 1318.22 1549.16
  L 1309.46 1551.70
  C 1308.69 1551.93 1307.87 1551.57 1307.51 1550.85
  C 1305.34 1546.52 1301.82 1544.82 1296.95 1545.72
  C 1292.99 1546.45 1291.54 1550.54 1294.29 1553.69
  C 1295.30 1554.85 1296.83 1555.73 1298.90 1556.35
  C 1310.75 1559.89 1323.73 1563.43 1319.85 1579.67
  C 1317.70 1588.71 1307.71 1592.18 1299.17 1592.12
  C 1288.16 1592.02 1279.96 1587.26 1277.48 1576.24
  C 1277.32 1575.52 1277.80 1574.82 1278.53 1574.72
  L 1288.24 1573.35
  C 1288.76 1573.28 1289.27 1573.58 1289.46 1574.07
  C 1291.26 1578.79 1294.71 1581.12 1299.82 1581.06
  C 1302.96 1581.02 1306.90 1579.79 1307.20 1576.30
  C 1307.60 1571.62 1303.88 1570.02 1299.73 1568.84
  C 1290.17 1566.13 1279.62 1563.20 1279.76 1551.19
  C 1279.87 1541.93 1286.62 1536.04 1295.51 1535.14
  C 1306.01 1534.10 1315.28 1536.86 1319.08 1547.49
  Z"
/>
<path d="
  M 934.17 1572.77
  C 934.46 1572.77 934.63 1572.68 934.70 1572.49
  C 938.63 1561.06 942.46 1549.21 946.19 1536.94
  C 946.43 1536.13 947.18 1535.57 948.03 1535.57
  L 959.19 1535.57
  C 959.94 1535.57 960.46 1536.31 960.22 1537.01
  L 942.00 1590.03
  C 941.80 1590.62 941.27 1591.03 940.65 1591.10
  C 939.23 1591.26 937.05 1591.33 934.13 1591.32
  C 931.20 1591.32 929.02 1591.23 927.60 1591.07
  C 926.98 1591.00 926.46 1590.58 926.26 1590.00
  L 908.27 1536.90
  C 908.03 1536.19 908.56 1535.46 909.31 1535.46
  L 920.47 1535.51
  C 921.32 1535.51 922.06 1536.07 922.30 1536.89
  C 925.97 1549.18 929.75 1561.04 933.64 1572.48
  C 933.70 1572.67 933.88 1572.77 934.17 1572.77
  Z"
/>
<path d="
  M 522.63 1580.30
  C 531.25 1580.31 532.75 1573.78 532.62 1566.76
  C 532.43 1557.06 532.47 1546.99 532.72 1536.55
  C 532.74 1535.98 533.20 1535.53 533.76 1535.53
  L 544.48 1535.53
  C 545.09 1535.53 545.60 1535.98 545.67 1536.58
  C 545.74 1537.11 545.78 1538.41 545.78 1540.50
  C 545.81 1556.40 545.77 1566.98 545.66 1572.23
  C 545.38 1585.73 535.55 1592.19 522.62 1592.18
  C 509.68 1592.17 499.86 1585.69 499.60 1572.19
  C 499.50 1566.93 499.49 1556.36 499.55 1540.46
  C 499.55 1538.37 499.59 1537.06 499.67 1536.54
  C 499.74 1535.94 500.25 1535.49 500.86 1535.49
  L 511.58 1535.51
  C 512.14 1535.51 512.60 1535.96 512.62 1536.53
  C 512.85 1546.97 512.86 1557.04 512.66 1566.74
  C 512.51 1573.76 514.01 1580.29 522.63 1580.30
  Z"
/>
<path d="
  M 568.62 1536.42
  C 568.62 1536.02 568.93 1535.70 569.33 1535.68
  C 579.21 1535.31 588.26 1535.29 596.48 1535.64
  C 598.05 1535.71 599.96 1536.25 602.20 1537.28
  C 609.29 1540.53 612.77 1547.82 609.66 1555.11
  C 608.69 1557.38 606.20 1559.42 604.13 1561.09
  C 603.73 1561.41 603.78 1562.03 604.22 1562.29
  C 611.47 1566.45 613.91 1572.51 611.56 1580.47
  C 609.29 1588.13 600.89 1591.25 593.76 1591.18
  C 588.57 1591.13 580.69 1591.14 570.11 1591.19
  C 569.29 1591.19 568.62 1590.53 568.62 1589.71
  L 568.62 1536.42
  Z
  M 581.59 1548.96
  L 581.73 1555.47
  C 581.76 1556.72 582.78 1557.70 584.03 1557.68
  L 591.68 1557.52
  C 594.94 1557.45 597.53 1555.11 597.47 1552.30
  L 597.45 1551.46
  C 597.39 1548.65 594.71 1546.43 591.45 1546.50
  L 583.80 1546.66
  C 582.55 1546.69 581.57 1547.71 581.59 1548.96
  Z
  M 581.77 1569.24
  L 581.75 1578.18
  C 581.75 1579.34 582.69 1580.29 583.85 1580.29
  L 591.65 1580.30
  C 595.69 1580.31 598.97 1577.51 598.98 1574.06
  L 598.98 1573.44
  C 598.99 1569.98 595.71 1567.17 591.67 1567.16
  L 583.87 1567.15
  C 582.71 1567.15 581.77 1568.09 581.77 1569.24
  Z"
/>
<path d="
  M 628.18 1591.13
  C 627.77 1591.13 627.49 1590.74 627.62 1590.36
  C 632.93 1575.13 639.16 1557.45 646.33 1537.32
  C 647.01 1535.41 648.26 1535.57 649.99 1535.55
  C 654.09 1535.50 657.54 1535.53 660.33 1535.66
  C 661.50 1535.71 662.36 1536.53 662.91 1538.12
  C 668.40 1553.85 673.61 1568.87 678.54 1583.20
  C 679.37 1585.62 680.05 1587.84 680.58 1589.86
  C 680.76 1590.52 680.26 1591.17 679.57 1591.17
  L 667.99 1591.17
  C 667.60 1591.17 667.25 1590.91 667.14 1590.54
  L 664.57 1582.08
  C 664.27 1581.12 663.38 1580.46 662.37 1580.46
  L 645.36 1580.46
  C 644.80 1580.46 644.30 1580.82 644.11 1581.35
  L 641.09 1590.14
  C 640.89 1590.73 640.33 1591.13 639.70 1591.13
  L 628.18 1591.13
  Z
  M 647.88 1568.68
  C 647.66 1569.31 648.13 1569.97 648.80 1569.97
  L 659.75 1570.03
  C 660.42 1570.04 660.89 1569.38 660.68 1568.74
  L 655.30 1552.48
  C 655.00 1551.58 653.74 1551.58 653.44 1552.47
  L 647.88 1568.68
  Z"
/>
<path d="
  M 793.83 1535.48
  L 826.96 1535.48
  C 827.84 1535.48 828.56 1536.20 828.56 1537.08
  L 828.56 1545.40
  C 828.56 1546.28 827.84 1547.00 826.96 1547.00
  L 806.92 1547.00
  C 806.04 1547.00 805.32 1547.72 805.32 1548.60
  L 805.32 1555.93
  C 805.32 1556.81 806.04 1557.53 806.92 1557.53
  L 824.84 1557.53
  C 825.72 1557.53 826.44 1558.25 826.44 1559.13
  L 826.44 1567.03
  C 826.44 1567.91 825.72 1568.63 824.84 1568.63
  L 806.88 1568.63
  C 806.00 1568.63 805.28 1569.35 805.28 1570.23
  L 805.28 1578.18
  C 805.28 1579.06 806.00 1579.78 806.88 1579.78
  L 827.06 1579.78
  C 827.94 1579.78 828.66 1580.50 828.66 1581.38
  L 828.66 1589.61
  C 828.66 1590.49 827.94 1591.21 827.06 1591.21
  L 793.83 1591.21
  C 792.95 1591.21 792.23 1590.49 792.23 1589.61
  L 792.23 1537.08
  C 792.23 1536.20 792.95 1535.48 793.83 1535.48
  Z"
/>
<path d="
  M 894.06 1590.22
  C 894.30 1590.69 893.96 1591.25 893.43 1591.25
  L 881.34 1591.22
  C 880.79 1591.21 880.27 1591.00 879.88 1590.62
  C 879.40 1590.14 878.80 1589.15 878.08 1587.64
  C 877.31 1586.01 875.14 1581.01 871.59 1572.64
  C 871.17 1571.66 870.22 1571.03 869.16 1571.03
  L 864.96 1571.03
  C 864.09 1571.03 863.38 1571.74 863.38 1572.61
  L 863.38 1589.96
  C 863.38 1590.62 862.85 1591.15 862.19 1591.15
  L 851.63 1591.15
  C 850.82 1591.15 850.16 1590.49 850.16 1589.68
  L 850.16 1537.06
  C 850.16 1536.22 850.85 1535.53 851.69 1535.53
  C 858.50 1535.55 864.32 1535.49 869.15 1535.35
  C 875.03 1535.19 879.39 1535.64 882.22 1536.69
  C 889.58 1539.42 893.28 1545.01 893.33 1553.46
  C 893.36 1559.68 890.65 1565.55 885.12 1568.29
  C 884.13 1568.78 883.73 1569.99 884.23 1570.98
  L 894.06 1590.22
  Z
  M 863.49 1548.74
  L 863.49 1558.70
  C 863.49 1559.73 864.33 1560.57 865.36 1560.57
  L 873.75 1560.57
  C 877.52 1560.57 880.57 1557.65 880.57 1554.05
  L 880.57 1553.39
  C 880.57 1549.79 877.52 1546.87 873.75 1546.87
  L 865.36 1546.87
  C 864.33 1546.87 863.49 1547.71 863.49 1548.74
  Z"
/>
<rect x="-6.74" y="-27.86" transform="translate(985.46,1563.27) rotate(0.1)" width="13.48" height="55.72" rx="1.78"/>
<path d="
  M 1084.23 1591.06
  C 1083.72 1591.06 1083.30 1590.65 1083.30 1590.14
  L 1083.14 1536.73
  C 1083.14 1536.04 1083.69 1535.49 1084.38 1535.48
  L 1118.23 1535.39
  C 1118.93 1535.38 1119.49 1535.95 1119.49 1536.65
  L 1119.51 1545.59
  C 1119.51 1546.32 1118.92 1546.91 1118.19 1546.91
  L 1097.82 1546.99
  C 1096.94 1546.99 1096.24 1547.71 1096.25 1548.58
  L 1096.30 1555.77
  C 1096.31 1556.70 1097.06 1557.46 1098.00 1557.46
  L 1116.36 1557.52
  C 1116.89 1557.52 1117.32 1557.95 1117.32 1558.49
  L 1117.32 1567.45
  C 1117.32 1568.04 1116.85 1568.52 1116.26 1568.53
  L 1097.94 1568.56
  C 1096.94 1568.57 1096.15 1569.37 1096.15 1570.37
  L 1096.24 1578.72
  C 1096.24 1579.35 1096.76 1579.85 1097.38 1579.85
  L 1117.99 1579.55
  C 1118.89 1579.54 1119.63 1580.28 1119.61 1581.18
  L 1119.44 1589.91
  C 1119.43 1590.58 1118.88 1591.12 1118.21 1591.12
  L 1084.23 1591.06
  Z"
/>
<path d="
  M 1364.27 1557.49
  C 1368.57 1557.49 1371.38 1557.49 1372.70 1557.47
  C 1373.50 1557.46 1374.15 1556.80 1374.15 1555.99
  L 1374.15 1536.97
  C 1374.15 1536.14 1374.82 1535.47 1375.65 1535.47
  L 1386.35 1535.47
  C 1386.98 1535.47 1387.49 1535.98 1387.49 1536.61
  C 1387.61 1546.25 1387.66 1555.15 1387.66 1563.29
  C 1387.65 1571.44 1387.59 1580.33 1387.46 1589.98
  C 1387.45 1590.61 1386.94 1591.11 1386.31 1591.11
  L 1375.61 1591.10
  C 1374.78 1591.09 1374.11 1590.42 1374.11 1589.59
  L 1374.14 1570.57
  C 1374.14 1569.76 1373.50 1569.10 1372.69 1569.09
  C 1371.37 1569.07 1368.57 1569.06 1364.27 1569.06
  C 1359.97 1569.06 1357.16 1569.06 1355.84 1569.08
  C 1355.04 1569.09 1354.39 1569.75 1354.39 1570.56
  L 1354.39 1589.58
  C 1354.39 1590.41 1353.72 1591.08 1352.89 1591.08
  L 1342.19 1591.08
  C 1341.56 1591.08 1341.05 1590.57 1341.05 1589.94
  C 1340.93 1580.30 1340.88 1571.40 1340.88 1563.26
  C 1340.89 1555.11 1340.96 1546.22 1341.09 1536.57
  C 1341.09 1535.95 1341.60 1535.44 1342.23 1535.44
  L 1352.93 1535.46
  C 1353.76 1535.46 1354.43 1536.13 1354.43 1536.96
  L 1354.40 1555.98
  C 1354.40 1556.79 1355.04 1557.45 1355.85 1557.46
  C 1357.17 1557.48 1359.98 1557.49 1364.27 1557.49
  Z"
/>
<path d="
  M 1494.40 1572.63
  C 1493.77 1572.61 1493.24 1573.12 1493.24 1573.75
  L 1493.24 1589.99
  C 1493.24 1590.61 1492.74 1591.11 1492.13 1591.11
  L 1481.64 1591.11
  C 1480.70 1591.11 1479.93 1590.34 1479.93 1589.40
  L 1479.93 1537.04
  C 1479.93 1536.27 1480.54 1535.64 1481.31 1535.61
  C 1490.03 1535.28 1498.10 1535.30 1505.53 1535.65
  C 1510.24 1535.87 1515.94 1539.08 1518.82 1543.26
  C 1522.15 1548.07 1522.99 1553.60 1521.34 1559.87
  C 1520.57 1562.80 1519.35 1565.07 1517.68 1566.68
  C 1510.72 1573.35 1503.42 1572.91 1494.40 1572.63
  Z
  M 1493.25 1548.54
  L 1493.19 1559.80
  C 1493.19 1560.71 1493.92 1561.45 1494.83 1561.46
  L 1501.87 1561.49
  C 1505.82 1561.51 1509.04 1558.39 1509.06 1554.52
  L 1509.06 1553.98
  C 1509.08 1550.11 1505.90 1546.95 1501.95 1546.93
  L 1494.91 1546.90
  C 1494.00 1546.89 1493.25 1547.63 1493.25 1548.54
  Z"
/>
<path d="
  M 152.66 1553.17
  C 152.58 1553.16 152.51 1553.08 152.51 1553.00
  C 152.52 1552.91 152.58 1552.84 152.67 1552.84
  C 153.40 1552.80 156.26 1552.61 161.25 1552.28
  C 168.06 1551.83 186.00 1550.98 215.06 1549.72
  C 258.21 1547.85 285.11 1546.72 295.75 1546.32
  C 298.88 1546.20 304.17 1546.07 311.60 1545.92
  C 312.30 1545.90 312.88 1546.44 312.92 1547.14
  C 313.36 1555.35 313.31 1563.76 312.76 1572.37
  C 312.71 1573.11 312.04 1573.66 311.30 1573.56
  L 152.66 1553.17
  Z"
/>
<path d="
  M 1659.17 1553.56
  C 1646.40 1555.85 1633.92 1558.19 1621.71 1560.56
  C 1607.98 1563.24 1586.88 1567.09 1558.43 1572.12
  C 1556.69 1572.43 1555.28 1572.58 1554.20 1572.58
  C 1553.67 1572.58 1553.24 1572.15 1553.24 1571.62
  L 1553.24 1547.83
  C 1553.24 1546.98 1553.95 1546.29 1554.81 1546.32
  C 1568.66 1546.81 1584.94 1547.75 1603.65 1549.13
  C 1620.55 1550.37 1637.28 1551.22 1657.10 1552.62
  C 1657.84 1552.67 1658.54 1552.80 1659.20 1552.99
  C 1659.50 1553.08 1659.47 1553.51 1659.17 1553.56
  Z"
/>
</g>
<ellipse fill="#000000" cx="0.00" cy="0.00" transform="translate(892.69,148.16) rotate(-106.1)" rx="21.82" ry="21.14"/>
</svg>
