<?xml version="1.0" encoding="UTF-8" standalone="no"?>
<!DOCTYPE svg PUBLIC "-//W3C//DTD SVG 1.1//EN" "http://www.w3.org/Graphics/SVG/1.1/DTD/svg11.dtd">
<svg xmlns="http://www.w3.org/2000/svg" version="1.1" viewBox="0.00 0.00 1773.00 1773.00">
<g fill="#ffffff">
<path d="
  M 855.83 221.71
  C 852.09 223.95 847.59 224.64 842.33 223.78
  C 841.89 223.71 841.46 223.56 841.07 223.35
  L 839.14 222.30
  C 838.58 222.00 837.96 221.83 837.33 221.81
  L 827.34 221.49
  C 826.09 221.45 824.96 222.28 824.63 223.50
  C 824.57 223.72 824.43 224.87 824.21 226.94
  C 823.87 230.11 822.23 232.16 818.99 232.76
  C 816.22 233.27 813.39 233.67 810.49 233.94
  C 798.14 235.11 786.56 235.89 775.75 236.28
  C 769.08 236.52 767.51 227.85 766.55 222.47
  C 765.26 215.20 764.37 207.11 763.88 198.18
  C 763.43 190.11 764.08 180.91 764.82 174.02
  C 765.17 170.81 765.88 167.21 766.95 163.20
  C 768.04 159.13 770.23 155.67 774.96 155.58
  C 792.92 155.25 807.61 155.66 819.02 156.80
  C 820.98 156.99 822.57 158.13 823.78 160.22
  C 824.88 162.11 824.65 165.06 825.16 167.35
  C 825.36 168.23 826.13 168.85 827.02 168.87
  C 829.18 168.92 832.77 168.89 837.78 168.80
  C 838.89 168.78 840.20 168.17 841.70 166.97
  C 842.19 166.58 842.80 166.36 843.43 166.36
  L 849.27 166.36
  C 850.03 166.36 850.69 165.83 850.85 165.09
  C 851.00 164.44 851.01 163.58 850.90 162.50
  C 850.02 153.97 850.22 146.14 851.49 138.99
  C 854.98 119.41 871.58 103.80 891.21 103.58
  C 909.14 103.37 925.39 116.10 930.74 133.01
  C 932.71 139.23 932.91 146.30 932.87 153.50
  C 932.84 158.10 931.49 162.01 931.96 166.41
  C 932.00 166.76 932.29 167.02 932.64 167.02
  L 942.69 167.02
  C 943.37 167.02 944.01 167.34 944.42 167.88
  C 945.32 169.08 945.85 170.54 946.02 172.25
  C 947.39 186.56 947.25 201.20 945.60 216.17
  C 945.10 220.66 942.43 222.20 938.02 222.01
  C 936.99 221.96 933.26 221.92 926.83 221.89
  C 926.44 221.88 926.11 222.20 926.10 222.60
  C 926.01 226.77 926.05 229.66 926.22 231.25
  C 926.32 232.16 927.14 233.92 928.69 236.54
  C 929.80 238.43 930.36 240.66 930.38 243.24
  C 930.42 248.07 930.39 253.18 930.29 258.57
  C 930.28 258.84 930.03 259.03 929.77 258.96
  C 923.72 257.38 917.51 255.94 911.14 254.63
  C 902.04 252.77 891.65 252.81 882.33 252.85
  C 872.33 252.89 861.96 255.57 851.76 258.24
  C 851.57 258.29 851.39 258.15 851.38 257.96
  C 851.11 251.71 851.16 245.59 851.53 239.61
  C 851.57 238.96 852.44 237.49 854.15 235.20
  C 854.54 234.68 854.86 234.10 855.10 233.49
  C 856.42 230.09 856.93 226.30 856.64 222.13
  C 856.61 221.73 856.17 221.50 855.83 221.71
  Z
  M 869.06 139.45
  C 869.32 139.34 869.59 139.58 869.53 139.85
  C 868.04 146.30 868.02 152.89 869.46 159.61
  C 871.61 169.63 879.25 176.95 889.68 177.85
  C 898.86 178.65 906.79 174.92 912.28 167.31
  C 916.51 161.44 917.61 151.99 916.71 145.00
  C 916.26 141.53 916.03 139.80 916.03 139.79
  C 916.05 139.48 916.38 139.30 916.66 139.43
  C 917.36 139.76 917.83 140.14 918.06 140.57
  C 918.18 140.80 918.52 140.77 918.60 140.53
  C 918.91 139.66 918.80 138.47 918.26 136.97
  C 916.31 131.49 913.22 127.13 908.99 123.88
  C 894.73 112.93 876.83 118.46 868.66 133.63
  C 867.53 135.74 867.00 137.99 867.08 140.39
  C 867.10 140.80 867.63 140.96 867.86 140.62
  C 868.29 139.99 868.69 139.60 869.06 139.45
  Z
  M 932.58 177.98
  C 932.19 177.98 931.87 178.30 931.87 178.69
  L 931.87 193.71
  C 931.87 194.18 932.33 194.52 932.78 194.39
  L 941.34 191.82
  C 941.64 191.73 941.85 191.46 941.85 191.14
  L 941.85 178.69
  C 941.85 178.30 941.53 177.98 941.14 177.98
  L 932.58 177.98
  Z
  M 841.17 193.44
  L 841.13 179.88
  C 841.12 178.90 840.32 178.10 839.34 178.11
  L 828.38 178.14
  C 825.91 178.15 823.91 179.95 823.91 182.15
  L 823.95 191.29
  C 823.95 193.49 825.97 195.27 828.44 195.26
  L 839.40 195.23
  C 840.38 195.22 841.18 194.42 841.17 193.44
  Z"
/>
<path d="
  M 1352.42 534.02
  C 1351.79 533.16 1351.32 532.15 1350.99 530.99
  C 1348.90 523.52 1346.78 516.00 1344.65 508.41
  C 1339.89 491.46 1333.73 473.64 1326.92 457.55
  C 1326.87 457.44 1324.09 451.13 1318.58 438.60
  C 1315.67 431.97 1312.70 425.74 1309.68 419.90
  C 1298.39 398.10 1285.95 377.60 1272.34 358.39
  C 1270.04 355.14 1268.10 352.59 1266.51 350.72
  C 1263.67 347.36 1261.26 343.58 1258.74 340.49
  C 1240.71 318.41 1221.88 298.75 1202.25 281.52
  C 1187.15 268.27 1170.78 255.83 1153.13 244.20
  C 1115.28 219.27 1075.09 200.61 1032.57 188.22
  C 1026.98 186.59 1020.43 184.94 1012.94 183.26
  C 1011.93 183.03 1011.21 182.13 1011.21 181.09
  L 1011.21 144.19
  C 1011.21 143.58 1011.76 143.11 1012.36 143.21
  C 1019.11 144.36 1025.15 145.63 1030.48 147.04
  C 1059.83 154.78 1086.10 164.02 1109.28 174.76
  C 1142.76 190.27 1173.21 209.32 1201.39 231.37
  C 1209.42 237.65 1219.11 245.80 1230.44 255.81
  C 1235.57 260.34 1245.74 270.50 1260.93 286.31
  C 1266.06 291.64 1272.82 299.48 1281.23 309.83
  C 1288.21 318.43 1294.47 326.65 1300.00 334.50
  C 1331.79 379.60 1357.02 428.88 1373.40 481.79
  C 1377.52 495.10 1380.53 505.52 1382.42 513.07
  C 1382.53 513.50 1382.45 513.95 1382.20 514.33
  C 1381.59 515.26 1380.57 516.20 1379.14 517.15
  C 1373.20 521.11 1368.74 523.67 1363.05 527.78
  C 1359.98 530.00 1356.70 532.13 1353.21 534.18
  C 1352.94 534.33 1352.60 534.27 1352.42 534.02
  Z"
/>
<path d="
  M 740.99 146.77
  L 737.02 188.74
  C 736.99 189.01 736.86 189.26 736.65 189.43
  C 735.62 190.28 734.21 190.95 732.40 191.44
  C 705.32 198.88 680.08 209.33 654.92 222.19
  C 615.65 242.26 579.95 267.80 547.80 298.81
  C 537.92 308.34 528.18 318.42 518.58 329.04
  C 513.51 334.64 508.10 341.53 504.07 346.56
  C 486.22 368.81 470.18 393.70 455.97 421.22
  C 452.13 428.65 447.39 438.39 441.75 450.45
  C 429.69 476.24 422.00 502.28 415.21 529.88
  C 415.09 530.38 414.51 530.60 414.08 530.32
  C 404.03 523.61 393.95 517.15 383.84 510.93
  C 380.73 509.02 381.80 507.65 382.68 504.36
  C 394.56 460.30 411.98 418.90 434.93 380.17
  C 455.28 345.83 479.43 312.90 507.24 283.59
  C 512.13 278.44 516.84 273.75 521.36 269.52
  C 527.43 263.84 534.32 256.74 541.89 250.19
  C 554.65 239.14 567.68 228.84 580.99 219.27
  C 625.77 187.10 674.60 164.06 727.00 149.02
  C 731.55 147.71 735.96 146.72 740.23 146.05
  C 740.66 145.98 741.03 146.34 740.99 146.77
  Z"
/>
<path d="
  M 872.96 281.49
  C 870.93 281.30 869.13 281.27 867.55 281.41
  C 859.31 282.16 851.14 284.10 843.04 287.25
  C 829.83 292.38 818.19 300.04 808.10 310.25
  C 796.22 322.27 788.51 336.84 784.41 352.63
  C 783.24 357.12 782.45 362.78 782.05 369.61
  C 782.03 369.94 781.80 370.22 781.48 370.32
  L 767.74 374.43
  C 767.30 374.57 766.86 374.24 766.84 373.78
  C 766.75 370.41 766.84 366.42 767.10 361.81
  C 768.82 331.74 783.41 306.83 806.19 287.72
  C 813.91 281.25 823.42 275.75 834.72 271.23
  C 892.67 248.09 965.84 263.20 996.75 321.48
  C 1005.04 337.10 1007.89 356.06 1007.17 373.96
  C 1007.16 374.31 1006.80 374.54 1006.48 374.42
  C 989.19 367.83 971.77 363.31 954.20 360.85
  C 929.80 357.43 909.56 355.68 893.48 355.60
  C 881.03 355.54 869.12 355.92 857.75 356.75
  C 856.52 356.84 851.19 357.42 841.74 358.50
  C 825.12 360.40 808.35 363.84 792.34 367.49
  C 792.10 367.55 791.86 367.37 791.85 367.12
  C 791.74 364.89 791.83 362.68 792.11 360.48
  C 793.80 347.13 798.77 334.89 807.02 323.74
  C 809.06 320.98 813.35 316.20 819.89 309.40
  C 827.97 300.99 840.67 293.62 851.21 288.73
  C 857.28 285.92 864.54 283.62 872.98 281.85
  C 873.07 281.83 873.13 281.75 873.12 281.66
  C 873.12 281.57 873.05 281.50 872.96 281.49
  Z"
/>
<path d="
  M 1204.71 344.60
  C 1204.82 344.36 1205.17 344.38 1205.25 344.63
  C 1208.17 353.98 1210.21 363.44 1211.38 373.03
  C 1211.73 375.96 1212.11 380.40 1212.52 386.35
  C 1212.81 390.62 1212.80 395.06 1212.47 399.67
  C 1211.24 417.21 1207.98 433.64 1202.67 448.97
  C 1193.24 476.21 1179.07 501.02 1160.14 523.39
  C 1151.81 533.24 1146.69 539.20 1144.80 541.29
  C 1136.11 550.88 1126.84 559.75 1116.99 567.90
  C 1115.07 569.49 1113.79 571.09 1112.48 572.64
  C 1112.25 572.91 1112.52 573.31 1112.85 573.20
  C 1113.80 572.89 1115.08 572.29 1116.71 571.41
  C 1134.90 561.58 1149.59 554.44 1160.78 550.01
  C 1182.51 541.39 1196.23 535.61 1201.94 532.67
  C 1212.53 527.20 1222.11 522.30 1232.64 515.14
  C 1245.37 506.49 1256.94 496.88 1267.33 486.33
  C 1276.60 476.92 1285.60 466.76 1294.35 455.86
  C 1295.76 454.10 1297.06 452.80 1298.25 451.97
  C 1298.52 451.78 1298.89 451.99 1298.87 452.32
  C 1298.76 454.07 1298.50 455.94 1298.11 457.93
  C 1289.88 499.57 1266.40 537.95 1232.84 563.81
  C 1227.59 567.86 1219.26 573.70 1207.87 581.34
  C 1191.12 592.58 1174.51 600.62 1155.27 610.23
  C 1149.75 612.99 1144.77 614.49 1139.29 617.32
  C 1139.10 617.42 1139.12 617.70 1139.33 617.76
  C 1140.43 618.09 1141.33 618.16 1142.02 617.99
  C 1147.93 616.55 1160.46 614.17 1179.60 610.84
  C 1186.33 609.67 1195.01 607.51 1203.19 605.89
  C 1230.56 600.46 1257.14 593.65 1282.93 585.45
  C 1311.20 576.46 1337.78 564.60 1362.69 549.87
  C 1371.40 544.72 1383.32 536.31 1389.66 531.83
  C 1389.79 531.74 1389.96 531.87 1389.90 532.02
  C 1387.85 536.90 1385.11 541.86 1381.66 546.91
  C 1364.55 571.91 1341.88 593.30 1316.99 611.00
  C 1298.46 624.17 1279.01 635.13 1258.63 643.88
  C 1240.43 651.69 1220.86 658.45 1199.92 664.15
  C 1186.97 667.68 1175.39 670.02 1165.17 671.19
  C 1152.60 672.63 1146.82 673.51 1136.42 673.47
  C 1135.52 673.47 1134.89 674.35 1135.22 675.15
  C 1135.25 675.23 1135.44 675.33 1135.79 675.46
  C 1137.57 676.13 1139.47 676.73 1141.50 677.26
  C 1144.56 678.07 1162.55 684.30 1195.47 695.97
  C 1209.68 701.01 1225.01 705.69 1241.45 710.02
  C 1267.21 716.80 1292.90 720.33 1318.51 720.60
  C 1320.60 720.63 1322.19 720.68 1323.28 720.75
  C 1323.52 720.76 1323.59 721.08 1323.38 721.19
  C 1309.24 728.54 1294.70 734.23 1279.77 738.27
  C 1276.69 739.10 1269.72 740.46 1258.86 742.35
  C 1251.92 743.56 1244.84 744.30 1237.63 744.59
  C 1225.42 745.07 1215.46 744.86 1207.76 743.96
  C 1189.39 741.81 1175.13 739.43 1164.97 736.80
  C 1141.07 730.62 1120.01 723.42 1098.90 712.60
  C 1097.92 712.09 1097.09 711.87 1096.40 711.94
  C 1096.08 711.97 1095.91 712.33 1096.08 712.60
  C 1096.67 713.54 1097.46 714.56 1098.46 715.66
  C 1104.99 722.87 1111.43 728.42 1117.06 735.29
  C 1117.65 736.00 1121.13 739.82 1127.48 746.73
  C 1130.33 749.82 1133.67 753.61 1137.51 758.11
  C 1154.80 778.36 1173.50 797.69 1193.59 816.12
  C 1193.89 816.39 1193.66 816.89 1193.26 816.84
  C 1188.61 816.27 1184.23 815.46 1180.10 814.42
  C 1169.16 811.66 1157.00 807.41 1143.61 801.68
  C 1131.84 796.63 1120.58 790.44 1109.83 783.09
  C 1098.59 775.41 1088.17 767.35 1078.58 758.92
  C 1060.87 743.35 1047.67 728.79 1029.10 707.66
  C 1025.20 703.22 1017.68 695.91 1012.06 693.53
  C 1005.18 690.61 998.18 690.80 991.05 694.11
  C 978.46 699.95 971.05 715.41 967.50 728.51
  C 962.69 746.24 960.51 763.20 959.17 781.44
  C 958.24 794.23 959.90 806.20 964.17 817.33
  C 967.24 825.34 972.59 831.66 980.22 836.27
  C 983.97 838.53 987.98 839.27 992.25 838.48
  C 995.14 837.95 999.82 834.82 1003.22 833.54
  C 1016.31 828.63 1029.06 826.46 1041.49 827.04
  C 1045.20 827.21 1050.12 827.74 1056.25 828.62
  C 1060.96 829.29 1065.77 830.36 1070.70 831.83
  C 1087.85 836.95 1103.92 844.75 1118.89 855.24
  C 1119.07 855.36 1118.98 855.64 1118.76 855.64
  C 1109.96 855.62 1105.57 855.47 1098.75 855.76
  C 1083.98 856.39 1068.15 857.22 1051.26 858.25
  C 1050.31 858.30 1049.55 858.47 1048.99 858.74
  C 1048.42 859.01 1048.48 859.83 1049.08 860.02
  C 1053.25 861.31 1057.82 862.79 1062.79 864.46
  C 1073.07 867.93 1084.10 873.53 1092.59 879.17
  C 1098.92 883.37 1106.32 888.51 1113.18 893.99
  C 1128.63 906.33 1144.12 919.45 1159.64 933.34
  C 1159.85 933.52 1159.84 933.85 1159.63 934.02
  L 1144.23 947.00
  C 1143.75 947.40 1143.10 947.52 1142.52 947.30
  C 1133.81 944.01 1125.45 941.66 1116.43 938.15
  C 1112.52 936.63 1105.56 933.80 1095.54 929.67
  C 1082.09 924.13 1069.28 917.72 1057.09 910.43
  C 1056.38 910.01 1055.47 910.44 1055.36 911.26
  C 1055.35 911.35 1055.50 911.58 1055.81 911.94
  C 1066.21 923.86 1074.54 936.59 1083.70 950.22
  C 1087.78 956.28 1090.92 961.18 1093.13 964.93
  C 1102.57 980.93 1113.40 997.91 1125.62 1015.88
  C 1129.27 1021.24 1133.64 1026.86 1137.43 1033.01
  C 1137.60 1033.28 1137.37 1033.61 1137.06 1033.57
  C 1133.77 1033.12 1130.55 1032.20 1127.41 1030.81
  C 1117.10 1026.25 1106.55 1021.11 1096.41 1014.52
  C 1089.52 1010.04 1075.96 1001.94 1067.35 994.81
  C 1057.88 986.96 1048.27 977.78 1038.52 967.28
  C 1027.60 955.52 1018.33 942.58 1010.70 928.45
  C 1010.27 927.65 1009.09 927.73 1008.78 928.59
  C 1008.02 930.71 1009.30 933.94 1009.51 936.53
  C 1009.78 939.77 1009.96 941.58 1010.05 941.96
  C 1010.81 945.33 1010.97 949.05 1011.70 952.68
  C 1013.32 960.81 1014.90 970.01 1016.44 980.27
  C 1016.47 980.51 1016.17 980.65 1016.01 980.46
  C 1007.33 970.10 1001.38 958.98 994.94 945.80
  C 992.38 940.57 990.42 935.71 989.06 931.22
  C 986.41 922.44 983.82 912.87 981.30 902.52
  C 980.50 899.22 979.05 895.77 976.95 892.17
  C 972.43 884.44 962.14 884.79 956.29 890.88
  C 947.51 900.02 943.50 912.08 940.65 924.15
  C 936.11 943.35 932.76 957.35 930.61 966.16
  C 923.30 996.11 911.57 1024.37 895.43 1050.93
  C 888.18 1062.86 880.88 1073.81 873.53 1083.78
  C 867.83 1091.51 858.22 1103.74 844.70 1120.46
  C 843.92 1121.43 838.98 1127.82 829.88 1139.65
  C 824.07 1147.20 819.51 1153.86 816.18 1159.63
  C 809.03 1172.03 803.67 1185.08 800.12 1198.79
  C 796.34 1213.38 796.46 1227.71 800.49 1241.77
  C 803.49 1252.23 807.64 1261.80 812.94 1270.47
  C 813.07 1270.69 812.83 1270.94 812.61 1270.81
  C 811.42 1270.14 810.03 1269.17 808.44 1267.89
  C 800.66 1261.67 793.92 1254.64 788.23 1246.79
  C 773.06 1225.89 765.90 1202.97 766.77 1178.04
  C 767.20 1165.67 769.82 1152.34 774.62 1138.05
  C 778.36 1126.91 785.18 1111.17 795.07 1090.82
  C 795.48 1089.98 799.41 1081.27 806.88 1064.70
  C 811.77 1053.84 815.28 1044.96 817.41 1038.07
  C 822.23 1022.51 825.37 1010.58 826.83 1002.29
  C 830.39 982.12 831.25 961.60 829.40 940.75
  C 828.08 925.75 821.66 884.51 800.07 886.36
  C 790.42 887.18 786.59 907.06 784.28 915.80
  C 778.77 936.67 770.37 955.75 759.07 973.04
  C 757.31 975.74 755.37 978.10 753.24 980.12
  C 752.92 980.42 752.39 980.16 752.46 979.72
  C 754.01 969.66 755.96 957.90 758.32 944.43
  C 759.30 938.84 759.14 933.69 759.84 928.64
  C 759.91 928.10 759.46 927.63 758.92 927.68
  C 758.38 927.73 757.93 928.03 757.58 928.59
  C 756.67 930.00 753.95 934.45 749.42 941.92
  C 746.73 946.35 743.21 951.25 738.86 956.61
  C 730.81 966.53 722.29 975.67 713.31 984.04
  C 710.21 986.93 704.26 991.89 695.45 998.93
  C 689.11 1004.00 680.32 1009.98 669.07 1016.89
  C 659.16 1022.98 646.54 1028.76 636.99 1032.24
  C 634.91 1033.00 633.01 1033.49 631.28 1033.72
  C 630.87 1033.77 630.60 1033.31 630.84 1032.98
  C 639.60 1021.00 647.73 1009.01 655.24 997.01
  C 669.73 973.86 679.32 958.52 684.01 951.01
  C 692.60 937.26 702.52 924.15 713.77 911.68
  C 714.24 911.16 713.97 910.32 713.29 910.17
  C 712.88 910.08 712.36 910.19 711.74 910.52
  C 708.99 911.99 707.21 912.93 706.40 913.34
  C 705.43 913.83 699.61 916.81 688.94 922.28
  C 669.40 932.29 648.87 940.31 628.12 946.80
  C 613.32 951.44 598.98 954.26 583.75 955.80
  C 581.54 956.03 580.35 956.11 580.20 956.04
  C 579.97 955.94 579.91 955.64 580.10 955.47
  C 581.33 954.38 585.86 950.93 593.67 945.10
  C 597.96 941.91 602.38 938.34 606.91 934.41
  C 620.62 922.54 632.55 912.39 642.72 903.98
  C 653.51 895.05 664.15 887.11 674.64 880.16
  C 684.32 873.75 694.43 868.58 704.98 864.66
  C 709.52 862.98 716.73 861.46 720.54 859.14
  C 720.87 858.94 720.76 858.44 720.38 858.39
  C 704.72 856.53 691.65 856.40 672.40 855.80
  C 664.46 855.56 657.01 856.25 649.80 855.93
  C 649.65 855.92 649.56 855.77 649.62 855.64
  C 649.73 855.39 649.87 855.20 650.06 855.07
  C 667.04 843.31 685.83 834.96 706.42 830.01
  C 709.66 829.23 713.37 828.65 717.54 828.26
  C 721.61 827.89 727.76 826.95 732.52 827.09
  C 740.36 827.33 748.31 828.46 756.36 830.47
  C 762.02 831.89 768.12 834.41 774.65 838.03
  C 782.64 842.46 794.54 832.55 798.78 826.34
  C 808.03 812.77 809.66 794.67 808.40 778.75
  C 808.20 776.29 807.78 771.46 807.13 764.25
  C 806.25 754.47 804.74 745.03 802.59 735.94
  C 800.20 725.79 797.25 717.30 793.76 710.46
  C 792.43 707.87 789.87 704.42 786.06 700.12
  C 780.07 693.35 772.65 690.54 763.80 691.71
  C 755.23 692.83 748.33 698.15 742.35 704.61
  C 738.08 709.23 732.38 715.62 725.26 723.77
  C 720.77 728.91 712.63 737.43 700.82 749.34
  C 683.39 766.93 663.81 781.84 642.10 794.09
  C 640.79 794.82 635.66 797.33 626.69 801.60
  C 620.75 804.43 615.47 806.60 610.84 808.09
  C 598.28 812.14 587.81 815.52 575.40 817.09
  C 575.19 817.11 575.07 816.87 575.21 816.71
  C 580.67 810.74 586.95 805.92 592.50 800.65
  C 598.04 795.39 603.69 789.83 609.45 783.96
  C 612.56 780.78 615.39 776.95 617.83 774.33
  C 627.67 763.75 636.44 753.06 646.18 742.33
  C 654.87 732.74 662.96 723.70 670.45 715.21
  C 671.32 714.22 671.99 713.25 672.48 712.29
  C 672.78 711.70 672.13 711.07 671.55 711.40
  C 661.45 717.02 650.73 721.92 639.40 726.09
  C 613.30 735.70 586.75 741.77 559.75 744.28
  C 548.86 745.29 536.45 745.19 522.50 744.00
  C 514.83 743.35 504.80 741.61 492.40 738.78
  C 480.64 736.10 468.39 731.41 459.06 727.69
  C 454.69 725.95 450.61 723.82 446.81 721.30
  C 446.65 721.19 446.72 720.95 446.91 720.94
  C 457.12 720.47 466.57 719.90 475.25 719.23
  C 493.31 717.83 510.93 714.78 528.11 710.09
  C 545.21 705.41 562.73 700.28 579.83 693.92
  C 582.89 692.78 590.43 690.03 602.44 685.68
  C 612.56 682.02 623.98 678.77 633.85 675.86
  C 634.68 675.62 635.22 675.37 635.48 675.10
  C 636.07 674.49 635.65 673.48 634.80 673.47
  C 617.81 673.31 600.81 671.37 583.82 667.66
  C 580.04 666.84 572.80 664.92 562.11 661.90
  C 541.84 656.19 520.15 647.82 504.09 640.19
  C 499.16 637.84 491.94 634.10 482.44 628.97
  C 457.13 615.28 434.56 598.79 413.98 578.84
  C 398.76 564.09 385.98 549.55 376.71 531.19
  C 376.59 530.95 376.86 530.70 377.09 530.84
  C 383.26 534.55 390.48 539.03 398.77 544.26
  C 431.88 565.18 467.15 579.91 506.99 591.47
  C 527.59 597.44 549.18 602.72 571.77 607.31
  C 595.78 612.18 608.79 614.93 627.51 617.92
  C 628.76 618.13 629.94 618.28 631.03 618.39
  C 631.13 618.40 631.17 618.27 631.08 618.22
  C 626.93 616.12 624.02 614.73 622.36 614.04
  C 615.17 611.05 610.21 607.79 601.79 603.72
  C 597.24 601.53 592.74 599.16 588.27 596.62
  C 582.62 593.40 576.75 590.15 570.73 586.24
  C 557.58 577.69 544.99 568.66 532.94 559.17
  C 527.29 554.72 521.29 549.30 514.95 542.92
  C 507.95 535.88 502.77 529.98 499.42 525.22
  C 490.18 512.11 483.33 499.37 478.88 486.99
  C 474.77 475.57 471.74 463.62 469.79 451.14
  C 469.74 450.82 470.14 450.63 470.35 450.87
  C 476.59 457.88 481.90 465.45 488.28 472.33
  C 496.56 481.26 501.39 486.39 502.78 487.72
  C 524.03 508.13 547.84 524.08 574.22 535.57
  C 584.21 539.93 593.43 544.08 604.65 548.66
  C 614.10 552.53 621.07 555.62 625.56 557.93
  C 633.39 561.96 642.67 566.70 653.38 572.15
  C 653.83 572.38 654.31 571.88 654.05 571.44
  C 653.64 570.74 653.04 569.99 652.23 569.19
  C 635.87 552.92 627.03 544.08 625.71 542.67
  C 619.37 535.90 612.60 528.13 605.39 519.36
  C 598.95 511.54 594.03 505.13 589.31 497.25
  C 585.82 491.44 582.27 486.67 579.02 480.56
  C 563.65 451.63 553.65 419.52 555.70 386.56
  C 556.18 378.86 556.93 371.48 557.96 364.43
  C 558.99 357.40 560.79 350.21 563.37 342.86
  C 563.45 342.64 563.77 342.66 563.82 342.89
  C 566.71 357.49 568.51 370.38 572.95 383.87
  C 580.17 405.82 590.40 426.45 603.64 445.75
  C 606.01 449.20 608.42 452.42 610.86 455.41
  C 614.22 459.53 617.02 463.82 620.71 467.94
  C 630.42 478.77 636.94 485.86 640.27 489.23
  C 644.46 493.47 650.97 499.47 659.78 507.22
  C 672.43 518.34 687.53 530.99 705.08 545.18
  C 720.09 557.32 730.66 566.50 736.80 572.73
  C 743.57 579.60 749.60 585.87 754.89 591.55
  C 756.58 593.36 757.70 594.64 758.23 595.38
  C 762.73 601.60 767.80 606.14 775.77 606.69
  C 780.95 607.04 785.91 606.20 790.64 604.15
  C 797.50 601.19 803.52 596.87 808.70 591.20
  C 821.10 577.62 828.08 561.64 829.65 543.27
  C 829.87 540.71 828.68 534.48 827.60 531.12
  C 825.95 526.00 824.21 520.84 824.39 515.02
  C 824.79 502.33 828.74 490.32 836.23 478.98
  C 837.38 477.23 838.81 475.71 840.51 474.41
  C 842.86 472.61 844.15 471.62 844.37 471.43
  C 848.53 467.95 851.14 465.86 852.19 465.17
  C 861.46 459.03 871.74 455.61 883.02 454.91
  C 897.27 454.03 913.63 458.62 924.14 469.02
  C 926.81 471.65 928.90 473.41 930.41 474.28
  C 930.78 474.49 931.12 474.76 931.41 475.08
  C 935.32 479.46 938.44 484.34 940.77 489.72
  C 943.39 495.79 945.01 500.83 945.62 504.83
  C 947.24 515.44 944.96 524.93 941.52 535.04
  C 940.49 538.04 940.11 541.68 940.37 545.95
  C 941.32 561.61 949.05 577.31 959.82 589.69
  C 965.95 596.72 973.09 601.82 981.24 605.00
  C 988.54 607.85 995.52 607.40 1002.18 603.66
  C 1004.65 602.27 1007.24 599.95 1009.95 596.70
  C 1016.57 588.74 1024.23 580.51 1032.94 572.01
  C 1038.33 566.75 1046.82 559.38 1058.41 549.90
  C 1078.33 533.60 1092.72 522.38 1111.08 506.08
  C 1136.43 483.55 1158.72 458.56 1175.35 429.63
  C 1187.16 409.08 1195.51 387.41 1200.38 364.62
  C 1201.44 359.66 1202.63 353.77 1203.94 346.96
  C 1204.08 346.23 1204.34 345.44 1204.71 344.60
  Z
  M 582.64 445.77
  C 582.75 447.80 583.21 449.63 584.00 451.26
  C 588.93 461.37 592.57 468.64 594.92 473.09
  C 598.82 480.47 603.68 488.19 609.51 496.25
  C 617.50 507.30 623.39 514.94 627.16 519.15
  C 634.54 527.41 644.70 539.05 654.63 549.06
  C 669.07 563.63 679.94 574.84 687.24 582.68
  C 694.90 590.91 701.45 598.36 706.88 605.03
  C 714.30 614.13 720.19 623.13 723.89 633.62
  C 725.85 639.15 726.98 645.14 727.27 651.57
  C 727.87 664.62 725.45 677.28 720.00 689.54
  C 718.15 693.72 716.47 697.93 714.96 702.18
  C 714.90 702.36 714.97 702.56 715.14 702.65
  C 715.30 702.75 715.51 702.71 715.63 702.56
  C 718.73 698.79 721.35 695.47 723.48 692.61
  C 726.89 688.03 729.63 684.83 731.69 683.00
  C 736.42 678.82 739.96 676.02 742.32 674.60
  C 755.39 666.74 768.74 665.80 782.36 671.79
  C 789.17 674.78 796.52 681.40 800.80 687.56
  C 801.87 689.09 803.14 690.05 804.46 691.43
  C 804.71 691.68 804.93 691.66 805.13 691.36
  C 805.21 691.24 805.23 691.13 805.19 691.03
  C 800.20 677.51 791.70 666.78 779.70 658.84
  C 776.33 656.60 770.48 653.87 766.93 651.55
  C 756.30 644.62 751.80 635.48 745.96 623.80
  C 743.02 617.91 737.96 610.52 733.27 604.74
  C 723.21 592.31 711.71 580.84 699.49 569.34
  C 695.48 565.55 688.00 558.94 677.07 549.50
  C 659.46 534.28 642.24 517.61 626.85 501.76
  C 619.41 494.10 611.67 484.51 604.13 475.63
  C 597.25 467.54 591.39 459.18 586.55 450.55
  C 585.65 448.94 584.16 446.98 583.08 445.61
  C 582.93 445.42 582.62 445.53 582.64 445.77
  Z
  M 1053.75 701.85
  C 1051.64 697.53 1049.84 693.73 1048.36 690.46
  C 1046.48 686.29 1044.52 679.88 1042.49 671.25
  C 1038.03 652.28 1041.16 634.62 1051.88 618.27
  C 1057.83 609.21 1062.99 602.41 1067.37 597.86
  C 1077.38 587.47 1083.91 580.62 1086.97 577.31
  C 1090.54 573.46 1097.13 566.65 1106.76 556.90
  C 1123.67 539.77 1137.64 524.26 1148.66 510.39
  C 1160.95 494.91 1171.60 478.32 1180.61 460.63
  C 1182.79 456.34 1184.57 452.27 1185.96 448.42
  C 1186.08 448.09 1185.70 447.81 1185.42 448.01
  C 1184.79 448.46 1184.29 448.94 1183.93 449.45
  C 1183.52 450.04 1179.22 456.16 1171.03 467.79
  C 1167.38 472.98 1159.69 482.37 1147.97 495.97
  C 1146.05 498.20 1144.43 499.92 1143.11 501.13
  C 1138.86 505.06 1134.68 510.16 1130.85 513.87
  C 1114.66 529.58 1100.69 542.44 1088.94 552.43
  C 1077.00 562.57 1067.57 570.81 1060.65 577.15
  C 1054.64 582.66 1046.79 591.07 1037.08 602.40
  C 1033.96 606.04 1031.94 609.38 1028.73 613.68
  C 1025.26 618.33 1022.33 624.23 1019.57 630.19
  C 1015.72 638.50 1010.28 645.73 1002.72 650.45
  C 1001.92 650.94 998.98 652.76 993.89 655.90
  C 981.84 663.33 972.74 673.04 966.57 685.04
  C 965.44 687.26 964.58 689.29 964.00 691.12
  C 963.89 691.49 964.36 691.74 964.60 691.44
  C 967.55 687.73 970.51 684.35 973.46 681.28
  C 991.25 662.82 1017.44 663.82 1035.37 681.36
  C 1042.84 688.67 1048.69 695.69 1052.93 702.42
  C 1053.05 702.61 1053.31 702.68 1053.51 702.57
  L 1053.53 702.56
  C 1053.78 702.42 1053.88 702.11 1053.75 701.85
  Z
  M 841.36 493.32
  C 840.95 497.42 841.77 501.16 839.96 505.83
  C 839.01 508.27 838.78 509.41 840.21 511.31
  C 841.30 512.76 843.18 515.13 845.83 518.40
  C 855.58 530.41 851.05 552.46 845.49 565.23
  C 841.14 575.19 838.73 581.47 834.37 590.30
  C 828.82 601.52 822.95 615.65 821.04 628.26
  C 819.32 639.56 818.82 650.06 819.53 659.75
  C 820.12 667.70 820.72 673.43 821.33 676.92
  C 826.14 704.30 835.27 735.65 840.77 763.72
  C 843.12 775.72 845.03 789.30 846.48 804.46
  C 850.22 843.41 851.48 881.49 850.26 918.70
  C 849.71 935.64 848.69 949.64 847.21 960.69
  C 845.38 974.34 842.74 988.14 839.31 1002.07
  C 838.22 1006.48 836.40 1012.33 833.84 1019.61
  C 827.79 1036.82 821.12 1052.98 813.81 1068.10
  C 809.04 1077.99 804.68 1086.64 800.75 1094.07
  C 800.36 1094.80 800.51 1095.73 801.19 1096.87
  C 801.43 1097.28 801.46 1097.79 801.25 1098.23
  C 796.58 1108.28 792.50 1117.55 789.02 1126.04
  C 783.67 1139.11 779.88 1153.27 777.65 1168.54
  C 775.87 1180.74 776.38 1189.99 778.27 1202.02
  C 778.72 1204.88 779.51 1207.38 780.64 1209.52
  C 780.75 1209.73 781.06 1209.73 781.17 1209.52
  C 781.59 1208.69 781.76 1207.59 781.68 1206.24
  C 780.73 1191.30 782.47 1176.68 786.90 1162.39
  C 790.67 1150.22 795.20 1138.00 800.49 1125.73
  C 803.73 1118.20 809.52 1106.53 817.86 1090.73
  C 824.34 1078.46 830.13 1066.72 835.22 1055.51
  C 841.68 1041.30 847.73 1025.62 853.36 1008.48
  C 859.98 988.35 863.91 968.09 867.32 947.28
  C 868.02 942.96 868.13 938.35 869.10 934.11
  C 869.30 933.21 869.41 932.28 869.42 931.36
  C 869.46 925.89 870.84 919.55 870.80 914.88
  C 870.78 912.37 871.08 906.00 871.70 895.79
  C 872.47 883.17 872.00 865.52 872.23 855.73
  C 872.61 839.14 871.02 823.44 870.83 807.28
  C 870.76 801.59 869.70 796.62 869.55 790.72
  C 869.46 787.17 869.15 783.03 868.63 778.30
  C 867.21 765.32 865.62 753.18 863.85 741.88
  C 862.46 732.97 860.80 725.23 858.87 718.67
  C 855.06 705.72 852.68 697.68 851.71 694.55
  C 844.66 671.78 840.13 648.34 841.30 625.50
  C 841.52 621.29 842.72 613.74 844.89 602.83
  C 847.36 590.44 852.58 575.23 856.41 563.94
  C 858.86 556.70 860.35 549.70 860.89 542.95
  C 861.00 541.60 861.05 537.21 861.05 529.78
  C 861.05 524.95 860.49 520.81 859.37 517.37
  C 856.09 507.29 850.30 499.18 842.00 493.04
  C 841.75 492.85 841.39 493.01 841.36 493.32
  Z
  M 928.33 493.43
  C 918.90 499.88 912.93 508.35 910.42 518.83
  C 909.11 524.32 908.73 531.97 909.29 541.76
  C 909.80 550.66 910.98 558.23 912.84 564.47
  C 916.20 575.70 919.17 585.96 921.76 595.24
  C 924.10 603.60 925.55 610.94 926.11 617.26
  C 926.87 625.76 927.81 631.88 927.35 638.12
  C 926.69 647.09 925.74 654.81 924.49 661.26
  C 922.36 672.23 918.25 684.58 913.66 698.11
  C 908.99 711.87 905.37 725.76 902.80 739.77
  C 901.71 745.70 901.08 749.90 900.91 752.39
  C 900.57 757.09 899.87 760.43 899.54 764.77
  C 898.33 780.56 897.99 796.64 898.52 813.02
  C 899.20 834.28 899.26 852.99 899.34 873.00
  C 899.37 879.80 898.38 888.15 898.07 895.73
  C 897.89 900.06 897.75 902.71 897.64 903.68
  C 895.79 920.99 894.30 933.08 893.16 939.97
  C 891.92 947.48 889.63 958.57 886.30 973.23
  C 882.53 989.86 877.14 1005.56 870.98 1020.50
  C 863.67 1038.26 855.19 1055.42 845.56 1071.97
  C 843.23 1075.98 841.22 1079.66 839.54 1083.01
  C 838.17 1085.74 836.01 1089.34 833.08 1093.82
  C 828.50 1100.82 822.60 1111.27 817.53 1120.82
  C 812.04 1131.19 809.24 1136.46 809.15 1136.63
  C 806.78 1141.16 803.79 1148.19 800.19 1157.70
  C 799.22 1160.24 798.87 1162.55 797.93 1166.14
  C 797.88 1166.35 797.98 1166.56 798.18 1166.65
  C 798.38 1166.73 798.61 1166.65 798.71 1166.46
  C 801.12 1162.12 803.84 1157.24 806.88 1151.83
  C 809.27 1147.59 812.19 1143.88 815.01 1139.06
  C 816.75 1136.10 818.78 1132.91 821.10 1129.48
  C 825.92 1122.37 834.11 1110.51 845.68 1093.91
  C 855.44 1079.91 864.22 1066.29 872.03 1053.06
  C 883.16 1034.19 891.63 1014.57 898.99 993.54
  C 906.40 972.37 911.43 951.41 914.08 930.66
  C 915.93 916.21 917.06 903.57 917.47 892.74
  C 917.95 880.13 918.42 863.60 918.88 843.16
  C 919.12 832.43 919.47 823.16 919.92 815.37
  C 920.61 803.42 921.30 794.18 921.97 787.63
  C 922.90 778.66 924.20 769.50 925.87 760.13
  C 928.56 745.14 931.94 732.46 936.79 716.83
  C 941.20 702.59 944.53 689.93 946.78 678.84
  C 948.26 671.53 949.27 664.67 949.81 658.25
  C 951.42 639.16 948.39 620.84 940.73 603.28
  C 931.57 582.27 926.82 571.39 926.49 570.66
  C 925.06 567.50 923.21 562.04 920.95 554.28
  C 918.68 546.51 918.16 538.50 919.37 530.25
  C 920.56 522.16 927.35 516.57 931.28 510.24
  C 931.96 509.14 932.09 507.79 931.64 506.58
  L 929.23 500.09
  C 929.08 499.68 929.02 499.24 929.06 498.80
  L 929.50 494.12
  C 929.56 493.49 928.85 493.07 928.33 493.43
  Z
  M 648.62 607.12
  C 647.40 606.03 645.78 604.90 643.77 603.75
  C 635.12 598.81 626.94 594.16 619.23 589.80
  C 615.58 587.73 612.13 584.88 608.42 582.75
  C 598.57 577.09 589.06 570.48 579.88 562.92
  C 579.80 562.85 579.78 562.74 579.83 562.65
  C 579.88 562.56 579.99 562.52 580.09 562.56
  C 615.23 576.13 648.38 593.03 679.55 613.25
  C 681.73 614.66 683.27 615.60 684.17 616.05
  C 684.33 616.13 684.49 615.95 684.39 615.80
  C 679.38 608.67 674.07 605.09 666.13 598.86
  C 663.70 596.96 660.78 594.90 657.35 592.67
  C 643.36 583.58 629.34 576.01 615.31 569.96
  C 598.70 562.79 579.79 554.78 558.56 545.93
  C 552.04 543.21 544.81 539.88 536.87 535.95
  C 536.33 535.69 535.71 536.13 535.80 536.73
  C 535.83 537.00 536.10 537.33 536.59 537.74
  C 546.76 546.21 554.58 553.23 565.53 561.33
  C 574.14 567.71 579.83 571.80 582.60 573.61
  C 592.54 580.11 604.94 587.39 619.81 595.44
  C 626.49 599.06 635.22 602.64 642.79 606.21
  C 643.48 606.53 645.37 606.94 648.47 607.45
  C 648.66 607.48 648.76 607.25 648.62 607.12
  Z
  M 1188.86 563.87
  C 1179.73 570.66 1169.27 577.85 1157.48 585.46
  C 1148.01 591.57 1138.44 597.12 1128.79 602.09
  C 1126.66 603.19 1125.27 604.37 1122.87 606.11
  C 1122.82 606.15 1122.80 606.22 1122.83 606.28
  C 1122.86 606.34 1122.93 606.37 1122.99 606.35
  C 1128.54 604.67 1133.48 602.99 1137.79 601.31
  C 1139.86 600.50 1146.45 597.20 1157.56 591.39
  C 1163.00 588.54 1168.45 585.37 1173.90 581.86
  C 1183.09 575.95 1188.37 572.49 1189.73 571.48
  C 1196.84 566.21 1203.14 561.55 1208.65 557.50
  C 1215.61 552.37 1222.43 546.37 1229.25 540.51
  C 1230.56 539.38 1231.47 538.40 1231.97 537.57
  C 1232.07 537.40 1231.92 537.18 1231.72 537.23
  C 1229.95 537.69 1228.52 538.18 1227.45 538.69
  C 1207.79 548.15 1194.08 553.36 1171.72 562.75
  C 1158.23 568.42 1140.48 575.23 1126.58 582.89
  C 1116.41 588.49 1106.21 595.51 1095.97 603.96
  C 1090.76 608.27 1086.14 612.74 1082.13 617.37
  C 1081.85 617.69 1082.18 618.18 1082.58 618.04
  C 1082.79 617.97 1083.33 617.68 1084.20 617.18
  C 1089.87 613.91 1095.47 610.50 1101.00 606.93
  C 1107.23 602.91 1111.15 600.96 1118.20 596.64
  C 1124.24 592.94 1133.76 588.69 1141.86 584.38
  C 1147.93 581.15 1154.26 578.73 1160.10 575.77
  C 1169.04 571.22 1179.52 568.30 1188.71 563.62
  C 1188.78 563.59 1188.86 563.61 1188.90 563.67
  C 1188.94 563.74 1188.92 563.82 1188.86 563.87
  Z
  M 595.80 629.37
  C 586.08 626.47 580.48 625.87 566.44 623.54
  C 560.21 622.50 554.71 621.10 548.70 620.11
  C 545.03 619.51 540.59 618.63 535.40 617.48
  C 524.12 614.97 507.98 611.56 486.97 607.25
  C 486.62 607.18 486.43 607.63 486.72 607.83
  C 498.01 615.44 509.49 622.38 522.60 628.53
  C 549.83 641.33 577.49 651.34 606.52 655.72
  C 628.75 659.07 650.33 658.71 672.73 654.23
  C 674.10 653.96 675.34 653.48 676.43 652.81
  C 676.65 652.68 676.58 652.34 676.32 652.30
  C 664.40 650.69 650.09 648.47 633.39 645.66
  C 625.39 644.31 617.99 642.52 610.15 640.96
  C 605.74 640.08 599.99 638.67 592.90 636.74
  C 574.59 631.77 562.70 628.43 557.22 626.73
  C 557.10 626.69 557.03 626.57 557.05 626.45
  C 557.07 626.32 557.19 626.24 557.31 626.25
  C 564.59 626.92 572.08 627.69 579.77 628.57
  C 582.43 628.88 585.09 629.11 587.75 629.27
  C 592.04 629.52 594.71 629.64 595.76 629.62
  C 595.82 629.62 595.88 629.57 595.89 629.51
  C 595.90 629.45 595.86 629.39 595.80 629.37
  Z
  M 1093.32 653.06
  C 1095.39 653.89 1097.45 654.47 1099.48 654.80
  C 1108.58 656.25 1114.00 657.09 1115.73 657.30
  C 1117.29 657.49 1123.54 657.70 1134.49 657.93
  C 1141.37 658.08 1147.58 657.77 1153.12 657.00
  C 1166.81 655.11 1175.52 653.68 1179.25 652.71
  C 1189.60 650.04 1197.59 647.79 1203.24 645.98
  C 1207.55 644.59 1215.38 641.67 1226.75 637.20
  C 1237.01 633.16 1249.09 627.09 1255.82 623.57
  C 1258.70 622.06 1267.19 616.97 1281.30 608.30
  C 1281.57 608.13 1281.74 607.97 1281.81 607.81
  C 1281.93 607.54 1281.69 607.25 1281.40 607.32
  C 1261.87 611.61 1245.03 615.25 1230.87 618.24
  C 1223.75 619.75 1216.29 620.60 1209.53 622.11
  C 1207.00 622.67 1201.66 623.56 1193.50 624.78
  C 1183.33 626.29 1173.05 628.41 1162.65 631.12
  C 1162.46 631.17 1162.45 631.43 1162.63 631.50
  C 1163.14 631.69 1164.02 631.74 1165.27 631.63
  C 1178.49 630.47 1194.00 628.88 1208.37 626.57
  C 1213.44 625.76 1218.39 625.26 1223.23 625.09
  C 1223.53 625.08 1223.61 625.49 1223.34 625.60
  C 1221.43 626.37 1219.51 627.02 1217.56 627.55
  C 1210.16 629.57 1200.48 632.22 1188.52 635.49
  C 1182.05 637.26 1169.37 640.26 1150.48 644.47
  C 1146.43 645.37 1131.12 647.62 1104.57 651.23
  C 1101.38 651.67 1096.58 651.46 1093.34 652.49
  C 1093.07 652.57 1093.06 652.95 1093.32 653.06
  Z
  M 1177.86 714.68
  C 1174.70 714.35 1170.98 713.72 1166.70 712.80
  C 1147.83 708.73 1129.96 703.13 1113.09 695.98
  C 1107.08 693.43 1100.28 691.24 1092.68 688.12
  C 1092.64 688.10 1092.60 688.09 1092.55 688.08
  L 1090.48 687.60
  C 1090.20 687.54 1090.01 687.88 1090.21 688.09
  C 1092.83 690.77 1094.66 692.43 1095.71 693.06
  C 1115.85 705.18 1137.43 714.45 1160.19 719.84
  C 1169.44 722.03 1175.62 723.41 1178.74 723.98
  C 1193.03 726.60 1207.85 728.33 1223.20 729.16
  C 1225.95 729.30 1228.83 729.04 1231.38 728.70
  C 1231.61 728.67 1231.65 728.35 1231.43 728.27
  C 1217.28 722.97 1196.97 715.45 1179.05 707.66
  C 1162.76 700.58 1146.59 694.50 1131.17 690.37
  C 1127.43 689.37 1124.08 688.81 1121.13 688.69
  C 1120.78 688.68 1120.67 689.15 1120.99 689.29
  C 1122.97 690.16 1125.30 691.76 1127.77 692.77
  C 1140.97 698.18 1157.70 705.34 1177.97 714.24
  C 1178.07 714.29 1178.13 714.40 1178.10 714.51
  C 1178.08 714.62 1177.97 714.69 1177.86 714.68
  Z
  M 588.83 715.12
  C 593.09 712.79 597.23 710.84 601.26 709.29
  C 607.49 706.89 614.67 703.87 622.82 700.23
  C 627.84 697.99 632.00 696.26 635.29 695.05
  C 639.52 693.50 643.63 691.67 647.62 689.56
  C 647.83 689.45 647.76 689.13 647.52 689.12
  C 644.60 689.02 641.70 689.35 638.83 690.11
  C 626.54 693.36 615.91 696.94 606.94 700.84
  C 602.73 702.67 598.72 704.35 594.90 705.88
  C 567.89 716.73 553.21 722.63 550.85 723.58
  C 548.57 724.49 544.58 725.85 538.88 727.68
  C 538.79 727.71 538.70 727.76 538.63 727.82
  L 537.69 728.61
  C 537.30 728.94 537.54 729.58 538.05 729.56
  C 543.18 729.36 547.91 729.36 553.57 728.77
  C 565.10 727.55 575.85 726.80 585.10 724.97
  C 600.31 721.97 611.83 719.36 619.68 717.14
  C 631.51 713.80 643.40 709.21 655.37 703.36
  C 664.07 699.11 671.66 694.09 678.14 688.32
  C 678.31 688.17 678.21 687.89 677.99 687.87
  C 676.83 687.74 675.54 687.97 674.11 688.58
  C 658.03 695.41 644.62 700.64 633.89 704.25
  C 623.80 707.65 613.53 710.44 603.93 712.85
  C 599.33 714.00 594.35 714.92 588.99 715.61
  C 588.70 715.65 588.58 715.26 588.83 715.12
  Z
  M 663.64 744.93
  C 655.85 753.72 648.09 762.71 640.37 771.89
  C 638.49 774.13 636.79 776.00 635.27 777.51
  C 634.47 778.30 633.85 779.26 633.41 780.39
  C 633.20 780.93 633.73 781.47 634.28 781.27
  C 635.41 780.86 636.63 780.17 637.94 779.21
  C 646.35 773.02 653.50 767.33 659.39 762.15
  C 661.80 760.03 665.42 756.24 670.25 750.79
  C 675.08 745.34 678.40 741.29 680.22 738.64
  C 684.65 732.17 689.44 724.39 694.58 715.30
  C 695.38 713.88 695.91 712.59 696.18 711.42
  C 696.32 710.85 695.72 710.38 695.21 710.66
  C 694.13 711.23 693.26 711.96 692.57 712.85
  C 691.26 714.54 689.60 716.45 687.61 718.59
  C 679.42 727.36 671.43 736.14 663.64 744.93
  Z
  M 1099.39 750.94
  C 1105.91 758.16 1112.80 764.59 1120.05 770.22
  C 1126.56 775.28 1131.49 778.95 1134.84 781.23
  C 1135.61 781.75 1136.65 781.19 1136.64 780.26
  C 1136.64 780.11 1136.41 779.79 1135.95 779.30
  C 1125.46 768.03 1115.82 756.50 1105.67 745.27
  C 1095.52 734.03 1085.03 723.26 1074.89 711.68
  C 1074.45 711.17 1074.15 710.92 1074.01 710.90
  C 1073.08 710.80 1072.41 711.77 1072.86 712.59
  C 1074.79 716.15 1077.94 721.43 1082.31 728.43
  C 1087.17 736.21 1092.86 743.72 1099.39 750.94
  Z
  M 947.52 808.54
  C 946.98 810.52 946.70 812.67 946.69 815.00
  C 946.61 827.03 947.99 839.20 954.95 850.09
  C 960.29 858.43 967.75 861.47 976.44 865.82
  C 983.50 869.36 988.51 879.07 990.57 886.43
  C 992.26 892.48 993.51 899.14 996.25 905.42
  C 996.34 905.63 996.64 905.63 996.74 905.42
  C 997.07 904.65 997.21 903.80 997.15 902.87
  C 996.37 891.39 992.27 873.06 999.58 861.30
  C 1001.38 858.41 1004.16 856.45 1006.37 854.13
  C 1006.64 853.86 1006.80 853.61 1006.85 853.38
  C 1006.96 852.90 1006.52 852.48 1006.05 852.61
  C 1002.60 853.56 998.75 854.50 994.50 855.42
  C 984.32 857.61 971.43 852.77 964.33 845.17
  C 958.28 838.68 954.03 831.10 951.57 822.43
  C 950.37 818.20 949.18 813.57 948.01 808.55
  C 947.95 808.29 947.59 808.29 947.52 808.54
  Z
  M 820.35 809.34
  C 818.25 814.79 818.16 820.76 816.44 825.42
  C 813.97 832.12 810.40 838.30 805.73 843.97
  C 797.86 853.51 783.06 858.01 771.17 854.86
  C 767.08 853.77 764.07 853.08 762.15 852.77
  C 761.56 852.68 761.13 853.32 761.44 853.83
  C 761.67 854.21 761.91 854.51 762.15 854.73
  C 766.90 859.14 770.09 862.76 771.80 868.73
  C 773.48 874.60 773.99 880.61 773.32 886.75
  C 772.69 892.63 772.31 898.26 772.20 903.63
  C 772.19 903.94 772.60 904.04 772.75 903.77
  C 775.35 898.98 775.87 894.81 777.70 887.23
  C 779.69 879.01 784.73 869.72 792.56 865.82
  C 797.84 863.20 800.88 861.66 801.69 861.19
  C 805.16 859.19 808.80 856.01 812.61 851.65
  C 815.81 848.00 817.64 843.27 818.76 838.74
  C 820.13 833.20 820.95 827.70 821.22 822.24
  C 821.56 815.29 821.42 810.99 820.80 809.34
  C 820.72 809.13 820.43 809.13 820.35 809.34
  Z
  M 752.44 849.43
  C 741.55 841.63 723.92 840.11 710.94 841.68
  C 706.37 842.23 701.89 843.02 697.52 844.04
  C 696.30 844.32 695.29 844.79 694.50 845.45
  C 694.27 845.65 694.39 846.03 694.69 846.05
  C 702.92 846.60 707.13 847.17 714.12 846.90
  C 716.53 846.81 719.87 846.98 724.14 847.39
  C 731.91 848.15 738.40 847.89 745.33 849.23
  C 748.76 849.90 751.08 850.14 752.31 849.96
  C 752.57 849.92 752.65 849.59 752.44 849.43
  Z
  M 1074.68 846.04
  C 1074.96 845.96 1074.97 845.56 1074.69 845.46
  C 1073.30 845.00 1072.17 844.32 1070.47 843.97
  C 1051.05 839.96 1032.97 838.78 1015.38 849.12
  C 1014.41 849.69 1013.63 850.31 1013.02 850.98
  C 1012.63 851.41 1013.01 852.09 1013.58 851.98
  C 1021.75 850.42 1030.09 849.25 1038.59 848.48
  C 1045.60 847.84 1052.78 846.18 1059.76 847.22
  C 1060.60 847.35 1061.46 847.36 1062.31 847.25
  C 1065.80 846.83 1070.60 847.23 1074.68 846.04
  Z
  M 1091.76 905.02
  C 1081.33 901.01 1074.13 897.89 1070.16 895.64
  C 1060.11 889.95 1050.67 886.37 1041.27 881.23
  C 1039.50 880.25 1037.44 879.69 1035.51 879.39
  C 1035.26 879.35 1035.11 879.66 1035.30 879.83
  C 1040.15 884.16 1044.94 887.83 1049.68 890.84
  C 1060.15 897.51 1070.86 903.37 1081.79 908.42
  C 1095.64 914.83 1112.05 922.44 1129.69 929.59
  C 1130.84 930.05 1131.72 930.22 1132.34 930.10
  C 1132.62 930.05 1132.74 929.73 1132.58 929.50
  C 1132.19 928.95 1131.47 928.21 1130.44 927.30
  C 1121.25 919.15 1110.70 910.36 1098.78 900.93
  C 1084.16 889.36 1069.67 880.53 1051.53 875.42
  C 1050.45 875.12 1049.11 875.05 1047.50 875.21
  C 1047.29 875.23 1047.23 875.51 1047.41 875.62
  C 1053.06 879.19 1059.59 881.90 1065.64 885.87
  C 1073.81 891.24 1080.86 896.05 1086.81 900.32
  C 1088.84 901.78 1090.57 903.22 1092.00 904.64
  C 1092.18 904.82 1091.99 905.11 1091.76 905.02
  Z
  M 678.71 902.75
  C 679.60 901.84 680.74 900.65 682.11 899.18
  C 682.36 898.91 683.77 897.78 686.33 895.79
  C 688.81 893.86 692.66 891.31 697.88 888.15
  C 709.03 881.40 715.99 877.30 718.77 875.85
  C 718.88 875.79 718.93 875.67 718.89 875.56
  C 718.85 875.44 718.74 875.37 718.62 875.39
  C 715.96 875.77 711.79 876.71 708.39 878.04
  C 699.56 881.51 691.56 885.63 684.39 890.41
  C 679.53 893.65 672.07 898.57 666.45 903.20
  C 656.07 911.76 646.90 919.42 638.93 926.18
  C 638.00 926.97 637.23 927.77 636.62 928.58
  C 636.23 929.10 636.71 929.82 637.34 929.67
  C 639.03 929.25 640.26 928.87 641.03 928.54
  C 651.64 923.99 662.61 919.58 673.67 914.49
  C 677.56 912.70 682.91 910.25 689.70 907.16
  C 694.70 904.89 700.96 901.56 708.49 897.19
  C 716.80 892.35 726.46 885.16 732.63 881.13
  C 734.02 880.22 735.27 878.93 736.38 877.24
  C 736.51 877.04 736.34 876.78 736.10 876.83
  C 733.87 877.33 732.44 877.73 731.82 878.04
  C 722.12 882.87 715.68 885.28 707.39 890.17
  C 701.40 893.70 694.41 897.20 686.40 900.65
  C 683.99 901.68 681.48 902.48 678.87 903.04
  C 678.70 903.07 678.59 902.87 678.71 902.75
  Z
  M 733.72 913.68
  C 728.51 918.13 723.91 921.34 719.88 926.55
  C 716.10 931.47 711.44 935.89 707.67 941.70
  C 702.65 949.43 697.13 956.56 692.26 964.80
  C 686.77 974.07 682.42 981.62 679.21 987.47
  C 677.96 989.76 676.42 992.28 674.59 995.04
  C 674.02 995.91 675.08 996.92 675.92 996.31
  C 683.09 991.16 688.84 986.13 697.62 978.43
  C 714.50 963.63 729.06 947.10 741.83 928.35
  C 745.76 922.59 749.00 916.13 751.57 908.98
  C 752.33 906.87 753.49 904.70 753.66 901.99
  C 753.67 901.70 753.38 901.50 753.12 901.63
  C 752.11 902.12 751.21 902.96 750.43 904.15
  C 744.84 912.66 740.19 919.19 736.46 923.73
  C 733.08 927.84 730.26 931.36 728.00 934.28
  C 720.44 944.07 712.05 952.87 702.94 961.31
  C 702.92 961.33 702.89 961.33 702.87 961.31
  C 702.84 961.30 702.84 961.27 702.85 961.24
  C 708.10 950.73 714.96 941.37 721.23 931.46
  C 725.77 924.29 728.91 919.76 730.64 917.87
  C 731.90 916.50 732.97 915.14 733.86 913.80
  C 733.89 913.76 733.88 913.71 733.84 913.68
  C 733.81 913.65 733.76 913.65 733.72 913.68
  Z
  M 1034.88 914.65
  L 1035.74 916.93
  C 1035.77 917.02 1035.82 917.10 1035.87 917.17
  C 1045.43 930.24 1055.80 944.25 1063.71 959.05
  C 1063.74 959.11 1063.66 959.17 1063.61 959.12
  C 1051.29 948.17 1040.46 935.23 1030.11 922.17
  C 1025.44 916.27 1020.88 908.86 1016.22 903.10
  C 1015.94 902.76 1015.39 903.03 1015.50 903.46
  C 1017.33 910.62 1020.40 916.84 1023.70 923.64
  C 1024.75 925.79 1026.47 928.59 1028.88 932.04
  C 1033.39 938.49 1036.24 942.45 1037.43 943.93
  C 1050.10 959.62 1064.28 973.88 1079.96 986.72
  C 1083.81 989.87 1087.28 992.54 1090.38 994.73
  C 1091.25 995.35 1092.15 995.63 1093.07 995.58
  C 1093.47 995.56 1093.71 995.11 1093.51 994.76
  C 1090.03 988.78 1087.67 983.56 1084.14 978.31
  C 1080.07 972.26 1075.56 965.19 1070.62 957.09
  C 1065.55 948.79 1058.86 939.81 1054.52 934.05
  C 1051.26 929.73 1047.04 924.93 1041.85 919.66
  C 1039.77 917.54 1037.60 915.75 1035.33 914.28
  C 1035.08 914.12 1034.77 914.37 1034.88 914.65
  Z"
/>
<path d="
  M 1007.08 405.09
  C 1007.08 405.59 1006.58 405.94 1006.11 405.76
  C 997.59 402.50 984.96 397.91 974.55 395.20
  C 932.50 384.23 890.01 381.40 847.06 386.70
  C 842.69 387.24 836.98 388.20 829.91 389.57
  C 822.81 390.94 817.12 392.07 812.85 392.94
  C 796.88 396.20 781.53 400.62 766.80 406.21
  C 766.50 406.33 766.17 406.10 766.17 405.77
  L 766.17 391.61
  C 766.17 391.01 766.53 390.47 767.08 390.23
  C 769.36 389.26 771.24 388.59 772.73 388.22
  C 782.91 385.65 794.34 382.00 804.37 379.65
  C 851.70 368.53 899.28 366.77 947.10 374.38
  C 959.54 376.36 969.90 378.60 978.18 381.10
  C 985.63 383.35 994.76 386.21 1005.56 389.69
  C 1006.47 389.99 1007.08 390.84 1007.08 391.79
  L 1007.08 405.09
  Z"
/>
<path d="
  M 930.96 465.34
  L 919.19 456.20
  C 918.87 455.96 918.80 455.51 919.02 455.17
  L 947.56 411.77
  C 947.82 411.37 948.44 411.61 948.37 412.08
  C 946.64 424.70 944.03 436.98 938.86 449.22
  C 936.39 455.08 933.95 460.41 931.56 465.20
  C 931.45 465.42 931.16 465.49 930.96 465.34
  Z"
/>
<path d="
  M 840.78 465.37
  C 840.59 465.52 840.30 465.45 840.19 465.23
  C 837.80 460.51 835.37 455.26 832.89 449.49
  C 827.72 437.42 825.08 425.30 823.30 412.85
  C 823.23 412.38 823.84 412.15 824.10 412.54
  L 852.52 455.26
  C 852.74 455.59 852.67 456.03 852.36 456.28
  L 840.78 465.37
  Z"
/>
<path d="
  M 1003.87 463.34
  C 1003.34 474.41 1000.75 484.86 996.11 494.70
  C 990.90 505.76 982.20 515.92 972.32 521.57
  C 966.22 525.07 959.81 527.69 953.08 529.44
  C 952.76 529.52 952.47 529.22 952.56 528.90
  C 954.09 523.53 954.66 517.85 954.25 511.85
  C 954.21 511.27 954.55 510.74 955.08 510.54
  C 957.74 509.52 961.66 508.65 965.05 507.09
  C 973.02 503.42 979.88 498.18 985.63 491.39
  C 992.74 482.99 998.69 473.61 1003.47 463.25
  C 1003.57 463.04 1003.88 463.11 1003.87 463.34
  Z"
/>
<path d="
  M 767.75 464.29
  C 767.79 463.98 768.22 463.91 768.34 464.20
  C 771.92 472.57 776.34 480.16 781.60 486.97
  C 789.57 497.29 801.56 507.32 814.93 509.87
  C 815.70 510.02 816.22 510.73 816.15 511.51
  C 815.57 517.62 816.55 523.49 819.08 529.14
  C 819.17 529.34 818.99 529.57 818.77 529.52
  C 803.57 526.36 790.31 518.47 781.42 505.87
  C 775.20 497.08 771.45 488.42 769.58 477.98
  C 768.58 472.37 767.36 467.57 767.75 464.29
  Z"
/>
<path d="
  M 370.93 563.65
  C 371.01 563.39 371.33 563.29 371.54 563.47
  C 374.42 565.92 377.69 569.05 381.34 572.85
  C 387.70 579.48 394.44 584.62 403.33 592.29
  C 404.08 592.93 404.45 593.91 404.32 594.89
  C 402.69 607.37 401.69 619.94 401.52 633.74
  C 401.33 648.35 401.46 661.60 401.91 673.47
  C 402.08 678.12 402.68 685.66 403.69 696.07
  C 404.41 703.44 405.37 710.93 406.58 718.54
  C 413.60 762.96 425.81 806.83 444.21 848.04
  C 463.56 891.37 488.39 931.39 518.71 968.10
  C 521.78 971.81 525.19 975.71 528.94 979.82
  C 533.45 984.75 537.72 989.86 542.91 995.19
  C 556.35 1008.98 568.51 1020.70 579.39 1030.36
  C 615.38 1062.30 654.85 1089.05 697.82 1110.61
  C 698.06 1110.73 697.98 1111.10 697.71 1111.11
  C 686.24 1111.48 676.00 1111.08 664.79 1111.89
  C 653.83 1112.69 647.40 1113.11 645.50 1113.15
  C 644.25 1113.17 642.76 1112.69 641.03 1111.72
  C 628.40 1104.65 616.84 1097.47 601.80 1087.94
  C 585.40 1077.56 566.36 1063.05 548.08 1047.66
  C 497.12 1004.74 455.47 952.73 423.97 894.85
  C 410.63 870.34 398.93 842.59 388.87 811.62
  C 374.22 766.49 365.80 720.70 363.63 674.25
  C 362.42 648.22 363.04 622.62 365.50 597.45
  C 365.93 593.04 366.81 586.13 368.12 576.72
  C 368.71 572.57 369.64 568.21 370.93 563.65
  Z"
/>
<path d="
  M 1391.98 568.26
  C 1392.36 569.69 1392.67 571.47 1392.90 573.58
  C 1393.96 583.24 1395.50 595.71 1396.14 605.51
  C 1398.95 649.15 1395.93 692.71 1387.09 736.18
  C 1375.47 793.31 1356.11 848.66 1329.00 902.23
  C 1325.11 909.90 1320.81 917.67 1316.10 925.52
  C 1315.88 925.88 1315.40 925.99 1315.05 925.76
  L 1299.99 915.86
  C 1299.45 915.51 1299.26 914.81 1299.54 914.24
  C 1308.21 896.14 1314.30 884.52 1321.08 868.51
  C 1332.00 842.72 1341.01 816.19 1348.12 788.92
  C 1352.93 770.49 1357.58 749.02 1360.39 729.21
  C 1363.18 709.45 1364.89 693.25 1365.50 680.62
  C 1366.01 670.13 1366.06 653.60 1365.67 631.03
  C 1365.54 623.56 1364.24 615.70 1364.18 609.96
  C 1364.15 605.86 1363.04 601.10 1362.84 596.26
  C 1362.77 594.73 1363.20 593.61 1364.12 592.89
  C 1373.33 585.74 1382.15 577.42 1390.58 567.93
  C 1391.01 567.44 1391.81 567.63 1391.98 568.26
  Z"
/>
<path d="
  M 854.87 1128.70
  C 855.34 1128.59 856.56 1128.61 858.51 1128.76
  C 876.96 1130.13 895.34 1130.75 913.65 1130.62
  C 924.95 1130.54 935.59 1129.68 946.00 1129.17
  C 951.17 1128.91 959.52 1128.21 966.15 1127.14
  C 969.30 1126.64 972.17 1126.67 975.93 1126.13
  C 988.01 1124.39 994.54 1123.44 995.52 1123.29
  C 1003.65 1122.02 1017.73 1118.92 1037.76 1113.99
  C 1050.42 1110.88 1064.51 1106.46 1080.04 1100.75
  C 1098.75 1093.87 1115.57 1085.77 1130.48 1076.46
  C 1140.11 1070.43 1149.00 1063.25 1157.14 1054.91
  C 1166.27 1045.55 1173.94 1031.79 1174.64 1018.54
  C 1174.84 1014.73 1174.02 1010.46 1172.17 1005.72
  C 1167.89 994.70 1155.66 989.90 1144.25 991.00
  C 1141.30 991.29 1138.88 991.94 1137.01 992.97
  C 1131.96 995.74 1128.69 997.48 1127.19 998.21
  C 1127.00 998.30 1126.79 998.12 1126.85 997.92
  C 1127.68 995.31 1128.24 993.77 1128.51 993.30
  C 1130.44 989.98 1131.98 987.28 1133.11 985.21
  C 1144.50 964.41 1161.85 947.88 1182.65 936.40
  C 1190.27 932.19 1195.27 930.11 1203.70 927.06
  C 1222.13 920.38 1241.40 918.76 1261.53 922.19
  C 1267.21 923.16 1272.60 924.61 1277.71 926.55
  C 1290.67 931.47 1302.16 938.32 1312.17 947.09
  C 1320.88 954.74 1328.48 962.81 1334.95 971.30
  C 1340.23 978.23 1346.97 989.25 1351.77 998.28
  C 1361.45 1016.50 1368.28 1030.60 1377.70 1044.27
  C 1382.27 1050.90 1387.36 1057.69 1392.99 1064.64
  C 1413.29 1089.73 1438.05 1109.58 1467.28 1124.20
  C 1482.06 1131.59 1497.26 1137.66 1512.87 1142.40
  C 1513.26 1142.52 1513.29 1143.06 1512.91 1143.22
  C 1512.71 1143.30 1512.33 1143.30 1511.77 1143.23
  C 1511.22 1143.16 1510.85 1143.12 1510.68 1143.11
  C 1494.08 1142.57 1477.80 1140.32 1461.85 1136.36
  C 1451.90 1133.90 1439.62 1129.21 1430.83 1125.67
  C 1416.71 1119.98 1403.09 1111.65 1390.18 1102.81
  C 1378.48 1094.79 1367.55 1085.14 1357.39 1073.86
  C 1351.22 1067.01 1346.61 1061.55 1343.57 1057.48
  C 1334.92 1045.91 1325.31 1031.35 1314.73 1013.81
  C 1312.18 1009.58 1307.29 1002.47 1300.04 992.48
  C 1283.50 969.67 1263.04 953.43 1234.12 950.69
  C 1229.03 950.21 1224.15 950.08 1219.48 950.30
  C 1219.21 950.31 1219.11 950.66 1219.33 950.81
  C 1221.14 952.03 1222.71 952.96 1224.03 953.61
  C 1232.12 957.55 1239.57 964.51 1243.83 970.46
  C 1250.42 979.67 1253.83 990.02 1254.04 1001.53
  C 1254.09 1004.12 1253.52 1008.79 1252.35 1015.53
  C 1249.86 1029.84 1243.21 1044.39 1235.41 1055.70
  C 1218.91 1079.60 1196.20 1098.32 1170.76 1112.22
  C 1145.36 1126.09 1118.08 1135.93 1090.19 1141.81
  C 1081.54 1143.63 1073.71 1144.76 1065.58 1146.31
  C 1061.45 1147.09 1054.26 1147.90 1044.00 1148.73
  C 1024.88 1150.29 1005.68 1151.60 984.17 1150.22
  C 964.10 1148.93 950.22 1147.74 942.53 1146.64
  C 918.79 1143.25 904.54 1141.01 899.78 1139.92
  C 889.17 1137.49 883.75 1136.26 883.54 1136.22
  C 872.37 1133.94 863.79 1131.95 857.79 1130.26
  C 857.73 1130.24 857.67 1130.22 857.62 1130.20
  L 854.84 1129.02
  C 854.69 1128.95 854.71 1128.73 854.87 1128.70
  Z"
/>
<path d="
  M 1473.05 1171.88
  C 1473.15 1171.93 1473.18 1172.04 1473.14 1172.14
  L 1473.14 1172.15
  C 1473.11 1172.23 1473.01 1172.28 1472.92 1172.25
  C 1457.41 1167.24 1441.16 1163.04 1424.17 1159.65
  C 1419.84 1158.79 1415.40 1158.08 1410.84 1157.53
  C 1404.90 1156.81 1399.16 1155.56 1393.00 1155.12
  C 1377.21 1153.99 1364.46 1153.65 1354.75 1154.08
  C 1348.44 1154.36 1333.92 1154.77 1323.27 1156.17
  C 1315.18 1157.24 1311.06 1157.77 1310.92 1157.78
  C 1307.79 1157.97 1304.05 1158.48 1299.69 1159.31
  C 1299.53 1159.34 1295.80 1160.03 1288.51 1161.37
  C 1281.52 1162.66 1272.16 1164.82 1260.43 1167.84
  C 1235.51 1174.26 1211.34 1181.92 1187.36 1189.07
  C 1173.16 1193.30 1158.08 1197.23 1142.11 1200.84
  C 1135.64 1202.31 1129.05 1203.62 1122.32 1204.79
  C 1110.94 1206.77 1103.88 1208.29 1095.75 1209.39
  C 1075.60 1212.12 1058.35 1213.75 1043.99 1214.28
  C 1023.82 1215.03 1004.50 1214.55 986.03 1212.84
  C 976.26 1211.94 971.77 1211.90 963.04 1210.71
  C 956.62 1209.83 951.83 1209.29 948.68 1209.09
  C 941.02 1208.61 933.46 1206.68 925.93 1206.00
  C 920.98 1205.56 914.46 1204.00 910.19 1203.62
  C 902.80 1202.96 894.95 1201.02 887.51 1200.21
  C 883.23 1199.75 878.34 1198.49 872.84 1197.65
  C 862.93 1196.13 853.47 1194.62 844.48 1193.12
  C 835.50 1191.61 825.58 1190.61 818.39 1189.82
  C 817.81 1189.75 817.44 1189.16 817.64 1188.61
  C 821.61 1177.75 826.95 1167.60 833.66 1158.16
  C 836.81 1153.74 839.09 1150.53 840.48 1148.52
  C 840.76 1148.12 841.25 1147.92 841.73 1148.01
  C 863.49 1152.30 885.24 1156.39 906.99 1160.28
  C 908.15 1160.49 909.31 1160.68 910.47 1160.87
  C 930.11 1164.02 945.88 1166.27 957.77 1167.64
  C 963.22 1168.27 970.82 1168.93 980.58 1169.64
  C 989.78 1170.31 997.41 1170.70 1003.46 1170.81
  C 1052.59 1171.73 1100.11 1163.87 1146.00 1147.22
  C 1180.69 1134.63 1212.36 1114.36 1237.18 1088.20
  C 1249.77 1074.93 1259.78 1060.02 1267.22 1043.46
  C 1272.85 1030.90 1275.04 1018.34 1276.86 1004.08
  C 1276.95 1003.37 1277.12 1002.88 1277.36 1002.62
  C 1277.76 1002.19 1278.45 1002.19 1278.84 1002.63
  C 1280.95 1005.02 1283.47 1008.43 1286.38 1012.87
  C 1289.60 1017.78 1296.28 1028.19 1306.41 1044.10
  C 1317.29 1061.19 1328.74 1076.30 1340.76 1089.45
  C 1363.21 1114.01 1392.56 1132.58 1423.79 1147.46
  C 1440.39 1155.37 1456.81 1163.51 1473.05 1171.88
  Z"
/>
<path d="
  M 476.27 1196.16
  C 480.60 1193.07 485.10 1189.95 489.78 1186.80
  C 506.97 1175.21 524.90 1165.56 544.52 1158.05
  C 562.65 1151.11 580.60 1145.74 598.39 1141.94
  C 612.98 1138.82 624.43 1136.76 632.74 1135.76
  C 637.55 1135.17 646.23 1134.26 658.77 1133.03
  C 663.59 1132.56 667.92 1132.32 671.75 1132.33
  C 677.44 1132.34 683.08 1131.74 689.10 1131.67
  C 705.66 1131.49 719.46 1131.89 730.49 1132.88
  C 742.94 1133.99 752.11 1134.88 758.00 1135.55
  C 758.37 1135.59 758.64 1135.93 758.61 1136.30
  C 758.53 1137.22 758.40 1137.94 758.22 1138.46
  C 753.47 1152.21 751.14 1165.67 751.21 1178.84
  C 751.22 1179.66 750.49 1180.29 749.68 1180.16
  C 742.59 1179.03 739.07 1178.06 733.48 1177.84
  C 727.09 1177.58 714.20 1175.51 705.59 1175.18
  C 696.39 1174.82 689.21 1173.74 679.33 1173.27
  C 677.82 1173.20 673.13 1172.96 665.25 1172.55
  C 658.66 1172.20 648.74 1172.30 635.50 1172.83
  C 608.51 1173.91 580.65 1176.63 551.93 1181.00
  C 528.35 1184.58 505.20 1190.10 481.58 1195.58
  C 479.73 1196.01 477.99 1196.29 476.36 1196.42
  C 476.22 1196.43 476.15 1196.25 476.27 1196.16
  Z"
/>
<path d="
  M 181.60 1480.49
  C 181.24 1480.49 180.98 1480.14 181.09 1479.79
  L 253.75 1256.09
  C 254.07 1255.11 254.98 1254.45 256.01 1254.45
  L 329.12 1254.45
  C 329.89 1254.45 330.43 1255.22 330.18 1255.95
  C 323.23 1275.71 319.56 1288.02 311.32 1312.94
  C 301.67 1342.11 293.69 1367.43 283.27 1399.56
  C 280.26 1408.85 276.88 1418.04 274.15 1427.44
  C 273.86 1428.44 273.71 1429.17 273.72 1429.63
  C 273.73 1430.20 274.20 1430.66 274.77 1430.66
  L 423.61 1430.66
  C 424.38 1430.66 424.92 1431.42 424.67 1432.15
  L 408.26 1479.55
  C 408.06 1480.11 407.53 1480.49 406.93 1480.49
  L 181.60 1480.49
  Z"
/>
<path d="
  M 735.99 1254.74
  C 755.72 1256.26 777.52 1265.17 781.78 1287.05
  C 783.96 1298.25 781.81 1306.91 778.35 1317.85
  C 759.12 1378.72 748.04 1413.90 745.12 1423.38
  C 744.11 1426.65 742.70 1430.90 740.87 1436.13
  C 737.20 1446.65 731.20 1455.47 722.86 1462.58
  C 711.48 1472.29 699.70 1477.32 685.11 1479.85
  C 681.07 1480.55 677.56 1480.44 673.71 1480.45
  C 631.14 1480.54 574.69 1480.57 504.34 1480.54
  C 496.60 1480.54 490.77 1480.09 486.84 1479.19
  C 473.11 1476.05 459.61 1468.54 453.63 1455.85
  C 450.30 1448.78 449.46 1440.86 451.11 1432.07
  C 451.42 1430.42 452.56 1426.50 454.54 1420.30
  C 462.82 1394.43 471.52 1366.80 480.64 1337.39
  C 482.35 1331.86 484.27 1325.79 486.41 1319.18
  C 489.68 1309.03 491.71 1303.02 492.50 1301.13
  C 497.33 1289.55 504.49 1280.16 513.96 1272.95
  C 525.03 1264.52 537.68 1258.93 551.89 1256.16
  C 557.57 1255.06 567.01 1254.53 580.21 1254.58
  C 612.91 1254.70 658.84 1254.69 718.00 1254.55
  C 728.01 1254.52 734.00 1254.59 735.99 1254.74
  Z
  M 532.77 1416.46
  C 531.63 1424.22 536.09 1429.38 543.95 1430.11
  C 545.76 1430.28 550.86 1430.41 559.25 1430.51
  C 562.44 1430.55 587.94 1430.55 635.75 1430.51
  C 646.64 1430.50 653.11 1430.21 655.15 1429.63
  C 663.22 1427.36 668.62 1421.93 671.35 1413.35
  C 683.87 1374.08 693.67 1343.88 700.76 1322.75
  C 703.18 1315.54 699.25 1308.01 691.50 1307.96
  C 680.18 1307.89 643.35 1307.89 581.02 1307.96
  C 576.07 1307.97 571.91 1309.57 568.56 1312.77
  C 565.37 1315.82 563.31 1318.63 562.40 1321.20
  C 562.21 1321.75 559.73 1330.01 554.97 1345.99
  C 553.72 1350.18 546.76 1371.91 534.09 1411.17
  C 533.43 1413.23 532.99 1414.99 532.77 1416.46
  Z"
/>
<path d="
  M 1080.35 1346.00
  C 1080.59 1346.00 1080.75 1346.23 1080.68 1346.45
  C 1072.77 1369.40 1064.20 1394.75 1054.98 1422.49
  C 1053.74 1426.23 1052.20 1430.68 1050.36 1435.83
  C 1048.25 1441.75 1046.45 1446.09 1044.98 1448.86
  C 1037.36 1463.15 1025.52 1472.83 1009.47 1477.92
  C 1005.39 1479.21 1001.20 1480.03 996.91 1480.40
  C 995.93 1480.49 991.66 1480.53 984.10 1480.52
  C 911.05 1480.45 858.18 1480.47 825.50 1480.57
  C 819.71 1480.59 815.10 1480.42 811.68 1480.05
  C 809.47 1479.82 805.81 1478.82 800.70 1477.06
  C 789.36 1473.14 777.81 1463.26 774.18 1451.53
  C 770.49 1439.59 774.41 1426.98 778.53 1415.26
  C 781.74 1406.13 785.92 1393.35 791.08 1376.91
  C 797.93 1355.09 804.14 1335.60 809.72 1318.45
  C 810.97 1314.62 812.69 1309.77 814.89 1303.90
  C 818.95 1293.07 825.40 1284.11 834.25 1277.00
  C 848.26 1265.76 862.81 1258.92 880.78 1255.76
  C 885.43 1254.95 893.27 1254.55 904.29 1254.57
  C 970.34 1254.69 1019.16 1254.64 1050.75 1254.43
  C 1076.70 1254.26 1098.00 1267.23 1093.63 1296.10
  C 1092.60 1302.97 1090.81 1309.38 1088.27 1315.34
  C 1087.98 1316.01 1087.33 1316.44 1086.60 1316.44
  L 1018.11 1316.44
  C 1017.46 1316.44 1016.88 1316.03 1016.67 1315.41
  C 1015.10 1310.84 1012.84 1308.08 1007.66 1308.06
  C 1002.00 1308.03 967.20 1308.00 903.27 1307.95
  C 903.05 1307.95 902.83 1307.98 902.62 1308.03
  C 895.63 1309.73 890.62 1313.85 887.61 1320.40
  C 884.81 1326.49 882.98 1333.70 880.57 1340.64
  C 878.81 1345.71 871.08 1368.54 857.39 1409.14
  C 855.44 1414.92 854.63 1418.73 854.98 1420.56
  C 856.41 1428.17 863.08 1430.38 870.51 1430.38
  C 902.22 1430.39 931.25 1430.41 957.58 1430.42
  C 966.91 1430.42 973.40 1429.85 979.22 1423.21
  C 981.11 1421.04 983.17 1416.47 985.39 1409.50
  C 986.76 1405.17 988.51 1400.17 990.63 1394.48
  C 990.85 1393.89 990.44 1393.26 989.82 1393.22
  C 984.96 1392.89 980.44 1392.72 976.25 1392.70
  C 951.78 1392.59 931.03 1392.73 913.99 1393.12
  C 913.62 1393.13 913.33 1392.79 913.39 1392.42
  C 913.66 1390.91 914.04 1389.45 914.53 1388.04
  C 920.42 1371.37 925.10 1357.98 928.57 1347.86
  C 929.02 1346.55 929.92 1345.89 931.25 1345.89
  C 984.35 1345.73 1034.05 1345.77 1080.35 1346.00
  Z"
/>
<path d="
  M 1304.10 1480.56
  L 1230.64 1480.56
  C 1229.76 1480.56 1229.13 1479.70 1229.40 1478.87
  L 1300.49 1255.44
  C 1300.66 1254.90 1301.16 1254.53 1301.73 1254.53
  L 1375.20 1254.53
  C 1376.08 1254.53 1376.71 1255.39 1376.44 1256.22
  L 1305.34 1479.65
  C 1305.17 1480.19 1304.67 1480.56 1304.10 1480.56
  Z"
/>
<path d="
  M 1392.13 1306.54
  C 1391.70 1306.54 1391.40 1306.12 1391.54 1305.72
  L 1408.60 1256.42
  C 1408.76 1255.94 1409.10 1255.53 1409.54 1255.29
  C 1410.38 1254.82 1411.95 1254.59 1414.25 1254.59
  C 1484.42 1254.68 1550.26 1254.70 1611.75 1254.65
  C 1619.48 1254.65 1628.57 1254.57 1639.00 1254.42
  C 1643.09 1254.36 1646.57 1254.56 1649.44 1255.02
  C 1649.97 1255.10 1650.33 1255.60 1650.24 1256.12
  C 1649.97 1257.81 1649.49 1259.64 1648.82 1261.59
  C 1642.92 1278.72 1638.37 1292.39 1635.17 1302.62
  C 1634.11 1305.99 1632.61 1306.49 1629.06 1306.49
  C 1595.64 1306.49 1570.44 1306.53 1553.47 1306.60
  C 1552.63 1306.60 1551.89 1307.14 1551.63 1307.94
  C 1546.66 1323.45 1541.44 1341.37 1536.38 1357.00
  C 1519.14 1410.27 1506.05 1450.92 1497.12 1478.95
  C 1496.82 1479.90 1495.93 1480.55 1494.93 1480.55
  L 1423.73 1480.55
  C 1423.11 1480.55 1422.65 1479.99 1422.76 1479.38
  C 1423.13 1477.41 1423.78 1474.91 1424.71 1471.90
  C 1432.16 1447.87 1446.41 1403.18 1467.48 1337.82
  C 1470.65 1327.98 1473.86 1317.96 1477.09 1307.77
  C 1477.29 1307.16 1476.83 1306.54 1476.19 1306.54
  L 1392.13 1306.54
  Z"
/>
<path d="
  M 1101.02 1393.74
  L 1117.35 1346.63
  C 1117.50 1346.19 1117.91 1345.90 1118.38 1345.90
  L 1229.34 1345.90
  C 1230.09 1345.90 1230.61 1346.64 1230.37 1347.35
  L 1214.05 1394.46
  C 1213.90 1394.90 1213.49 1395.19 1213.02 1395.19
  L 1102.05 1395.19
  C 1101.30 1395.19 1100.78 1394.45 1101.02 1393.74
  Z"
/>
<rect x="1223.43" y="1532.25" width="10.50" height="68.44" rx="1.25"/>
<path d="
  M 408.28 1549.15
  L 398.57 1552.11
  C 398.17 1552.23 397.75 1552.06 397.55 1551.70
  C 390.21 1538.01 374.19 1551.06 386.70 1556.38
  C 392.73 1558.95 405.32 1560.12 408.91 1568.93
  C 412.30 1577.24 409.31 1587.16 400.57 1590.46
  C 394.15 1592.88 387.64 1593.22 381.06 1591.48
  C 373.54 1589.50 369.31 1584.45 367.41 1577.10
  C 367.26 1576.53 367.60 1575.94 368.18 1575.78
  C 371.38 1574.90 374.70 1574.48 378.13 1574.53
  C 378.69 1574.54 379.20 1574.88 379.43 1575.40
  C 381.62 1580.36 385.73 1582.40 391.76 1581.53
  C 393.80 1581.23 396.28 1579.83 396.94 1577.83
  C 398.41 1573.36 395.16 1571.11 391.23 1569.77
  C 389.87 1569.31 386.04 1568.16 379.72 1566.32
  C 376.61 1565.42 373.81 1563.00 371.31 1559.07
  C 369.92 1556.88 369.31 1554.13 369.48 1550.79
  C 369.81 1543.94 375.25 1538.00 381.78 1536.40
  C 393.16 1533.61 403.98 1536.37 408.63 1548.45
  C 408.74 1548.73 408.58 1549.06 408.28 1549.15
  Z"
/>
<path d="
  M 466.70 1555.27
  C 462.20 1543.75 446.59 1544.58 442.50 1555.68
  C 439.74 1563.17 440.75 1574.72 448.53 1579.10
  C 452.34 1581.25 456.43 1581.39 460.78 1579.53
  C 464.24 1578.06 465.57 1575.19 466.85 1571.78
  C 467.04 1571.29 467.59 1571.03 468.09 1571.21
  L 478.02 1574.74
  C 479.05 1575.11 479.67 1576.17 479.47 1577.25
  C 479.29 1578.22 478.44 1579.79 476.93 1581.96
  C 472.38 1588.49 465.85 1591.98 457.32 1592.43
  C 444.73 1593.09 433.56 1586.22 429.73 1574.03
  C 426.37 1563.33 427.94 1551.13 436.13 1543.18
  C 441.67 1537.81 448.37 1535.21 456.23 1535.38
  C 461.34 1535.50 465.58 1536.63 468.94 1538.78
  C 473.81 1541.89 477.26 1546.00 479.30 1551.11
  C 479.54 1551.71 479.21 1552.39 478.59 1552.57
  L 467.79 1555.80
  C 467.34 1555.94 466.87 1555.70 466.70 1555.27
  Z"
/>
<path d="
  M 770.01 1549.12
  L 760.36 1552.14
  C 759.97 1552.26 759.54 1552.09 759.35 1551.73
  C 751.95 1538.15 736.09 1551.25 748.58 1556.46
  C 754.60 1558.98 767.14 1560.06 770.77 1568.80
  C 774.19 1577.06 771.28 1586.94 762.60 1590.28
  C 756.22 1592.73 749.75 1593.12 743.19 1591.43
  C 735.69 1589.50 731.45 1584.51 729.51 1577.20
  C 729.36 1576.63 729.70 1576.05 730.27 1575.89
  C 733.45 1574.99 736.75 1574.55 740.17 1574.58
  C 740.73 1574.58 741.23 1574.92 741.46 1575.43
  C 743.67 1580.35 747.78 1582.36 753.78 1581.46
  C 755.80 1581.14 758.26 1579.73 758.91 1577.74
  C 760.34 1573.28 757.10 1571.06 753.17 1569.75
  C 751.82 1569.30 747.99 1568.18 741.69 1566.40
  C 738.59 1565.52 735.79 1563.13 733.28 1559.23
  C 731.88 1557.07 731.26 1554.32 731.40 1551.01
  C 731.69 1544.19 737.07 1538.24 743.56 1536.60
  C 754.87 1533.75 765.65 1536.43 770.35 1548.42
  C 770.46 1548.71 770.31 1549.03 770.01 1549.12
  Z"
/>
<path d="
  M 1063.53 1551.62
  C 1063.65 1551.90 1063.50 1552.23 1063.21 1552.31
  L 1053.28 1555.29
  C 1052.56 1555.50 1051.79 1555.22 1051.37 1554.59
  C 1042.26 1540.70 1026.00 1547.19 1025.18 1562.43
  C 1024.73 1570.84 1028.12 1579.50 1037.26 1581.00
  C 1041.43 1581.68 1045.25 1580.33 1048.72 1576.95
  C 1049.38 1576.30 1050.51 1574.62 1052.10 1571.91
  C 1052.32 1571.54 1052.76 1571.37 1053.17 1571.50
  L 1063.50 1574.78
  C 1064.11 1574.97 1064.42 1575.65 1064.16 1576.23
  C 1059.88 1585.94 1052.70 1591.27 1042.62 1592.21
  C 1033.50 1593.05 1024.91 1590.84 1018.92 1583.45
  C 1015.04 1578.68 1012.94 1573.39 1012.62 1567.58
  C 1011.64 1549.67 1022.31 1534.49 1041.15 1535.65
  C 1051.80 1536.31 1059.26 1541.63 1063.53 1551.62
  Z"
/>
<path d="
  M 1179.20 1549.25
  L 1169.50 1552.16
  C 1169.10 1552.28 1168.68 1552.10 1168.49 1551.74
  C 1161.23 1538.06 1145.20 1551.00 1157.65 1556.36
  C 1163.65 1558.95 1176.20 1560.17 1179.74 1568.97
  C 1183.08 1577.28 1180.05 1587.15 1171.32 1590.40
  C 1164.91 1592.79 1158.42 1593.10 1151.86 1591.33
  C 1144.37 1589.32 1140.18 1584.27 1138.32 1576.93
  C 1138.18 1576.36 1138.52 1575.78 1139.09 1575.62
  C 1142.29 1574.75 1145.60 1574.35 1149.02 1574.42
  C 1149.58 1574.43 1150.08 1574.77 1150.31 1575.29
  C 1152.47 1580.24 1156.56 1582.30 1162.58 1581.46
  C 1164.61 1581.17 1167.09 1579.78 1167.76 1577.79
  C 1169.25 1573.34 1166.02 1571.08 1162.10 1569.73
  C 1160.75 1569.26 1156.93 1568.10 1150.64 1566.24
  C 1147.55 1565.33 1144.76 1562.90 1142.29 1558.97
  C 1140.92 1556.78 1140.32 1554.03 1140.50 1550.71
  C 1140.87 1543.88 1146.32 1537.98 1152.84 1536.41
  C 1164.20 1533.68 1174.97 1536.49 1179.55 1548.55
  C 1179.66 1548.84 1179.50 1549.16 1179.20 1549.25
  Z"
/>
<path d="
  M 1319.29 1549.44
  C 1316.36 1550.79 1312.98 1551.76 1309.14 1552.35
  C 1308.70 1552.42 1308.27 1552.16 1308.11 1551.74
  C 1306.86 1548.31 1304.22 1546.41 1300.18 1546.06
  C 1296.68 1545.75 1293.85 1547.37 1293.16 1550.94
  C 1292.43 1554.68 1298.09 1557.10 1300.79 1557.85
  C 1306.65 1559.47 1310.41 1560.72 1312.06 1561.61
  C 1318.71 1565.16 1321.55 1570.63 1320.59 1578.02
  C 1319.31 1587.86 1310.66 1591.99 1301.51 1592.34
  C 1289.72 1592.79 1281.27 1589.25 1277.62 1577.28
  C 1277.41 1576.60 1277.85 1575.89 1278.55 1575.76
  L 1287.93 1574.05
  C 1288.51 1573.95 1289.09 1574.18 1289.44 1574.65
  C 1290.64 1576.26 1291.33 1577.21 1291.50 1577.48
  C 1294.55 1582.19 1304.95 1584.04 1307.42 1577.64
  C 1310.23 1570.31 1297.11 1568.38 1292.57 1567.12
  C 1286.54 1565.44 1282.00 1561.40 1280.58 1555.06
  C 1279.81 1551.62 1280.11 1548.42 1281.48 1545.47
  C 1285.51 1536.74 1294.60 1534.65 1303.49 1535.65
  C 1311.33 1536.53 1316.73 1540.79 1319.69 1548.43
  C 1319.84 1548.82 1319.67 1549.26 1319.29 1549.44
  Z"
/>
<path d="
  M 1461.63 1564.29
  C 1461.62 1565.87 1461.35 1567.94 1460.84 1570.50
  C 1458.44 1582.48 1450.00 1591.52 1437.52 1592.33
  C 1430.40 1592.79 1424.34 1591.99 1418.67 1587.84
  C 1413.07 1583.73 1409.61 1578.13 1408.28 1571.02
  C 1408.01 1569.55 1407.89 1567.14 1407.92 1563.77
  C 1407.95 1560.41 1408.12 1557.99 1408.42 1556.53
  C 1409.88 1549.45 1413.45 1543.91 1419.13 1539.91
  C 1424.88 1535.87 1430.95 1535.19 1438.06 1535.79
  C 1450.53 1536.84 1458.79 1546.04 1460.96 1558.06
  C 1461.42 1560.63 1461.65 1562.71 1461.63 1564.29
  Z
  M 1434.7401 1546.7709
  C 1426.97 1546.69 1420.59 1554.32 1420.4908 1563.8227
  C 1420.39 1573.32 1426.61 1581.09 1434.3799 1581.1691
  C 1442.15 1581.25 1448.53 1573.62 1448.6292 1564.1173
  C 1448.73 1554.62 1442.51 1546.85 1434.7401 1546.7709
  Z"
/>
<path d="
  M 522.70 1581.12
  C 527.04 1581.10 530.35 1579.15 532.03 1575.28
  C 532.65 1573.85 532.94 1571.12 532.89 1567.11
  C 532.70 1551.81 532.61 1541.80 532.63 1537.08
  C 532.64 1536.59 533.00 1536.17 533.49 1536.10
  C 537.07 1535.61 540.84 1535.61 544.81 1536.12
  C 545.14 1536.17 545.39 1536.45 545.40 1536.78
  C 545.43 1538.92 545.49 1547.11 545.58 1561.36
  C 545.63 1571.39 545.30 1577.43 544.59 1579.50
  C 541.40 1588.68 532.72 1592.41 522.76 1592.46
  C 512.79 1592.51 504.08 1588.87 500.80 1579.72
  C 500.06 1577.66 499.67 1571.61 499.63 1561.59
  C 499.57 1547.34 499.55 1539.15 499.56 1537.01
  C 499.56 1536.67 499.81 1536.39 500.15 1536.34
  C 504.11 1535.79 507.88 1535.75 511.47 1536.21
  C 511.95 1536.27 512.32 1536.69 512.33 1537.18
  C 512.40 1541.90 512.41 1551.91 512.37 1567.21
  C 512.36 1571.22 512.68 1573.95 513.32 1575.37
  C 515.03 1579.23 518.36 1581.14 522.70 1581.12
  Z"
/>
<path d="
  M 568.64 1536.42
  C 568.65 1536.24 568.80 1536.10 568.98 1536.10
  C 578.65 1536.13 586.65 1536.13 593.00 1536.10
  C 600.19 1536.06 607.64 1538.68 609.90 1546.41
  C 611.69 1552.56 609.84 1557.70 604.33 1561.84
  C 603.78 1562.26 603.86 1563.10 604.48 1563.40
  C 609.90 1566.03 612.57 1571.24 612.07 1577.02
  C 611.22 1586.71 603.42 1591.46 593.99 1591.65
  C 589.13 1591.75 581.64 1591.73 571.51 1591.58
  C 569.59 1591.55 568.63 1590.70 568.63 1589.03
  C 568.61 1573.56 568.53 1558.05 568.40 1542.50
  C 568.39 1541.10 568.47 1539.07 568.64 1536.42
  Z
  M 581.16 1548.48
  L 581.32 1556.62
  C 581.34 1557.48 582.05 1558.16 582.91 1558.15
  L 591.87 1557.97
  C 595.06 1557.91 597.60 1555.39 597.54 1552.34
  L 597.54 1552.12
  C 597.48 1549.08 594.84 1546.65 591.65 1546.72
  L 582.69 1546.89
  C 581.83 1546.90 581.15 1547.62 581.16 1548.48
  Z
  M 581.23 1568.77
  L 581.27 1579.79
  C 581.27 1580.27 581.66 1580.66 582.14 1580.66
  L 592.55 1580.62
  C 596.10 1580.61 598.96 1577.84 598.95 1574.43
  L 598.95 1574.01
  C 598.94 1570.60 596.05 1567.85 592.51 1567.86
  L 582.10 1567.90
  C 581.62 1567.90 581.23 1568.29 581.23 1568.77
  Z"
/>
<path d="
  M 679.65 1591.63
  L 669.05 1591.63
  C 668.58 1591.63 668.17 1591.32 668.04 1590.88
  L 665.45 1582.24
  C 665.19 1581.39 664.41 1580.80 663.52 1580.80
  L 644.33 1580.80
  C 644.01 1580.80 643.72 1581.01 643.61 1581.32
  L 640.58 1590.06
  C 640.37 1590.66 639.85 1591.09 639.22 1591.19
  C 636.00 1591.66 632.67 1591.63 629.23 1591.10
  C 628.91 1591.05 628.69 1590.75 628.74 1590.42
  C 629.01 1588.87 629.40 1587.28 629.91 1585.67
  C 631.67 1580.16 634.18 1573.12 637.44 1564.55
  C 640.65 1556.11 643.09 1548.49 646.38 1538.41
  C 646.89 1536.83 647.86 1536.05 649.29 1536.06
  C 651.28 1536.09 654.92 1536.07 660.21 1536.01
  C 661.25 1536.00 662.19 1536.65 662.53 1537.64
  C 670.22 1559.91 675.76 1575.73 679.13 1585.12
  C 679.72 1586.77 680.15 1588.65 680.41 1590.76
  C 680.47 1591.22 680.11 1591.63 679.65 1591.63
  Z
  M 647.75 1569.20
  C 647.53 1569.90 648.06 1570.60 648.79 1570.59
  L 660.11 1570.39
  C 660.83 1570.38 661.34 1569.66 661.10 1568.97
  L 655.14 1551.77
  C 654.80 1550.80 653.41 1550.82 653.10 1551.81
  L 647.75 1569.20
  Z"
/>
<path d="
  M 825.54 1558.16
  C 825.91 1558.17 826.21 1558.47 826.20 1558.84
  L 826.08 1568.35
  C 826.08 1568.64 825.85 1568.87 825.56 1568.87
  L 806.46 1568.85
  C 805.54 1568.85 804.79 1569.61 804.81 1570.54
  L 805.00 1579.08
  C 805.01 1579.76 805.56 1580.30 806.24 1580.30
  L 827.66 1580.45
  C 828.07 1580.45 828.39 1580.79 828.39 1581.20
  L 828.21 1591.05
  C 828.20 1591.45 827.89 1591.76 827.50 1591.76
  L 793.90 1591.61
  C 793.09 1591.61 792.43 1590.94 792.43 1590.12
  L 792.53 1537.06
  C 792.53 1536.54 792.96 1536.12 793.47 1536.12
  L 827.54 1536.09
  C 827.98 1536.09 828.34 1536.45 828.34 1536.89
  L 828.26 1546.50
  C 828.26 1546.91 827.92 1547.24 827.52 1547.24
  L 806.51 1547.24
  C 805.59 1547.24 804.86 1548.00 804.88 1548.91
  L 805.11 1557.30
  C 805.12 1557.60 805.36 1557.84 805.66 1557.84
  L 825.54 1558.16
  Z"
/>
<path d="
  M 893.30 1590.82
  C 893.42 1591.08 893.26 1591.38 892.98 1591.41
  C 889.45 1591.82 885.81 1591.90 882.06 1591.67
  C 880.73 1591.59 879.76 1590.97 879.17 1589.80
  C 876.59 1584.72 874.59 1580.22 873.18 1576.31
  C 872.71 1575.02 872.07 1573.64 871.24 1572.17
  C 870.99 1571.71 870.50 1571.42 869.97 1571.42
  L 865.20 1571.42
  C 864.14 1571.42 863.28 1572.28 863.28 1573.35
  L 863.28 1591.25
  C 863.28 1591.40 863.16 1591.52 863.01 1591.52
  L 851.49 1591.52
  C 851.03 1591.52 850.66 1591.15 850.66 1590.69
  L 850.66 1537.27
  C 850.66 1536.64 851.17 1536.13 851.80 1536.12
  C 860.22 1536.03 868.27 1536.06 875.94 1536.22
  C 885.52 1536.41 893.50 1543.55 893.34 1553.52
  C 893.22 1560.95 890.16 1566.17 884.16 1569.16
  C 883.56 1569.47 883.31 1570.20 883.60 1570.80
  L 893.30 1590.82
  Z
  M 863.36 1548.15
  L 863.46 1560.41
  C 863.47 1561.05 864.00 1561.57 864.64 1561.56
  L 873.02 1561.49
  C 877.28 1561.45 880.71 1558.23 880.67 1554.29
  L 880.67 1553.95
  C 880.63 1550.02 877.15 1546.86 872.90 1546.89
  L 864.52 1546.97
  C 863.87 1546.97 863.35 1547.50 863.36 1548.15
  Z"
/>
<path d="
  M 934.32 1575.15
  C 934.64 1575.15 934.95 1574.66 935.26 1573.67
  C 941.81 1552.40 945.32 1541.02 945.80 1539.52
  C 946.21 1538.25 946.56 1537.29 946.87 1536.62
  C 947.03 1536.27 947.38 1536.04 947.76 1536.04
  L 959.61 1536.04
  C 960.13 1536.04 960.49 1536.55 960.32 1537.04
  L 942.04 1589.82
  C 941.73 1590.73 940.94 1591.41 939.99 1591.58
  C 939.36 1591.69 937.48 1591.75 934.34 1591.76
  C 931.20 1591.76 929.32 1591.71 928.69 1591.59
  C 927.74 1591.43 926.95 1590.76 926.63 1589.84
  L 908.20 1537.12
  C 908.03 1536.63 908.39 1536.12 908.91 1536.11
  L 920.76 1536.08
  C 921.14 1536.08 921.49 1536.30 921.65 1536.66
  C 921.96 1537.32 922.32 1538.29 922.73 1539.55
  C 923.21 1541.05 926.76 1552.43 933.37 1573.67
  C 933.68 1574.66 933.99 1575.15 934.32 1575.15
  Z"
/>
<path d="
  M 990.67 1536.02
  C 991.11 1536.02 991.47 1536.38 991.48 1536.82
  L 991.66 1588.22
  C 991.66 1590.11 990.67 1591.64 989.44 1591.65
  L 981.14 1591.67
  C 979.91 1591.68 978.90 1590.15 978.90 1588.26
  L 978.72 1536.86
  C 978.71 1536.42 979.07 1536.06 979.51 1536.06
  L 990.67 1536.02
  Z"
/>
<path d="
  M 1116.24 1568.90
  L 1097.38 1568.90
  C 1096.72 1568.90 1096.18 1569.44 1096.18 1570.10
  L 1096.18 1579.18
  C 1096.18 1579.84 1096.72 1580.38 1097.38 1580.38
  L 1118.40 1580.38
  C 1119.06 1580.38 1119.60 1580.92 1119.60 1581.58
  L 1119.60 1590.53
  C 1119.60 1591.19 1119.06 1591.73 1118.40 1591.73
  L 1084.88 1591.73
  C 1084.22 1591.73 1083.68 1591.19 1083.68 1590.53
  L 1083.68 1537.29
  C 1083.68 1536.63 1084.22 1536.09 1084.88 1536.09
  L 1118.36 1536.09
  C 1119.02 1536.09 1119.56 1536.63 1119.56 1537.29
  L 1119.56 1546.05
  C 1119.56 1546.71 1119.02 1547.25 1118.36 1547.25
  L 1097.42 1547.25
  C 1096.76 1547.25 1096.22 1547.79 1096.22 1548.45
  L 1096.22 1556.80
  C 1096.22 1557.46 1096.76 1558.00 1097.42 1558.00
  L 1116.24 1558.00
  C 1116.90 1558.00 1117.44 1558.54 1117.44 1559.20
  L 1117.44 1567.70
  C 1117.44 1568.36 1116.90 1568.90 1116.24 1568.90
  Z"
/>
<path d="
  M 1353.60 1536.03
  C 1354.04 1536.03 1354.40 1536.39 1354.40 1536.83
  L 1354.40 1556.47
  C 1354.40 1557.24 1355.03 1557.87 1355.81 1557.87
  L 1373.07 1557.87
  C 1373.90 1557.87 1374.57 1557.20 1374.57 1556.37
  L 1374.57 1536.99
  C 1374.57 1536.46 1375.00 1536.03 1375.53 1536.03
  L 1385.97 1536.03
  C 1386.80 1536.03 1387.48 1536.70 1387.49 1537.54
  C 1387.62 1549.25 1387.66 1563.57 1387.59 1580.50
  C 1387.58 1584.16 1387.43 1587.60 1387.15 1590.83
  C 1387.10 1591.33 1386.68 1591.72 1386.18 1591.72
  L 1375.80 1591.72
  C 1375.19 1591.72 1374.69 1591.22 1374.69 1590.61
  L 1374.69 1570.77
  C 1374.69 1569.79 1373.89 1568.99 1372.91 1568.99
  L 1355.60 1568.99
  C 1354.90 1568.99 1354.34 1569.55 1354.34 1570.25
  L 1354.34 1589.62
  C 1354.34 1590.72 1353.44 1591.62 1352.34 1591.62
  L 1342.91 1591.62
  C 1342.21 1591.62 1341.65 1591.06 1341.65 1590.36
  L 1341.65 1536.98
  C 1341.65 1536.46 1342.08 1536.03 1342.60 1536.03
  L 1353.60 1536.03
  Z"
/>
<path d="
  M 1482.34 1591.78
  C 1481.94 1591.78 1481.61 1591.45 1481.61 1591.05
  L 1481.61 1537.23
  C 1481.61 1536.63 1482.09 1536.14 1482.68 1536.13
  C 1490.89 1535.98 1498.49 1536.01 1505.48 1536.20
  C 1515.12 1536.47 1522.41 1543.12 1523.13 1552.73
  C 1523.76 1561.20 1520.83 1567.15 1514.32 1570.58
  C 1512.05 1571.77 1508.93 1572.50 1504.95 1572.75
  C 1501.04 1573.00 1497.80 1573.08 1495.23 1572.99
  C 1494.62 1572.97 1494.11 1573.46 1494.11 1574.08
  L 1494.11 1590.59
  C 1494.11 1591.25 1493.58 1591.78 1492.92 1591.78
  L 1482.34 1591.78
  Z
  M 1494.35 1548.11
  L 1494.33 1561.19
  C 1494.33 1561.70 1494.75 1562.13 1495.27 1562.13
  L 1503.23 1562.14
  C 1507.40 1562.15 1510.79 1558.89 1510.80 1554.86
  L 1510.80 1554.48
  C 1510.81 1550.46 1507.43 1547.19 1503.25 1547.18
  L 1495.29 1547.17
  C 1494.77 1547.17 1494.35 1547.59 1494.35 1548.11
  Z"
/>
<path d="
  M 152.05 1553.59
  C 151.92 1553.57 151.83 1553.46 151.84 1553.33
  L 151.84 1553.32
  C 151.83 1553.21 151.92 1553.11 152.03 1553.11
  L 311.06 1546.36
  C 311.87 1546.32 312.55 1546.97 312.55 1547.78
  L 312.55 1572.47
  C 312.55 1573.30 311.81 1573.93 311.00 1573.80
  C 310.54 1573.72 305.62 1572.99 296.24 1571.62
  C 293.54 1571.23 291.24 1570.97 289.34 1570.85
  C 286.32 1570.67 283.70 1569.86 280.20 1569.46
  C 242.11 1565.06 207.95 1560.92 177.72 1557.03
  C 166.81 1555.63 158.26 1554.48 152.05 1553.59
  Z"
/>
<path d="
  M 1663.55 1553.11
  C 1663.67 1553.11 1663.77 1553.21 1663.78 1553.33
  C 1663.79 1553.46 1663.70 1553.57 1663.58 1553.59
  L 1555.32 1573.32
  C 1554.78 1573.42 1554.29 1573.01 1554.29 1572.46
  L 1554.29 1548.53
  C 1554.29 1547.69 1554.96 1547.01 1555.80 1547.00
  C 1559.88 1546.96 1563.28 1547.03 1566.00 1547.21
  C 1584.06 1548.44 1603.11 1549.57 1623.15 1550.60
  C 1628.38 1550.87 1635.10 1551.34 1643.33 1551.99
  C 1649.42 1552.48 1656.16 1552.85 1663.55 1553.11
  Z"
/>
</g>
<g fill="#ffffff">
<ellipse cx="0.00" cy="0.00" transform="translate(892.59,148.43) rotate(-89.7)" rx="21.50" ry="20.55"/>
<path d="
  M 1104.40 548.29
  C 1104.50 548.24 1104.62 548.27 1104.69 548.36
  C 1104.76 548.45 1104.75 548.58 1104.67 548.66
  C 1093.79 560.06 1086.02 568.36 1081.36 573.55
  C 1073.49 582.31 1069.16 586.45 1059.67 596.17
  C 1056.10 599.82 1052.30 603.29 1048.28 606.56
  C 1048.11 606.70 1047.88 606.50 1047.98 606.31
  C 1051.96 598.97 1055.66 592.38 1061.57 586.00
  C 1062.99 584.46 1065.52 581.60 1069.15 577.41
  C 1071.48 574.73 1074.80 571.63 1079.11 568.11
  C 1091.47 558.03 1098.95 552.01 1101.55 550.06
  C 1102.50 549.35 1103.45 548.76 1104.40 548.29
  Z"
/>
<path d="
  M 721.33 607.81
  C 721.37 607.90 721.35 608.00 721.27 608.06
  C 721.19 608.12 721.08 608.11 721.01 608.04
  C 716.88 603.82 712.53 600.54 709.07 596.64
  C 705.64 592.77 699.95 586.85 691.98 578.88
  C 687.65 574.55 684.73 570.86 680.41 565.54
  C 678.84 563.61 677.19 561.85 675.46 560.26
  C 671.88 556.98 668.52 553.33 665.37 549.30
  C 665.33 549.25 665.33 549.18 665.38 549.13
  C 665.43 549.08 665.50 549.08 665.55 549.12
  C 673.14 555.29 678.38 560.29 686.68 566.72
  C 690.97 570.05 696.08 574.75 701.99 580.83
  C 709.81 588.88 716.26 597.87 721.33 607.81
  Z"
/>
</g>
</svg>
