<?xml version="1.0" encoding="UTF-8" standalone="no"?>
<!DOCTYPE svg PUBLIC "-//W3C//DTD SVG 1.1//EN" "http://www.w3.org/Graphics/SVG/1.1/DTD/svg11.dtd">
<svg xmlns="http://www.w3.org/2000/svg" version="1.1" viewBox="0.00 0.00 833.00 833.00">
<g fill="#fffffe">
<path d="
  M 399.91 117.08
  L 399.91 110.15
  C 399.91 109.51 400.12 108.88 400.51 108.37
  C 401.95 106.51 402.51 104.09 402.19 101.10
  C 402.16 100.83 401.86 100.69 401.64 100.84
  C 399.24 102.38 396.73 102.54 394.12 101.33
  C 393.28 100.94 391.20 100.79 387.88 100.87
  C 387.46 100.88 387.14 101.23 387.16 101.65
  C 387.42 106.57 383.00 106.46 378.93 106.76
  C 369.85 107.43 365.12 107.77 364.73 107.80
  C 362.02 107.99 360.30 106.47 359.57 103.23
  C 357.80 95.29 357.36 86.80 358.26 77.75
  C 358.50 75.33 359.07 73.08 359.96 71.01
  C 360.44 69.90 361.51 69.15 362.72 69.09
  C 369.13 68.76 375.81 68.91 382.78 69.55
  C 386.26 69.87 387.15 71.22 387.30 74.35
  C 387.33 75.00 387.89 75.49 388.53 75.42
  L 398.70 74.39
  C 399.21 74.34 399.58 73.89 399.52 73.38
  C 398.21 61.08 401.07 50.09 413.15 45.33
  C 420.87 42.29 429.05 45.31 434.37 51.87
  C 439.18 57.81 439.99 66.23 438.22 73.51
  C 438.08 74.08 438.50 74.62 439.08 74.62
  L 443.47 74.62
  C 444.21 74.62 444.84 75.17 444.94 75.90
  C 445.98 83.43 445.93 90.96 444.78 98.48
  C 444.54 100.06 443.70 100.88 442.27 100.93
  C 439.61 101.04 437.62 101.04 436.29 100.95
  C 435.93 100.93 435.60 101.18 435.54 101.54
  C 434.99 104.90 435.48 105.86 437.31 109.03
  C 437.48 109.33 437.57 109.67 437.57 110.02
  L 437.57 117.90
  C 437.57 118.35 437.13 118.67 436.70 118.54
  C 424.87 114.88 412.93 114.64 400.88 117.83
  C 400.39 117.96 399.91 117.59 399.91 117.08
  Z
  M 431.0212 62.2903
  C 431.04 56.42 426.30 51.64 420.4284 51.6232
  L 418.6284 51.6169
  C 412.76 51.60 407.98 56.34 407.9614 62.2098
  L 407.9388 68.6897
  C 407.92 74.56 412.66 79.34 418.5316 79.3568
  L 420.3316 79.3631
  C 426.20 79.38 430.98 74.64 430.9986 68.7702
  L 431.0212 62.2903
  Z
  M 394.8875 81.5785
  C 394.87 80.63 394.09 79.88 393.1479 79.8986
  L 388.3286 79.9827
  C 387.38 80.00 386.63 80.78 386.6487 81.7223
  L 386.7325 86.5215
  C 386.75 87.47 387.53 88.22 388.4721 88.2014
  L 393.2914 88.1173
  C 394.24 88.10 394.99 87.32 394.9713 86.3777
  L 394.8875 81.5785
  Z
  M 442.8739 80.3937
  C 442.86 80.09 442.61 79.85 442.3051 79.8632
  L 438.9271 79.9811
  C 438.62 79.99 438.39 80.25 438.3967 80.5500
  L 438.6061 86.5463
  C 438.62 86.85 438.87 87.09 439.1749 87.0768
  L 442.5529 86.9589
  C 442.86 86.95 443.09 86.69 443.0833 86.3900
  L 442.8739 80.3937
  Z"
/>
<path d="
  M 192.71 247.26
  C 192.62 247.67 192.15 247.86 191.80 247.63
  L 177.41 238.13
  C 177.03 237.87 176.85 237.40 176.97 236.95
  C 191.02 184.31 222.34 137.83 265.51 104.26
  C 289.20 85.84 315.56 72.79 344.59 65.12
  C 345.31 64.93 345.85 64.84 346.21 64.86
  C 346.77 64.88 347.19 65.36 347.14 65.92
  L 345.45 84.80
  C 345.40 85.30 345.05 85.72 344.57 85.85
  C 318.00 92.98 292.04 106.95 270.31 124.57
  C 241.52 147.91 219.51 176.97 204.26 211.75
  C 199.30 223.06 195.45 234.89 192.71 247.26
  Z"
/>
<path d="
  M 409.69 129.18
  C 409.26 128.95 407.92 129.03 405.67 129.43
  C 386.25 132.88 373.69 143.89 367.99 162.48
  C 367.23 164.96 366.87 167.50 366.91 170.09
  C 366.92 170.75 366.51 171.34 365.89 171.55
  L 360.44 173.42
  C 359.94 173.60 359.41 173.22 359.41 172.68
  C 359.48 124.41 415.11 106.54 451.39 129.32
  C 466.44 138.76 474.40 155.10 473.58 172.95
  C 473.57 173.17 473.36 173.31 473.15 173.24
  C 464.95 170.36 456.57 168.26 448.00 166.95
  C 422.51 163.05 397.24 164.10 372.19 170.09
  C 371.71 170.20 371.26 169.80 371.32 169.31
  C 373.35 152.05 385.27 139.38 400.60 132.64
  C 403.12 131.53 407.36 130.51 409.65 129.68
  C 409.87 129.60 409.90 129.29 409.69 129.18
  Z"
/>
<path d="
  M 535.29 486.64
  C 535.44 486.93 535.16 487.25 534.85 487.14
  C 514.01 479.71 495.29 465.27 482.47 448.05
  C 479.47 444.02 477.07 440.48 475.28 437.44
  C 474.99 436.94 474.22 437.22 474.31 437.79
  L 477.67 460.39
  C 477.73 460.81 477.19 461.03 476.94 460.69
  C 470.50 451.79 465.96 442.14 463.31 431.73
  C 462.28 427.70 460.83 417.55 455.24 417.13
  C 448.26 416.61 444.05 427.27 442.76 432.78
  C 441.93 436.27 439.92 444.50 436.72 457.45
  C 435.09 464.04 431.52 474.45 428.13 481.21
  C 421.94 493.57 415.94 503.54 410.11 511.13
  C 404.24 518.78 397.91 526.85 391.11 535.35
  C 382.48 546.14 375.19 559.52 374.40 573.45
  C 373.90 582.18 377.02 591.03 381.16 598.69
  C 381.33 599.01 380.94 599.33 380.66 599.11
  C 361.34 583.85 355.39 560.36 363.15 537.37
  C 365.20 531.31 367.51 525.70 370.08 520.55
  C 374.56 511.58 378.51 502.73 381.92 494.00
  C 388.11 478.19 390.74 462.22 389.82 446.09
  C 389.33 437.71 387.20 424.35 380.37 418.76
  C 375.24 414.57 371.01 419.44 369.74 424.24
  C 367.27 433.56 364.89 440.85 362.62 446.11
  C 360.25 451.58 357.40 456.51 354.06 460.89
  C 353.74 461.31 353.07 461.02 353.15 460.50
  L 356.59 438.09
  C 356.69 437.44 355.99 436.96 355.42 437.30
  C 355.22 437.42 355.01 437.66 354.80 438.03
  C 342.87 458.64 322.94 476.02 301.47 485.23
  C 299.54 486.06 297.62 486.70 295.72 487.16
  C 295.45 487.23 295.25 486.93 295.40 486.70
  C 301.48 477.83 305.37 472.46 310.70 463.71
  C 312.87 460.14 315.57 455.81 318.80 450.74
  C 324.27 442.15 327.43 438.36 334.52 429.28
  C 334.81 428.91 334.39 428.40 333.97 428.62
  C 314.75 438.62 294.15 448.17 272.06 450.31
  C 271.73 450.34 271.57 449.92 271.83 449.72
  C 280.35 443.11 289.83 435.30 300.27 426.28
  C 304.90 422.29 310.61 418.08 317.40 413.65
  C 323.64 409.58 330.44 406.63 337.79 404.82
  C 338.01 404.77 338.16 404.56 338.14 404.34
  C 338.12 404.11 337.94 403.93 337.72 403.91
  C 326.93 402.86 316.08 402.45 305.19 402.70
  C 304.92 402.71 304.81 402.36 305.03 402.20
  C 315.60 394.79 327.15 390.53 339.70 389.43
  C 347.97 388.70 356.04 390.42 363.93 394.57
  C 365.34 395.31 368.05 394.51 369.61 393.57
  C 379.57 387.57 379.56 376.18 379.36 366.01
  C 379.22 358.45 378.04 350.51 375.82 342.20
  C 374.15 335.97 369.81 326.57 363.41 325.03
  C 356.97 323.49 352.27 326.18 347.73 331.22
  C 335.26 345.07 327.25 353.56 323.70 356.69
  C 308.31 370.29 291.55 380.09 271.73 383.96
  C 270.92 384.11 270.26 384.19 269.73 384.20
  C 269.45 384.20 269.31 383.85 269.52 383.66
  C 277.54 376.39 283.49 370.65 290.39 362.70
  C 294.94 357.45 303.02 348.25 314.61 335.12
  C 314.80 334.90 314.86 334.67 314.79 334.44
  C 314.68 334.05 314.22 333.89 313.89 334.12
  C 313.04 334.72 312.21 335.23 311.39 335.65
  C 298.22 342.36 282.75 347.00 268.06 349.05
  C 250.07 351.57 232.30 349.33 214.75 342.32
  C 212.62 341.47 210.81 340.52 209.32 339.48
  C 209.02 339.27 209.16 338.80 209.53 338.79
  C 222.31 338.57 234.59 336.84 246.36 333.60
  C 257.05 330.66 267.02 327.36 279.21 322.90
  C 285.12 320.74 291.09 318.75 297.13 316.93
  C 297.35 316.86 297.50 316.64 297.46 316.41
  C 297.43 316.18 297.23 316.00 297.00 316.00
  C 272.52 315.64 247.00 306.88 225.51 295.32
  C 208.38 286.11 193.48 273.72 180.83 258.17
  C 178.44 255.24 176.54 252.31 175.12 249.36
  C 174.94 248.97 175.38 248.58 175.74 248.82
  C 180.45 251.89 186.26 255.38 193.16 259.31
  C 215.86 272.22 242.92 279.73 269.05 284.92
  C 283.96 287.88 291.86 289.44 292.75 289.59
  C 293.16 289.66 293.60 289.65 294.06 289.55
  C 294.46 289.47 294.51 288.92 294.14 288.76
  C 277.77 281.60 262.83 272.67 249.31 261.96
  C 232.81 248.89 222.01 231.58 219.13 210.65
  C 219.09 210.36 219.46 210.20 219.64 210.44
  C 226.77 219.89 234.89 228.33 243.99 235.76
  C 254.01 243.94 266.77 250.01 278.51 254.74
  C 288.42 258.73 297.46 263.02 305.65 267.62
  C 305.79 267.70 305.96 267.66 306.06 267.54
  C 306.15 267.41 306.14 267.23 306.03 267.12
  C 300.90 261.98 297.21 258.29 294.97 256.04
  C 277.34 238.38 261.82 214.92 259.72 189.75
  C 258.85 179.32 259.82 168.99 262.65 158.76
  C 262.74 158.43 263.22 158.46 263.27 158.80
  C 267.64 192.73 287.80 219.56 313.54 240.96
  C 333.50 257.55 344.59 265.94 357.45 281.22
  C 359.12 283.21 361.60 284.22 364.87 284.24
  C 369.02 284.27 372.86 282.79 376.37 279.82
  C 383.66 273.66 389.36 263.29 389.45 253.81
  C 389.46 252.36 389.06 250.10 388.25 247.03
  C 385.86 238.00 387.70 229.70 393.77 222.12
  C 393.96 221.89 394.17 221.69 394.41 221.52
  C 397.09 219.62 399.88 216.73 403.12 215.19
  C 412.10 210.92 421.11 210.99 430.15 215.42
  C 430.63 215.66 431.08 215.95 431.49 216.30
  C 433.73 218.20 437.25 220.55 439.08 223.15
  C 444.67 231.09 446.18 239.12 443.59 247.25
  C 442.67 250.12 442.23 252.37 442.26 254.00
  C 442.40 261.66 445.38 268.07 449.92 274.36
  C 454.32 280.46 462.76 286.73 470.47 283.48
  C 472.09 282.79 474.25 280.91 476.94 277.83
  C 482.30 271.68 486.72 267.14 490.20 264.19
  C 509.27 248.06 528.22 233.91 543.14 215.66
  C 556.71 199.07 564.81 180.15 567.44 158.90
  C 567.48 158.56 567.93 158.46 568.12 158.75
  C 568.44 159.26 568.72 160.03 568.95 161.06
  C 570.73 168.93 571.58 176.41 571.51 183.50
  C 571.32 202.01 563.29 221.79 552.97 236.24
  C 544.98 247.44 535.67 257.62 525.04 266.78
  C 524.86 266.94 524.72 267.15 524.62 267.40
  C 524.52 267.65 524.80 267.89 525.04 267.76
  C 535.44 262.13 546.47 257.08 558.14 252.61
  C 568.48 248.64 578.61 242.73 588.53 234.86
  C 597.06 228.09 604.52 219.08 611.99 209.98
  C 612.18 209.75 612.54 209.92 612.49 210.21
  C 607.95 235.39 595.16 254.31 574.31 268.69
  C 563.09 276.43 550.72 282.72 538.13 288.74
  C 537.94 288.83 537.84 289.05 537.91 289.25
  C 537.97 289.45 538.17 289.58 538.38 289.54
  C 546.63 288.09 557.17 286.00 570.00 283.25
  C 584.62 280.12 597.91 276.49 609.87 272.35
  C 626.12 266.73 641.05 258.91 654.65 248.89
  C 654.83 248.75 655.08 248.95 654.98 249.15
  C 650.75 257.92 643.59 265.96 635.48 273.75
  C 613.75 294.64 584.67 308.01 555.23 313.88
  C 548.85 315.15 542.20 315.64 535.16 316.21
  C 534.73 316.24 534.66 316.84 535.07 316.98
  C 545.43 320.55 554.81 323.81 563.20 326.76
  C 579.62 332.55 595.54 337.06 612.00 338.04
  C 617.05 338.34 620.71 338.56 622.99 338.71
  C 623.29 338.73 623.37 339.13 623.10 339.27
  C 603.49 349.11 582.70 352.21 560.73 348.57
  C 545.46 346.04 530.81 341.27 516.79 334.28
  C 516.27 334.02 515.79 334.68 516.18 335.10
  C 517.71 336.76 519.18 338.28 520.61 339.66
  C 526.43 345.29 531.94 351.99 541.12 362.49
  C 547.98 370.33 553.98 376.18 561.67 383.53
  C 561.94 383.78 561.71 384.23 561.35 384.16
  C 552.94 382.59 544.59 379.89 536.30 376.06
  C 522.42 369.64 507.97 357.89 497.06 346.17
  C 487.59 335.99 482.21 330.22 480.92 328.87
  C 477.55 325.35 473.52 324.02 468.83 324.89
  C 455.46 327.37 452.37 351.69 451.57 362.70
  C 450.76 373.82 450.33 388.99 462.85 394.36
  C 464.38 395.02 465.77 395.04 467.02 394.43
  C 478.29 388.90 490.10 387.79 502.43 391.11
  C 510.84 393.38 518.71 397.03 526.06 402.08
  C 526.13 402.13 526.09 402.24 526.01 402.24
  L 493.76 403.78
  C 493.51 403.79 493.30 403.99 493.27 404.24
  C 493.24 404.49 493.40 404.73 493.64 404.80
  C 497.29 405.91 503.37 407.70 507.91 410.18
  C 513.44 413.21 518.76 416.78 523.85 420.91
  C 530.83 426.57 538.14 432.76 545.77 439.48
  C 545.97 439.66 545.97 439.97 545.76 440.14
  L 538.87 445.86
  C 538.58 446.11 538.18 446.19 537.81 446.07
  C 525.02 442.08 511.88 436.52 498.38 429.39
  C 498.06 429.22 497.77 429.15 497.51 429.16
  C 497.09 429.19 496.86 429.67 497.10 430.01
  C 498.67 432.20 502.02 435.78 504.02 438.65
  C 512.17 450.36 519.53 463.30 527.70 475.65
  C 530.20 479.44 533.39 482.93 535.29 486.64
  Z
  M 336.08 327.48
  L 335.44 329.40
  C 335.40 329.52 335.45 329.64 335.56 329.70
  C 335.67 329.75 335.80 329.71 335.87 329.61
  L 337.34 327.31
  C 339.86 324.12 342.43 321.37 345.06 319.05
  C 352.67 312.31 364.20 311.55 371.90 318.72
  C 373.46 320.18 375.17 321.97 377.02 324.09
  C 377.25 324.36 377.69 324.10 377.56 323.77
  C 375.73 319.01 373.00 314.99 369.36 311.70
  C 365.64 308.34 360.72 306.79 357.09 303.33
  C 353.86 300.24 352.35 297.46 349.84 292.30
  C 344.84 282.07 337.56 275.14 328.93 267.08
  C 327.53 265.77 321.48 260.43 310.78 251.07
  C 299.95 241.59 289.83 231.00 280.41 219.31
  C 279.18 217.78 277.96 216.07 276.73 214.19
  C 274.42 210.65 273.27 208.88 273.26 208.88
  C 273.07 208.73 272.79 208.87 272.79 209.11
  C 272.80 209.80 273.10 210.80 273.70 212.10
  C 283.73 233.97 297.99 248.80 317.22 268.62
  C 320.95 272.47 324.08 275.85 326.61 278.78
  C 334.57 287.98 340.22 294.29 340.92 304.99
  C 341.41 312.54 339.80 320.03 336.08 327.48
  Z
  M 493.96 327.19
  C 494.33 327.96 494.82 328.60 495.43 329.09
  C 495.58 329.21 495.80 329.08 495.75 328.90
  C 495.56 328.15 495.16 327.44 494.54 326.78
  C 492.95 322.22 491.99 319.31 491.65 318.06
  C 489.04 308.45 490.09 299.47 494.78 291.13
  C 497.13 286.95 500.52 283.81 503.51 280.00
  C 504.73 278.46 507.10 275.84 510.63 272.13
  C 522.00 260.18 527.77 254.11 527.95 253.92
  C 533.99 247.56 540.41 240.07 544.76 234.01
  C 550.01 226.71 554.66 218.68 558.69 209.91
  C 558.79 209.69 558.71 209.42 558.49 209.30
  L 558.47 209.29
  C 558.26 209.17 557.98 209.23 557.85 209.43
  C 547.97 224.10 536.37 237.30 523.04 249.03
  C 521.66 250.24 515.07 255.91 503.28 266.03
  C 496.21 272.09 490.02 278.85 484.71 286.32
  C 483.51 288.00 482.53 289.59 481.76 291.08
  C 479.71 295.03 477.61 300.41 473.77 303.53
  C 470.30 306.34 465.33 308.47 462.22 311.35
  C 458.29 315.00 455.36 319.12 453.42 323.70
  C 453.23 324.16 453.80 324.55 454.16 324.21
  C 455.89 322.57 457.37 320.37 459.17 318.82
  C 465.14 313.67 471.66 312.27 478.71 314.62
  C 484.49 316.54 489.97 322.26 493.96 327.19
  Z
  M 383.10 310.30
  C 382.66 314.51 382.95 318.77 383.97 323.06
  C 383.90 323.27 383.92 323.62 384.03 324.11
  C 384.23 326.39 384.44 328.04 384.65 329.07
  C 387.28 341.81 391.90 359.32 393.85 373.57
  C 395.23 383.66 396.36 394.71 397.25 406.72
  C 398.22 419.81 398.70 433.00 398.69 446.30
  C 397.05 464.11 392.26 481.46 384.31 498.34
  C 381.02 505.32 378.62 510.23 377.11 513.07
  C 376.68 513.87 376.36 514.71 376.13 515.58
  C 375.70 517.26 375.59 518.36 374.73 520.30
  C 370.72 529.28 367.50 537.00 365.42 546.95
  C 364.36 551.99 364.31 558.58 365.26 566.73
  C 365.41 568.06 365.83 569.15 366.51 570.00
  C 366.62 570.14 366.85 570.05 366.84 569.87
  C 366.37 562.64 367.22 555.47 369.39 548.37
  C 372.17 539.26 375.24 531.41 378.61 524.83
  C 384.46 513.40 388.29 505.83 390.12 502.13
  C 403.01 476.08 408.90 448.69 409.65 418.76
  C 409.98 405.25 409.70 390.16 408.80 373.48
  C 408.53 368.33 408.07 363.35 407.44 358.54
  C 406.47 351.20 405.68 346.26 405.05 343.73
  C 403.90 339.06 401.70 331.17 398.43 320.04
  C 396.31 312.83 397.06 304.21 395.94 295.90
  C 395.61 293.43 395.61 291.00 395.96 288.59
  C 397.18 279.99 399.68 272.70 402.67 263.72
  C 404.66 257.73 405.20 251.14 404.29 243.95
  C 403.59 238.48 400.70 233.91 395.61 230.23
  C 395.43 230.10 395.18 230.23 395.18 230.45
  C 395.19 233.11 394.75 235.29 393.84 236.99
  C 393.55 237.53 393.66 238.20 394.09 238.64
  C 399.61 244.17 401.20 250.83 398.87 258.62
  C 397.18 264.29 395.39 268.92 393.50 272.53
  C 387.36 284.29 382.67 297.25 383.10 310.30
  Z
  M 374.47 549.80
  C 374.30 549.95 374.23 550.09 374.24 550.22
  C 374.26 550.37 374.35 550.43 374.51 550.41
  C 374.61 550.40 374.74 550.37 374.89 550.31
  C 379.37 542.29 384.34 534.72 389.81 527.61
  C 394.07 522.04 397.36 517.55 399.67 514.16
  C 403.25 508.90 407.56 502.14 412.61 493.87
  C 421.04 480.04 427.05 465.31 430.64 449.66
  C 433.75 436.07 434.49 420.73 434.88 406.43
  C 435.36 388.82 435.82 378.26 436.25 374.75
  C 437.73 362.72 439.23 353.87 440.75 348.20
  C 443.22 338.95 445.14 331.21 446.50 324.98
  C 446.72 323.98 447.13 319.90 447.73 312.75
  C 447.96 309.99 447.84 307.74 447.37 305.99
  C 447.12 297.35 445.71 290.08 443.12 284.17
  C 438.05 272.59 434.23 265.72 432.36 255.87
  C 430.86 247.95 433.17 244.60 437.77 238.73
  C 438.35 237.99 438.44 236.98 438.01 236.15
  C 437.17 234.54 436.76 232.74 436.78 230.73
  C 436.78 230.45 436.47 230.29 436.24 230.44
  C 430.70 234.14 427.69 239.20 427.22 245.62
  C 426.37 257.04 429.04 264.62 432.81 277.96
  C 436.13 289.71 436.48 301.29 433.86 312.72
  C 433.70 313.44 432.06 318.66 428.93 328.37
  C 423.94 343.88 421.57 359.67 421.84 375.74
  C 422.10 391.29 422.24 399.37 422.25 400.00
  C 422.87 431.13 418.14 461.95 404.80 489.81
  C 400.67 498.42 396.11 506.94 391.11 515.37
  C 383.49 528.21 378.10 537.45 374.47 549.80
  Z
  M 302.06 283.83
  C 308.19 286.88 314.96 289.34 322.39 291.23
  C 322.68 291.31 322.91 290.97 322.74 290.72
  C 320.73 287.80 318.26 285.29 315.32 283.18
  C 309.23 277.76 302.50 273.24 295.12 269.63
  C 289.39 266.83 285.63 265.07 283.86 264.36
  C 271.95 259.57 261.00 255.07 251.03 250.86
  C 250.88 250.80 250.70 250.85 250.60 250.99
  C 250.51 251.13 250.54 251.32 250.66 251.43
  C 261.56 261.49 273.47 270.12 286.40 277.33
  C 291.92 280.40 297.14 282.57 302.06 283.83
  Z
  M 514.93 283.94
  L 508.44 290.61
  C 508.23 290.83 508.46 291.19 508.75 291.09
  L 527.53 284.66
  L 528.13 284.24
  C 533.23 282.75 537.66 281.06 541.41 279.18
  C 555.63 272.06 568.57 262.95 580.23 251.86
  C 580.50 251.60 580.21 251.16 579.86 251.31
  C 571.95 254.75 566.41 257.16 558.69 260.08
  C 551.87 262.66 544.09 266.00 535.34 270.11
  C 527.57 273.76 520.77 278.37 514.93 283.94
  Z
  M 229.17 286.27
  C 247.33 298.55 266.86 305.87 287.75 308.22
  C 294.99 309.04 302.99 308.74 311.75 307.32
  L 312.80 307.07
  C 313.23 307.08 313.65 306.99 314.06 306.81
  L 318.63 305.70
  C 318.86 305.64 318.89 305.32 318.67 305.23
  C 307.12 300.48 300.17 299.25 282.75 294.98
  C 280.54 294.44 278.30 294.04 276.04 293.77
  L 229.57 285.00
  L 227.91 284.68
  C 227.68 284.64 227.51 284.90 227.65 285.09
  C 227.98 285.55 228.48 285.94 229.17 286.27
  Z
  M 600.39 285.44
  L 555.02 294.06
  L 554.01 294.35
  C 553.34 294.30 552.33 294.43 550.99 294.72
  C 538.33 297.55 528.42 300.07 521.25 302.28
  C 518.47 303.14 515.94 304.38 513.21 305.20
  C 512.93 305.28 512.90 305.67 513.17 305.80
  C 514.39 306.36 515.48 306.46 516.45 306.09
  C 520.54 307.48 524.75 308.17 529.08 308.14
  C 542.29 309.11 555.73 307.20 569.39 302.39
  C 581.51 298.13 592.17 292.85 601.38 286.54
  C 602.29 286.25 603.01 285.82 603.53 285.26
  C 603.67 285.11 603.54 284.86 603.34 284.90
  L 600.39 285.44
  Z
  M 298.77 324.10
  C 292.98 325.47 288.75 326.72 286.10 327.83
  C 273.79 332.98 262.24 337.75 251.44 342.14
  C 251.13 342.27 251.23 342.73 251.56 342.72
  C 265.08 342.47 278.47 340.32 291.33 336.86
  C 294.38 336.04 298.59 334.41 303.98 331.96
  C 309.11 329.63 313.45 326.98 317.02 324.02
  L 322.14 319.79
  C 322.44 319.55 322.22 319.07 321.84 319.12
  C 313.89 320.26 306.20 321.92 298.77 324.10
  Z
  M 516.12 325.32
  L 516.95 325.94
  C 518.48 327.21 520.61 328.53 523.32 329.89
  C 531.63 334.06 539.62 336.98 547.28 338.64
  C 558.01 340.97 568.71 342.29 579.39 342.60
  C 579.60 342.61 579.79 342.46 579.83 342.25
  C 579.87 342.04 579.76 341.83 579.56 341.76
  C 569.04 337.79 558.13 333.33 546.83 328.39
  C 544.61 327.42 539.74 325.91 532.22 323.88
  C 531.99 323.90 531.76 323.87 531.51 323.79
  C 524.28 321.82 516.96 320.34 509.55 319.37
  C 509.32 319.34 509.20 319.63 509.38 319.78
  L 516.12 325.32
  Z
  M 310.78 350.02
  C 306.37 354.98 301.72 360.34 296.85 366.10
  C 296.62 366.37 296.49 366.61 296.48 366.81
  C 296.46 367.14 296.82 367.34 297.10 367.17
  C 303.58 363.18 309.24 358.44 314.11 352.97
  C 318.97 347.50 323.00 341.31 326.20 334.41
  C 326.34 334.11 326.09 333.78 325.77 333.84
  C 325.57 333.87 325.35 334.02 325.10 334.28
  C 319.96 339.81 315.19 345.05 310.78 350.02
  Z
  M 535.09 366.41
  L 505.96 334.05
  C 505.89 333.98 505.77 333.97 505.69 334.04
  L 505.51 334.20
  C 504.19 335.39 509.14 343.03 516.57 351.28
  L 519.07 354.06
  C 526.49 362.30 533.58 368.03 534.90 366.84
  L 535.08 366.68
  C 535.15 366.61 535.16 366.49 535.09 366.41
  Z
  M 467.94 423.71
  C 467.97 424.45 468.11 424.99 468.36 425.33
  C 468.50 425.53 468.81 425.43 468.82 425.19
  C 468.85 424.64 468.75 424.06 468.50 423.45
  C 468.20 415.84 466.22 407.23 473.50 402.13
  C 473.96 401.81 473.64 401.08 473.09 401.21
  C 470.97 401.72 468.04 402.84 466.07 402.85
  C 456.37 402.91 449.62 395.60 447.38 386.62
  C 447.07 385.37 446.66 383.58 446.16 381.23
  C 446.12 381.05 445.96 380.92 445.77 380.93
  C 445.58 380.93 445.43 381.08 445.41 381.26
  C 444.30 390.70 446.46 401.62 456.09 405.86
  C 461.01 408.04 463.64 410.81 465.19 415.52
  C 466.09 418.27 467.01 421.00 467.94 423.71
  Z
  M 384.67 382.20
  C 382.55 395.80 372.59 406.91 357.78 401.27
  C 357.58 401.19 357.35 401.27 357.24 401.46
  C 357.13 401.65 357.17 401.89 357.34 402.03
  C 363.57 407.17 363.54 414.38 362.63 421.77
  C 362.38 422.80 362.32 423.79 362.47 424.72
  C 362.50 424.89 362.73 424.93 362.80 424.77
  C 363.07 424.17 363.22 423.49 363.23 422.74
  C 365.00 417.58 365.37 413.20 369.76 408.94
  C 371.80 406.97 375.50 405.78 377.57 404.33
  C 384.81 399.23 385.91 389.87 385.35 382.23
  L 385.22 381.83
  C 385.16 381.66 384.94 381.65 384.86 381.80
  L 384.67 382.20
  Z
  M 335.16 395.95
  L 334.54 396.01
  L 325.70 397.52
  C 325.56 397.54 325.45 397.67 325.46 397.82
  C 325.46 397.96 325.57 398.08 325.71 398.10
  L 332.54 399.02
  L 351.57 400.39
  C 351.62 400.36 351.66 400.34 351.71 400.31
  C 351.94 400.40 352.19 400.46 352.46 400.47
  L 352.96 400.55
  C 353.18 400.79 353.45 400.92 353.76 400.95
  C 354.02 400.97 354.20 400.69 354.07 400.46
  C 353.98 400.32 353.79 400.23 353.49 400.19
  C 353.26 399.84 352.87 399.47 352.32 399.06
  C 347.03 396.27 341.31 395.23 335.16 395.95
  Z
  M 505.77 397.57
  C 500.36 395.98 494.43 395.47 487.96 396.03
  C 485.08 396.28 478.06 397.90 476.43 400.69
  C 476.31 400.89 476.47 401.13 476.70 401.11
  L 505.71 398.18
  C 506.05 398.15 506.10 397.67 505.77 397.57
  Z
  M 327.05 415.68
  C 323.86 416.72 321.41 417.89 319.70 419.19
  C 312.44 424.69 305.31 430.55 298.30 436.77
  C 297.98 437.06 298.15 437.59 298.58 437.63
  C 298.81 437.66 299.10 437.60 299.45 437.46
  C 306.69 434.61 315.08 431.09 324.63 426.88
  C 327.36 425.67 331.25 423.32 336.29 419.82
  L 348.46 410.82
  C 348.72 410.63 348.58 410.22 348.26 410.22
  C 340.19 410.23 333.12 412.05 327.05 415.68
  Z
  M 491.39 417.17
  L 493.43 418.81
  C 497.34 422.02 501.61 424.66 506.23 426.75
  C 515.72 431.04 524.54 434.82 532.70 438.10
  C 533.09 438.26 533.44 437.79 533.18 437.46
  C 532.58 436.69 531.81 435.91 530.87 435.13
  C 525.93 430.98 521.11 426.97 516.40 423.10
  C 510.65 418.37 504.27 414.91 497.26 412.70
  C 496.49 412.27 495.66 411.99 494.77 411.85
  C 490.94 410.71 487.06 410.19 483.11 410.30
  C 482.78 410.31 482.62 410.71 482.86 410.94
  C 485.47 413.47 488.32 415.54 491.39 417.17
  Z
  M 342.51 430.80
  C 336.12 436.41 330.87 442.75 326.77 449.81
  C 323.72 455.06 320.08 461.40 315.85 468.84
  C 315.70 469.11 315.91 469.43 316.22 469.40
  C 316.56 469.37 316.85 469.26 317.09 469.09
  C 320.92 466.34 325.68 462.42 331.35 457.34
  C 338.98 450.51 345.24 442.69 350.13 433.87
  C 351.81 430.84 352.67 427.98 352.70 425.27
  C 353.50 424.62 353.93 423.56 354.00 422.08
  C 354.01 421.86 353.78 421.73 353.59 421.84
  C 349.28 424.49 345.58 427.47 342.51 430.80
  Z
  M 477.85 425.41
  C 477.91 429.93 481.86 436.78 483.80 439.44
  C 492.44 451.29 502.49 461.23 513.95 469.28
  C 514.34 469.56 514.85 469.14 514.65 468.70
  C 513.26 465.61 512.12 463.31 511.23 461.81
  C 506.86 454.40 502.19 447.23 497.21 440.31
  C 493.43 435.05 488.97 430.50 483.84 426.67
  L 483.22 426.16
  L 477.40 421.56
  C 477.17 421.38 476.84 421.54 476.84 421.83
  C 476.86 423.33 477.20 424.52 477.85 425.41
  Z"
/>
<path d="
  M 445.17 192.08
  C 445.39 191.74 445.92 191.94 445.87 192.34
  C 444.74 200.79 442.13 208.80 438.03 216.39
  C 437.99 216.47 437.88 216.50 437.80 216.45
  L 431.99 212.61
  C 431.85 212.51 431.81 212.31 431.90 212.17
  L 445.17 192.08
  Z"
/>
<path d="
  M 387.30 192.68
  L 400.53 212.32
  C 400.62 212.46 400.59 212.66 400.45 212.76
  L 394.77 216.58
  C 394.69 216.63 394.58 216.61 394.54 216.53
  C 390.44 209.10 387.80 201.24 386.62 192.94
  C 386.56 192.55 387.08 192.35 387.30 192.68
  Z"
/>
<path d="
  M 171.73 263.94
  C 171.78 263.76 171.99 263.70 172.13 263.83
  L 186.48 277.04
  C 187.08 277.59 187.39 278.40 187.31 279.22
  C 179.13 357.58 210.82 432.93 269.37 484.88
  C 286.50 500.08 305.31 512.84 325.79 523.16
  C 326.08 523.31 325.99 523.75 325.67 523.76
  L 301.93 524.90
  C 301.61 524.91 301.29 524.84 301.01 524.69
  C 240.02 491.44 194.45 436.95 176.72 369.77
  C 171.72 350.84 168.96 332.26 168.43 314.01
  C 168.02 299.92 168.68 285.65 170.41 271.20
  C 170.74 268.39 171.18 265.97 171.73 263.94
  Z"
/>
<path d="
  M 693.49 552.30
  C 693.57 552.34 693.60 552.43 693.57 552.51
  L 693.57 552.52
  C 693.54 552.58 693.47 552.61 693.41 552.59
  C 668.18 544.24 642.62 542.07 616.75 546.09
  C 596.71 549.21 581.03 554.28 558.56 561.04
  C 541.13 566.29 523.62 569.87 506.02 571.79
  C 481.51 574.46 457.92 572.53 433.31 568.65
  C 413.72 565.56 397.38 562.96 384.31 560.85
  C 384.05 560.81 383.90 560.54 383.99 560.30
  C 386.59 553.58 390.16 547.46 394.69 541.94
  C 395.00 541.56 395.49 541.39 395.97 541.49
  C 416.00 545.66 435.39 548.86 454.14 551.09
  C 483.97 554.65 514.46 551.04 543.44 539.66
  C 571.36 528.69 599.32 504.95 601.81 472.94
  C 601.85 472.45 602.48 472.27 602.76 472.68
  C 606.92 478.79 610.78 484.75 614.35 490.57
  C 617.81 496.22 621.64 501.27 625.54 506.49
  C 635.60 519.94 650.21 530.87 665.36 538.38
  C 676.56 543.93 685.94 548.57 693.49 552.30
  Z"
/>
<path d="
  M 222.03 564.38
  C 221.86 564.42 221.75 564.20 221.89 564.09
  C 231.41 556.74 241.59 550.95 252.44 546.73
  C 283.77 534.52 318.50 531.16 352.50 535.02
  C 353.59 535.15 354.34 535.28 354.74 535.42
  C 355.15 535.57 355.37 536.03 355.22 536.44
  C 352.98 542.76 351.93 549.26 352.08 555.93
  C 352.09 556.20 351.85 556.40 351.59 556.36
  C 337.22 554.23 322.46 553.10 307.31 552.99
  C 293.27 552.89 278.94 553.88 264.31 555.95
  C 250.87 557.86 236.78 560.67 222.03 564.38
  Z"
/>
<path d="
  M 81.73 698.91
  C 93.82 661.96 105.17 627.08 115.76 594.29
  C 116.22 592.87 117.21 592.16 118.72 592.15
  C 129.43 592.08 139.85 592.09 150.00 592.16
  C 150.65 592.17 151.19 592.25 151.61 592.41
  C 152.00 592.56 152.20 592.99 152.07 593.39
  L 125.38 674.57
  C 125.22 675.06 125.58 675.57 126.10 675.57
  L 196.28 675.57
  C 196.71 675.57 197.01 675.99 196.88 676.39
  L 189.54 698.71
  C 189.38 699.18 188.95 699.49 188.47 699.49
  L 82.14 699.49
  C 81.84 699.49 81.64 699.20 81.73 698.91
  Z"
/>
<path d="
  M 225.39 698.52
  C 216.93 696.03 210.32 690.86 209.60 681.37
  C 209.42 678.97 210.12 675.36 211.71 670.55
  C 215.62 658.69 221.19 641.15 228.44 617.94
  C 231.60 607.83 238.00 600.56 247.63 596.15
  C 253.38 593.52 259.58 592.19 266.25 592.18
  C 297.64 592.11 324.05 592.11 345.47 592.18
  C 352.40 592.20 361.92 596.09 365.17 602.99
  C 367.99 608.96 367.45 614.07 365.56 620.30
  C 363.93 625.69 359.42 639.91 352.05 662.98
  C 349.25 671.74 347.38 681.73 340.78 688.54
  C 333.38 696.17 324.32 699.84 313.60 699.56
  C 312.69 699.53 311.29 699.52 309.40 699.53
  C 287.39 699.59 264.00 699.61 239.25 699.59
  C 232.42 699.58 227.80 699.23 225.39 698.52
  Z
  M 328.58 623.64
  C 329.23 621.63 328.40 619.10 326.47 618.05
  C 324.53 616.99 322.16 617.20 319.91 617.21
  C 310.42 617.26 294.37 617.27 271.78 617.24
  C 269.28 617.23 267.00 618.16 264.95 620.03
  C 263.66 621.20 262.54 623.39 261.58 626.62
  C 258.43 637.17 254.34 650.08 249.30 665.37
  C 248.53 667.71 248.17 669.36 248.21 670.33
  C 248.46 675.63 253.15 675.64 258.07 675.61
  C 273.65 675.51 288.37 675.51 302.24 675.62
  C 305.35 675.64 307.63 675.20 309.08 674.30
  C 311.73 672.67 313.56 670.17 314.57 666.80
  C 314.92 665.63 319.59 651.24 328.58 623.64
  Z"
/>
<path d="
  M 429.51 657.95
  C 429.28 657.95 429.12 657.72 429.19 657.50
  L 436.05 636.64
  C 436.34 635.77 437.15 635.18 438.07 635.18
  L 507.68 635.18
  C 508.20 635.18 508.56 635.69 508.39 636.18
  C 501.56 656.05 497.40 668.34 495.91 673.06
  C 493.56 680.51 491.42 685.47 489.49 687.94
  C 485.68 692.80 480.86 696.24 475.05 698.25
  C 472.36 699.18 468.44 699.64 463.27 699.61
  C 454.76 699.57 431.85 699.57 394.56 699.61
  C 386.23 699.62 381.37 699.48 379.98 699.17
  C 374.75 698.02 370.48 695.74 367.17 692.33
  C 361.60 686.59 361.76 678.67 364.08 671.60
  C 372.53 645.75 378.04 628.57 380.61 620.06
  C 383.96 608.93 391.06 600.97 401.91 596.16
  C 409.61 592.74 416.33 591.98 425.23 591.97
  C 470.32 591.95 493.91 591.96 495.98 592.00
  C 512.95 592.31 519.04 604.80 512.56 619.95
  C 512.21 620.77 511.41 621.31 510.51 621.33
  C 503.40 621.50 495.73 621.48 487.52 621.28
  C 484.64 621.21 482.05 620.97 479.76 620.56
  C 479.44 620.50 479.13 620.36 478.87 620.16
  C 477.28 618.93 476.15 618.29 475.48 618.24
  C 469.62 617.87 464.26 617.32 458.44 617.28
  C 442.89 617.17 432.26 617.16 426.54 617.27
  C 421.37 617.36 417.98 619.71 416.39 624.34
  C 414.59 629.54 409.84 643.47 402.13 666.14
  C 401.14 669.04 400.84 670.98 401.21 671.96
  C 402.29 674.78 404.69 675.58 407.77 675.57
  C 434.04 675.52 448.15 675.52 450.11 675.58
  C 455.98 675.76 459.95 674.65 462.01 669.26
  C 463.01 666.64 464.20 663.09 465.58 658.61
  C 465.68 658.28 465.43 657.95 465.09 657.95
  L 429.51 657.95
  Z"
/>
<path d="
  M 518.37 658.21
  L 525.79 635.62
  C 525.87 635.39 526.08 635.23 526.33 635.23
  L 578.87 635.23
  C 579.25 635.23 579.52 635.60 579.40 635.96
  L 571.97 658.55
  C 571.89 658.78 571.68 658.94 571.43 658.94
  L 518.90 658.94
  C 518.52 658.94 518.25 658.57 518.37 658.21
  Z"
/>
<path d="
  M 189.58 731.60
  C 189.70 732.00 189.45 732.41 189.04 732.49
  L 185.38 733.22
  C 185.07 733.28 184.75 733.17 184.54 732.94
  C 182.90 731.05 181.41 729.73 178.72 730.76
  C 175.98 731.81 176.47 734.70 179.02 735.87
  C 183.64 737.99 189.92 737.33 190.34 744.29
  C 190.81 752.02 182.53 754.06 176.70 752.36
  C 173.29 751.36 171.19 749.16 170.41 745.74
  C 170.33 745.38 170.58 745.03 170.94 744.99
  L 174.32 744.61
  C 174.83 744.55 175.34 744.75 175.68 745.14
  L 177.17 746.90
  C 177.26 747.02 177.38 747.12 177.51 747.19
  C 179.28 748.21 180.94 748.38 182.50 747.72
  C 185.25 746.54 185.26 743.72 182.42 742.45
  C 179.98 741.37 175.65 741.06 173.06 738.50
  C 170.89 736.36 170.72 732.33 172.08 729.85
  C 175.53 723.56 187.45 724.45 189.58 731.60
  Z"
/>
<path d="
  M 482.31 739.36
  C 482.36 745.21 486.60 749.62 492.42 746.79
  C 493.40 746.31 494.54 744.60 495.34 743.71
  C 495.60 743.42 495.99 743.31 496.35 743.43
  L 500.08 744.61
  C 500.60 744.78 500.84 745.39 500.56 745.87
  C 493.37 758.00 476.66 753.81 476.55 739.40
  C 476.43 725.00 493.08 720.54 500.45 732.56
  C 500.74 733.03 500.52 733.65 499.99 733.83
  L 496.28 735.06
  C 495.93 735.19 495.53 735.08 495.27 734.80
  C 494.46 733.92 493.29 732.23 492.30 731.77
  C 486.44 729.03 482.27 733.50 482.31 739.36
  Z"
/>
<path d="
  M 621.01 732.58
  L 617.34 733.26
  C 617.03 733.32 616.71 733.21 616.50 732.97
  C 614.89 731.07 613.41 729.73 610.71 730.73
  C 607.96 731.74 608.42 734.64 610.95 735.84
  C 615.54 738.01 621.83 737.43 622.17 744.39
  C 622.55 752.12 614.25 754.06 608.44 752.29
  C 605.04 751.26 602.97 749.03 602.23 745.60
  C 602.16 745.24 602.41 744.90 602.77 744.86
  L 606.15 744.52
  C 606.66 744.46 607.17 744.67 607.50 745.07
  L 608.97 746.84
  C 609.06 746.96 609.18 747.06 609.31 747.14
  C 611.06 748.17 612.72 748.37 614.29 747.72
  C 617.05 746.58 617.10 743.76 614.27 742.46
  C 611.85 741.35 607.52 740.99 604.96 738.40
  C 602.82 736.23 602.70 732.20 604.09 729.74
  C 607.61 723.49 619.51 724.52 621.56 731.69
  C 621.68 732.09 621.42 732.51 621.01 732.58
  Z"
/>
<path d="
  M 676.2003 725.4605
  C 683.29 725.52 688.98 731.75 688.9095 739.3620
  C 688.84 746.98 683.05 753.10 675.9597 753.0395
  C 668.87 752.98 663.18 746.75 663.2505 739.1380
  C 663.32 731.52 669.11 725.40 676.2003 725.4605
  Z
  M 676.1059 730.8301
  C 672.36 730.85 669.34 734.64 669.3601 739.2956
  C 669.38 743.95 672.44 747.71 676.1941 747.6899
  C 679.94 747.67 682.96 743.88 682.9399 739.2244
  C 682.92 734.57 679.86 730.81 676.1059 730.8301
  Z"
/>
<path d="
  M 204.97 739.38
  C 205.03 745.00 209.13 749.60 214.87 746.76
  C 215.50 746.45 216.05 745.97 216.44 745.37
  L 217.51 743.75
  C 217.76 743.37 218.24 743.20 218.68 743.34
  L 222.66 744.61
  C 223.14 744.76 223.38 745.31 223.16 745.77
  C 220.91 750.56 217.11 752.92 211.77 752.85
  C 204.01 752.76 199.17 746.93 199.08 739.45
  C 199.00 731.97 203.72 726.03 211.47 725.77
  C 216.81 725.59 220.66 727.86 223.02 732.60
  C 223.24 733.06 223.02 733.61 222.54 733.77
  L 218.59 735.13
  C 218.16 735.28 217.67 735.12 217.41 734.74
  L 216.31 733.15
  C 215.90 732.56 215.35 732.09 214.70 731.79
  C 208.91 729.08 204.91 733.77 204.97 739.38
  Z"
/>
<path d="
  M 361.33 731.59
  C 361.46 731.99 361.21 732.41 360.80 732.49
  L 357.14 733.21
  C 356.83 733.27 356.51 733.17 356.30 732.93
  C 354.66 731.06 353.17 729.74 350.48 730.77
  C 347.75 731.82 348.25 734.71 350.79 735.87
  C 355.40 737.98 361.68 737.32 362.11 744.27
  C 362.59 751.98 354.32 754.03 348.50 752.33
  C 345.09 751.35 342.99 749.15 342.21 745.73
  C 342.13 745.38 342.37 745.03 342.74 744.99
  L 346.11 744.60
  C 346.62 744.54 347.13 744.74 347.46 745.14
  L 348.95 746.88
  C 349.05 747.00 349.17 747.10 349.30 747.18
  C 351.06 748.19 352.72 748.36 354.28 747.69
  C 357.02 746.52 357.03 743.70 354.19 742.44
  C 351.76 741.36 347.43 741.06 344.84 738.51
  C 342.68 736.37 342.50 732.34 343.86 729.87
  C 347.29 723.58 359.19 724.46 361.33 731.59
  Z"
/>
<path d="
  M 555.62 731.58
  C 555.74 731.98 555.48 732.40 555.07 732.47
  L 551.40 733.19
  C 551.09 733.24 550.77 733.14 550.56 732.90
  C 548.93 731.01 547.44 729.68 544.74 730.71
  C 541.99 731.74 542.48 734.64 545.02 735.82
  C 549.64 737.96 555.93 737.33 556.33 744.29
  C 556.78 752.03 548.48 754.04 542.65 752.32
  C 539.23 751.31 537.14 749.10 536.37 745.67
  C 536.29 745.31 536.54 744.97 536.90 744.92
  L 540.29 744.56
  C 540.80 744.50 541.31 744.70 541.64 745.10
  L 543.13 746.86
  C 543.22 746.98 543.34 747.08 543.47 747.15
  C 545.24 748.17 546.90 748.35 548.47 747.69
  C 551.22 746.53 551.25 743.70 548.40 742.43
  C 545.97 741.33 541.63 741.01 539.05 738.44
  C 536.88 736.28 536.73 732.25 538.10 729.77
  C 541.58 723.48 553.50 724.41 555.62 731.58
  Z"
/>
<path d="
  M 243.88 747.67
  C 246.95 747.66 248.63 745.50 248.66 742.52
  C 248.68 739.94 248.64 734.72 248.55 726.86
  C 248.54 726.42 248.90 726.06 249.33 726.06
  L 253.70 726.06
  C 254.14 726.06 254.50 726.41 254.51 726.86
  C 254.68 735.21 254.61 741.15 254.31 744.68
  C 253.82 750.37 249.26 752.78 243.89 752.79
  C 238.53 752.80 233.95 750.42 233.44 744.74
  C 233.12 741.21 233.02 735.27 233.15 726.91
  C 233.15 726.47 233.51 726.11 233.95 726.11
  L 238.32 726.09
  C 238.76 726.09 239.11 726.44 239.11 726.88
  C 239.05 734.74 239.04 739.97 239.08 742.55
  C 239.12 745.52 240.81 747.67 243.88 747.67
  Z"
/>
<path d="
  M 265.90 726.72
  C 265.90 726.44 266.11 726.22 266.39 726.20
  C 271.05 725.97 275.13 725.96 278.63 726.17
  C 284.91 726.54 288.33 734.09 282.53 738.02
  C 282.21 738.24 282.21 738.71 282.53 738.93
  C 289.50 743.62 285.86 752.28 277.99 752.43
  C 276.28 752.46 272.52 752.48 266.69 752.49
  C 266.26 752.50 265.90 752.14 265.90 751.71
  L 265.90 726.72
  Z
  M 271.56 731.62
  L 271.52 736.04
  C 271.52 736.42 271.82 736.73 272.19 736.73
  L 275.83 736.76
  C 277.91 736.78 279.61 735.55 279.62 734.01
  L 279.62 733.81
  C 279.63 732.26 277.96 731.00 275.89 730.98
  L 272.25 730.95
  C 271.87 730.95 271.56 731.25 271.56 731.62
  Z
  M 271.61 741.85
  L 271.61 746.71
  C 271.61 747.12 271.95 747.46 272.37 747.46
  L 276.79 747.45
  C 278.75 747.45 280.33 746.08 280.33 744.40
  L 280.33 744.12
  C 280.33 742.44 278.74 741.09 276.77 741.09
  L 272.35 741.10
  C 271.94 741.10 271.61 741.43 271.61 741.85
  Z"
/>
<path d="
  M 306.58 726.03
  C 307.57 726.04 308.36 726.08 308.96 726.16
  C 309.68 726.27 310.29 726.77 310.53 727.46
  L 318.77 751.50
  C 318.95 752.02 318.57 752.56 318.02 752.56
  L 314.42 752.56
  C 313.69 752.56 313.04 752.10 312.81 751.41
  L 311.64 748.02
  C 311.52 747.66 311.19 747.42 310.81 747.42
  C 310.48 747.42 309.04 747.41 306.49 747.40
  C 303.93 747.39 302.49 747.38 302.16 747.38
  C 301.79 747.38 301.45 747.62 301.33 747.97
  L 300.13 751.35
  C 299.89 752.04 299.24 752.49 298.51 752.49
  L 294.91 752.46
  C 294.36 752.45 293.98 751.91 294.17 751.39
  L 302.62 727.42
  C 302.87 726.73 303.48 726.24 304.21 726.14
  C 304.80 726.06 305.59 726.03 306.58 726.03
  Z
  M 303.18 741.96
  C 303.09 742.24 303.30 742.53 303.60 742.54
  L 309.29 742.54
  C 309.59 742.55 309.80 742.25 309.71 741.97
  L 306.88 733.34
  C 306.75 732.93 306.18 732.93 306.04 733.34
  L 303.18 741.96
  Z"
/>
<path d="
  M 387.84 739.21
  C 387.84 739.94 387.79 740.62 387.68 741.25
  C 387.64 741.54 387.38 741.76 387.08 741.76
  L 378.51 741.76
  C 378.06 741.76 377.70 742.12 377.70 742.56
  L 377.70 746.41
  C 377.70 746.84 378.04 747.18 378.46 747.18
  L 388.22 747.18
  C 388.70 747.18 389.09 747.57 389.09 748.06
  L 389.09 751.40
  C 389.09 751.97 388.63 752.43 388.06 752.43
  L 372.84 752.43
  C 372.44 752.43 372.11 752.11 372.11 751.71
  C 372.10 751.32 372.09 747.17 372.07 739.25
  C 372.05 731.34 372.04 727.18 372.04 726.80
  C 372.04 726.40 372.37 726.08 372.77 726.07
  L 387.99 726.00
  C 388.56 725.99 389.02 726.45 389.03 727.02
  L 389.04 730.36
  C 389.05 730.85 388.66 731.24 388.18 731.24
  L 378.42 731.29
  C 378.00 731.30 377.66 731.64 377.66 732.07
  L 377.68 735.92
  C 377.69 736.36 378.05 736.72 378.50 736.71
  L 387.07 736.67
  C 387.37 736.67 387.62 736.88 387.67 737.17
  C 387.78 737.80 387.84 738.48 387.84 739.21
  Z"
/>
<path d="
  M 400.42 726.31
  C 404.22 726.02 407.90 725.97 411.47 726.14
  C 416.33 726.39 419.04 728.93 419.59 733.77
  C 419.86 736.09 418.81 739.85 416.34 741.22
  C 415.89 741.47 415.55 741.70 415.34 741.91
  C 415.09 742.16 415.03 742.54 415.19 742.85
  L 419.50 751.56
  C 419.72 752.00 419.40 752.51 418.91 752.51
  L 414.86 752.51
  C 414.02 752.51 413.26 752.03 412.90 751.28
  C 412.00 749.44 410.99 747.14 409.87 744.39
  C 409.17 742.66 407.92 742.15 406.11 742.88
  C 405.80 743.01 405.59 743.31 405.59 743.65
  L 405.59 751.63
  C 405.59 752.13 405.19 752.53 404.69 752.53
  L 400.85 752.53
  C 400.26 752.53 399.78 752.05 399.78 751.46
  L 399.78 727.00
  C 399.78 726.64 400.06 726.34 400.42 726.31
  Z
  M 405.54 731.74
  L 405.62 737.64
  C 405.63 737.94 405.88 738.18 406.18 738.18
  L 409.82 738.13
  C 412.08 738.10 413.89 736.58 413.86 734.73
  L 413.86 734.41
  C 413.83 732.57 411.98 731.10 409.72 731.13
  L 406.08 731.18
  C 405.78 731.18 405.53 731.43 405.54 731.74
  Z"
/>
<path d="
  M 439.29 744.51
  C 439.49 744.51 439.62 744.43 439.67 744.27
  C 441.46 738.65 443.19 733.01 444.84 727.36
  C 445.06 726.62 445.72 726.10 446.49 726.06
  L 450.44 725.87
  C 451.04 725.84 451.49 726.43 451.29 727.00
  L 442.97 751.47
  C 442.79 751.99 442.35 752.38 441.81 752.49
  C 441.62 752.53 440.79 752.55 439.30 752.55
  C 437.82 752.55 436.98 752.54 436.80 752.50
  C 436.26 752.39 435.81 752.00 435.63 751.48
  L 427.26 727.03
  C 427.06 726.46 427.50 725.87 428.11 725.90
  L 432.06 726.08
  C 432.83 726.11 433.49 726.63 433.71 727.37
  C 435.37 733.02 437.11 738.65 438.92 744.27
  C 438.97 744.43 439.10 744.51 439.29 744.51
  Z"
/>
<rect x="-2.99" y="-13.30" transform="translate(463.42,739.25) rotate(-0.1)" width="5.98" height="26.60" rx="0.89"/>
<path d="
  M 510.21 739.23
  C 510.20 731.29 510.19 727.13 510.19 726.74
  C 510.19 726.34 510.52 726.02 510.92 726.01
  L 526.19 725.95
  C 526.76 725.95 527.22 726.41 527.23 726.98
  L 527.24 730.33
  C 527.24 730.82 526.85 731.22 526.37 731.22
  L 516.58 731.26
  C 516.16 731.26 515.82 731.61 515.82 732.03
  L 515.84 735.90
  C 515.84 736.34 516.20 736.70 516.65 736.69
  L 525.25 736.66
  C 525.55 736.66 525.81 736.87 525.85 737.17
  C 525.97 737.80 526.02 738.48 526.02 739.21
  C 526.02 739.94 525.97 740.63 525.86 741.26
  C 525.81 741.55 525.56 741.77 525.26 741.77
  L 516.66 741.76
  C 516.21 741.75 515.85 742.11 515.85 742.56
  L 515.84 746.42
  C 515.84 746.85 516.18 747.19 516.60 747.19
  L 526.39 747.20
  C 526.87 747.20 527.26 747.60 527.26 748.09
  L 527.26 751.44
  C 527.26 752.01 526.80 752.47 526.22 752.47
  L 510.96 752.45
  C 510.55 752.45 510.22 752.13 510.22 751.72
  C 510.22 751.34 510.22 747.18 510.21 739.23
  Z"
/>
<path d="
  M 642.90 736.56
  C 645.31 736.56 646.75 736.55 647.25 736.52
  C 647.56 736.51 647.80 736.26 647.80 735.95
  L 647.80 726.67
  C 647.80 726.30 648.10 725.99 648.48 725.99
  L 652.40 725.99
  C 653.05 725.99 653.59 726.53 653.59 727.19
  C 653.58 731.85 653.57 735.86 653.57 739.22
  C 653.57 742.58 653.58 746.59 653.59 751.25
  C 653.59 751.91 653.06 752.45 652.40 752.45
  L 648.48 752.45
  C 648.10 752.45 647.80 752.15 647.80 751.77
  L 647.80 742.49
  C 647.80 742.18 647.56 741.93 647.25 741.92
  C 646.76 741.90 645.31 741.89 642.90 741.89
  C 640.50 741.89 639.05 741.90 638.56 741.92
  C 638.25 741.93 638.01 742.18 638.01 742.49
  L 638.01 751.77
  C 638.01 752.15 637.71 752.45 637.33 752.45
  L 633.41 752.45
  C 632.75 752.45 632.22 751.91 632.22 751.25
  C 632.23 746.59 632.23 742.58 632.23 739.22
  C 632.23 735.86 632.23 731.85 632.22 727.19
  C 632.22 726.53 632.75 725.99 633.41 725.99
  L 637.33 725.99
  C 637.70 725.99 638.01 726.30 638.01 726.67
  L 638.01 735.95
  C 638.01 736.26 638.25 736.51 638.56 736.53
  C 639.05 736.55 640.50 736.56 642.90 736.56
  Z"
/>
<path d="
  M 704.34 751.45
  C 704.34 752.05 703.86 752.53 703.26 752.53
  L 699.55 752.53
  C 698.94 752.53 698.44 752.03 698.44 751.42
  L 698.44 726.95
  C 698.44 726.53 698.77 726.19 699.19 726.17
  C 704.04 726.00 707.74 725.99 710.31 726.14
  C 716.70 726.50 719.16 733.02 717.21 738.45
  C 715.26 743.88 709.86 743.42 704.97 743.58
  C 704.62 743.59 704.34 743.88 704.34 744.23
  L 704.34 751.45
  Z
  M 704.33 731.98
  L 704.39 737.90
  C 704.40 738.36 704.77 738.73 705.23 738.72
  L 708.02 738.69
  C 710.31 738.67 712.14 737.03 712.12 735.04
  L 712.12 734.68
  C 712.10 732.69 710.23 731.09 707.94 731.11
  L 705.15 731.14
  C 704.69 731.15 704.32 731.52 704.33 731.98
  Z"
/>
</g>
<g fill="#ef100b">
<path d="
  M 472.56 188.00
  C 440.16 175.31 403.94 175.25 370.51 184.79
  C 366.67 185.89 363.64 186.98 361.43 188.07
  C 360.37 188.59 359.13 187.82 359.13 186.63
  L 359.13 183.42
  C 359.13 182.15 359.94 181.02 361.14 180.61
  C 368.95 177.94 376.90 175.85 385.01 174.32
  C 388.66 173.64 395.08 172.74 404.28 171.62
  C 407.97 171.17 413.86 171.02 421.95 171.16
  C 428.38 171.27 434.25 171.73 439.54 172.56
  C 451.09 174.36 462.17 177.16 472.78 180.95
  C 473.25 181.12 473.56 181.57 473.56 182.07
  L 473.56 187.32
  C 473.56 187.84 473.04 188.19 472.56 188.00
  Z"
/>
<path d="
  M 360.33 216.39
  C 361.46 218.47 362.44 220.34 363.26 222.00
  C 367.31 230.18 373.61 235.60 382.18 238.26
  C 382.40 238.33 382.56 238.52 382.60 238.75
  L 383.78 246.71
  C 383.80 246.84 383.68 246.95 383.55 246.93
  C 378.32 245.93 373.84 243.65 370.11 240.09
  C 364.78 235.00 362.48 229.29 360.63 222.27
  C 360.00 219.92 359.71 218.01 359.74 216.54
  C 359.75 216.22 360.18 216.11 360.33 216.39
  Z"
/>
<path d="
  M 471.72 216.39
  C 471.88 216.10 472.31 216.22 472.31 216.54
  C 472.32 218.02 472.00 219.94 471.34 222.30
  C 469.39 229.34 467.01 235.06 461.58 240.11
  C 457.78 243.65 453.25 245.89 447.97 246.83
  C 447.83 246.85 447.72 246.73 447.74 246.60
  L 449.03 238.61
  C 449.07 238.38 449.23 238.19 449.45 238.12
  C 458.11 235.55 464.52 230.17 468.70 221.99
  C 469.54 220.33 470.55 218.46 471.72 216.39
  Z"
/>
<path d="
  M 657.35 287.54
  L 657.39 289.71
  L 657.60 294.82
  L 657.67 298.95
  C 657.23 343.68 644.53 387.57 624.39 427.43
  C 622.74 430.70 621.52 432.94 620.74 434.15
  C 620.19 435.00 619.06 435.24 618.21 434.68
  L 614.16 432.00
  C 613.28 431.42 612.97 430.29 613.42 429.34
  C 618.45 418.89 621.76 411.82 623.37 408.13
  C 628.32 396.74 633.92 380.48 636.81 366.95
  C 640.08 351.62 642.05 341.22 642.70 335.75
  C 644.85 317.60 645.01 299.43 643.18 281.25
  C 643.05 279.94 643.12 278.80 643.41 277.81
  C 643.45 277.67 643.53 277.54 643.63 277.44
  L 654.49 266.82
  C 654.92 266.40 655.64 266.67 655.69 267.27
  L 657.35 287.54
  Z"
/>
<path d="
  M 402.91 532.92
  C 402.81 532.89 402.75 532.79 402.77 532.69
  C 402.79 532.59 402.88 532.52 402.98 532.52
  C 421.16 533.01 437.66 533.28 455.27 531.46
  C 475.53 529.37 495.51 524.21 513.64 516.88
  C 528.15 511.03 553.29 497.90 553.21 479.29
  C 553.15 467.07 541.65 464.43 532.24 468.45
  C 531.78 468.65 531.31 468.16 531.54 467.71
  C 533.87 463.04 536.49 458.85 539.40 455.13
  C 545.83 446.92 556.23 440.40 566.25 437.02
  C 577.91 433.08 589.05 432.78 599.67 436.13
  C 616.91 441.56 630.36 457.58 638.17 474.06
  C 645.11 488.71 654.65 503.49 666.83 514.11
  C 676.60 522.62 687.21 529.11 698.66 533.56
  C 704.71 535.91 708.88 537.54 711.18 538.45
  C 711.33 538.51 711.41 538.67 711.37 538.83
  C 711.33 538.99 711.18 539.09 711.02 539.08
  C 701.25 538.24 690.83 536.91 681.97 533.38
  C 676.75 531.30 674.70 530.86 669.87 528.54
  C 653.34 520.62 639.67 508.48 628.86 492.13
  C 621.43 480.89 616.35 472.45 608.85 463.10
  C 600.82 453.08 590.38 447.78 577.53 447.20
  C 576.94 447.17 576.49 447.26 576.18 447.46
  C 575.59 447.83 575.60 448.69 576.20 449.05
  C 582.49 452.80 586.86 458.18 589.31 465.19
  C 590.64 469.00 590.72 473.74 589.55 479.41
  C 586.74 493.05 575.70 506.99 564.21 515.45
  C 542.83 531.21 516.45 539.24 490.49 541.40
  C 475.35 542.66 457.01 542.56 440.80 540.16
  C 428.95 538.41 422.18 537.35 420.51 536.98
  C 412.79 535.24 407.79 534.39 402.91 532.92
  Z"
/>
<path d="
  M 777.92 591.75
  C 778.32 591.84 778.56 592.24 778.46 592.63
  C 777.83 595.06 777.05 597.31 776.12 599.38
  C 775.85 599.98 775.63 600.60 775.47 601.24
  C 774.24 606.19 772.72 610.73 770.92 614.87
  C 770.57 615.68 769.77 616.21 768.88 616.21
  L 731.80 616.21
  C 731.11 616.21 730.51 616.66 730.31 617.32
  C 722.80 642.17 714.41 668.46 705.16 696.18
  C 704.53 698.07 703.32 699.04 701.53 699.07
  C 693.00 699.22 683.05 699.26 671.70 699.17
  C 671.03 699.17 670.56 698.52 670.76 697.88
  L 696.30 617.67
  C 696.54 616.92 695.98 616.15 695.19 616.15
  L 657.66 616.15
  C 656.83 616.15 656.25 615.33 656.53 614.56
  L 664.17 593.18
  C 664.48 592.31 665.30 591.74 666.23 591.73
  L 777.13 591.56
  C 777.32 591.55 777.51 591.59 777.67 591.68
  C 777.70 591.69 777.78 591.72 777.92 591.75
  Z"
/>
<path d="
  M 614.34 591.79
  L 646.82 591.79
  C 647.70 591.79 648.34 592.65 648.07 593.50
  L 614.71 698.25
  C 614.54 698.79 614.03 699.16 613.46 699.16
  L 580.98 699.16
  C 580.10 699.16 579.46 698.30 579.73 697.45
  L 613.09 592.70
  C 613.26 592.16 613.77 591.79 614.34 591.79
  Z"
/>
<rect x="576.47" y="723.56" width="4.84" height="33.10" rx="1.86"/>
<path d="
  M 780.35 734.49
  C 780.46 734.56 780.43 734.73 780.30 734.75
  L 733.75 743.34
  C 733.23 743.44 732.75 743.04 732.75 742.51
  L 732.75 733.01
  C 732.75 732.04 733.58 731.27 734.55 731.33
  C 759.53 733.00 774.51 733.97 779.50 734.23
  C 779.81 734.25 780.10 734.34 780.35 734.49
  Z"
/>
</g>
<g fill="#d80000">
<path d="
  M 476.36 63.67
  C 477.02 63.56 478.40 63.74 480.49 64.23
  C 503.16 69.54 523.95 78.02 542.86 89.65
  C 563.79 102.53 582.59 118.04 598.20 136.54
  C 622.58 165.43 641.37 200.20 650.47 237.05
  C 651.08 239.54 650.41 241.34 648.46 242.44
  C 644.87 244.46 641.77 246.36 639.18 248.15
  C 638.40 248.68 637.33 248.28 637.10 247.37
  C 633.35 232.62 629.05 218.29 622.60 205.21
  C 619.57 199.08 616.95 192.77 613.26 186.36
  C 607.01 175.50 600.61 165.85 594.06 157.42
  C 588.57 150.33 581.37 142.54 572.46 134.07
  C 549.34 112.06 522.86 96.22 493.03 86.55
  C 487.64 84.80 481.54 83.59 476.77 81.81
  C 476.19 81.59 475.81 81.04 475.81 80.43
  L 475.81 64.32
  C 475.81 64.00 476.04 63.72 476.36 63.67
  Z"
/>
<path d="
  M 657.39 289.71
  L 657.35 287.54
  L 657.39 289.71
  Z"
/>
<path d="
  M 657.67 298.95
  L 657.60 294.82
  L 657.67 298.95
  Z"
/>
<path d="
  M 70.60 734.35
  L 142.09 730.92
  C 143.15 730.87 144.03 731.71 144.03 732.77
  L 144.03 742.53
  C 144.03 743.21 143.43 743.73 142.76 743.65
  L 70.59 734.72
  C 70.49 734.71 70.42 734.62 70.42 734.53
  C 70.43 734.43 70.50 734.35 70.60 734.35
  Z"
/>
</g>
<g fill="#ef100b">
<path d="
  M 528.31 283.72
  C 527.12 284.03 526.86 284.35 527.53 284.66
  L 508.75 291.09
  C 508.46 291.19 508.23 290.83 508.44 290.61
  L 514.93 283.94
  C 514.93 284.04 514.93 284.14 514.93 284.23
  C 515.06 284.78 515.44 284.71 516.09 284.01
  C 517.81 283.11 519.53 282.18 521.25 281.22
  C 525.61 278.77 530.39 277.25 534.18 274.48
  C 536.54 272.76 538.87 272.09 541.33 271.32
  C 541.93 271.13 542.51 270.87 543.05 270.54
  C 547.93 267.58 553.68 265.12 560.29 263.16
  C 560.35 263.14 560.39 263.23 560.34 263.27
  C 558.10 265.06 555.81 266.63 553.47 267.99
  C 547.87 271.24 542.12 276.05 537.17 278.69
  C 532.80 281.01 529.84 282.69 528.31 283.72
  Z"
/>
<path d="
  M 532.30 306.05
  L 516.45 306.09
  C 515.48 306.46 514.39 306.36 513.17 305.80
  C 512.90 305.67 512.93 305.28 513.21 305.20
  C 515.94 304.38 518.47 303.14 521.25 302.28
  C 528.42 300.07 538.33 297.55 550.99 294.72
  C 552.33 294.43 553.34 294.30 554.01 294.35
  C 554.56 294.84 555.64 294.92 557.26 294.59
  C 562.23 294.19 567.22 293.62 572.22 292.89
  C 574.21 292.60 576.21 292.55 578.20 292.76
  C 578.41 292.78 578.50 293.05 578.34 293.19
  C 577.57 293.86 576.51 294.43 575.17 294.92
  C 569.50 296.97 564.20 299.15 558.16 300.60
  C 549.47 302.67 540.85 304.49 532.30 306.05
  Z"
/>
<path d="
  M 389.81 527.61
  C 391.58 524.08 393.06 521.55 394.26 520.01
  C 398.02 515.18 400.86 511.02 402.77 507.51
  C 408.30 497.38 412.04 490.28 413.97 486.21
  C 415.87 482.20 418.52 475.27 421.92 465.43
  C 424.49 458.01 426.54 448.70 428.09 437.51
  C 429.85 424.78 429.28 411.68 430.05 398.85
  C 430.30 394.66 429.78 389.53 430.15 384.46
  C 430.59 378.42 431.23 371.69 432.08 364.26
  C 432.97 356.48 434.65 348.59 437.13 340.59
  C 439.59 332.67 442.13 325.24 444.74 318.31
  C 446.29 314.21 446.88 310.24 447.37 305.99
  C 447.84 307.74 447.96 309.99 447.73 312.75
  C 447.13 319.90 446.72 323.98 446.50 324.98
  C 445.14 331.21 443.22 338.95 440.75 348.20
  C 439.23 353.87 437.73 362.72 436.25 374.75
  C 435.82 378.26 435.36 388.82 434.88 406.43
  C 434.49 420.73 433.75 436.07 430.64 449.66
  C 427.05 465.31 421.04 480.04 412.61 493.87
  C 407.56 502.14 403.25 508.90 399.67 514.16
  C 397.36 517.55 394.07 522.04 389.81 527.61
  Z"
/>
<path d="
  M 398.69 446.30
  C 398.70 433.00 398.22 419.81 397.25 406.72
  C 396.36 394.71 395.23 383.66 393.85 373.57
  C 391.90 359.32 387.28 341.81 384.65 329.07
  C 384.44 328.04 384.23 326.39 384.03 324.11
  C 384.69 323.27 384.85 322.50 384.50 321.81
  C 384.37 321.55 384.00 321.57 383.90 321.84
  C 383.79 322.13 383.81 322.54 383.97 323.06
  C 382.95 318.77 382.66 314.51 383.10 310.30
  L 384.50 319.52
  C 384.55 319.84 384.70 320.14 384.93 320.36
  C 386.14 321.53 386.97 322.79 387.42 324.15
  C 390.65 333.90 393.64 344.57 396.39 356.15
  C 397.58 361.17 398.36 366.13 398.73 371.04
  C 399.56 381.98 400.69 388.73 400.93 398.95
  C 401.01 402.22 401.14 406.51 401.32 411.81
  C 401.58 419.50 401.12 429.30 399.94 441.20
  C 399.84 442.17 399.42 443.87 398.69 446.30
  Z"
/>
<path d="
  M 531.51 323.79
  C 531.66 324.28 532.15 324.62 532.98 324.79
  C 533.81 325.37 534.72 325.86 535.71 326.25
  C 541.84 328.72 547.94 331.36 554.01 334.18
  C 554.92 334.60 555.72 335.16 556.40 335.85
  C 556.52 335.98 556.42 336.19 556.24 336.17
  C 548.27 335.40 541.53 334.10 536.00 332.28
  C 532.63 331.17 526.47 328.87 517.50 325.39
  C 516.62 324.90 516.16 324.87 516.12 325.32
  L 509.38 319.78
  C 509.20 319.63 509.32 319.34 509.55 319.37
  C 516.96 320.34 524.28 321.82 531.51 323.79
  Z"
/>
<path d="
  M 494.77 411.85
  C 495.29 412.73 495.98 413.18 496.83 413.19
  C 500.71 415.38 504.99 418.27 509.68 421.84
  C 511.49 423.22 512.60 424.27 513.01 424.98
  C 513.11 425.15 512.95 425.36 512.76 425.31
  C 507.99 424.06 505.09 423.19 504.08 422.70
  C 500.84 421.12 497.57 419.68 494.28 418.37
  C 493.09 417.36 492.12 416.96 491.39 417.17
  C 488.32 415.54 485.47 413.47 482.86 410.94
  C 482.62 410.71 482.78 410.31 483.11 410.30
  C 487.06 410.19 490.94 410.71 494.77 411.85
  Z"
/>
<path d="
  M 483.22 426.16
  C 482.83 426.28 482.77 426.55 483.03 426.98
  C 483.17 427.21 483.33 427.28 483.52 427.21
  C 485.71 429.20 487.53 431.48 488.98 434.04
  C 489.17 434.38 489.40 434.69 489.67 434.98
  C 493.94 439.50 497.35 444.69 499.91 450.54
  C 499.94 450.61 499.92 450.69 499.85 450.73
  C 499.78 450.77 499.70 450.76 499.65 450.70
  C 498.79 449.69 497.87 448.80 496.88 448.02
  C 493.66 445.47 490.25 441.89 486.64 437.26
  C 486.64 437.25 485.36 435.30 482.80 431.41
  C 481.37 429.24 479.72 427.24 477.85 425.41
  C 477.20 424.52 476.86 423.33 476.84 421.83
  C 476.84 421.54 477.17 421.38 477.40 421.56
  L 483.22 426.16
  Z"
/>
</g>
<g fill="#d80000">
<path d="
  M 315.32 283.18
  C 318.26 285.29 320.73 287.80 322.74 290.72
  C 322.91 290.97 322.68 291.31 322.39 291.23
  C 314.96 289.34 308.19 286.88 302.06 283.83
  C 291.74 277.66 281.82 271.06 272.31 264.03
  C 272.21 263.95 272.17 263.82 272.23 263.70
  C 272.29 263.59 272.42 263.53 272.54 263.57
  C 273.29 263.80 275.69 264.64 279.74 266.08
  C 285.14 268.00 288.80 270.26 294.28 272.63
  C 295.86 273.32 298.31 274.64 301.62 276.59
  C 305.37 278.80 309.62 281.13 314.36 283.57
  C 314.63 283.70 314.91 283.73 315.20 283.64
  C 315.33 283.59 315.37 283.44 315.32 283.18
  Z"
/>
<path d="
  M 528.31 283.72
  L 528.13 284.24
  L 527.53 284.66
  C 526.86 284.35 527.12 284.03 528.31 283.72
  Z"
/>
<path d="
  M 516.09 284.01
  C 515.44 284.71 515.06 284.78 514.93 284.23
  C 515.26 283.98 515.65 283.90 516.09 284.01
  Z"
/>
<path d="
  M 229.57 285.00
  C 229.18 285.29 229.04 285.72 229.17 286.27
  C 228.48 285.94 227.98 285.55 227.65 285.09
  C 227.51 284.90 227.68 284.64 227.91 284.68
  L 229.57 285.00
  Z"
/>
<path d="
  M 601.38 286.54
  C 601.53 286.21 601.20 285.84 600.39 285.44
  L 603.34 284.90
  C 603.54 284.86 603.67 285.11 603.53 285.26
  C 603.01 285.82 602.29 286.25 601.38 286.54
  Z"
/>
<path d="
  M 276.04 293.77
  C 278.30 294.04 280.54 294.44 282.75 294.98
  C 300.17 299.25 307.12 300.48 318.67 305.23
  C 318.89 305.32 318.86 305.64 318.63 305.70
  L 314.06 306.81
  C 313.91 306.56 313.72 306.43 313.50 306.42
  C 299.33 305.85 285.56 303.84 272.18 300.39
  C 268.56 299.45 265.43 298.16 261.85 297.10
  C 258.34 296.05 255.08 294.78 252.05 293.29
  C 251.82 293.17 251.83 292.85 252.06 292.75
  C 252.67 292.48 253.41 292.40 254.27 292.52
  C 261.74 293.57 269.01 294.18 276.09 294.37
  C 276.27 294.37 276.37 294.17 276.26 294.03
  L 276.04 293.77
  Z"
/>
<path d="
  M 555.02 294.06
  C 555.45 294.58 556.19 294.76 557.26 294.59
  C 555.64 294.92 554.56 294.84 554.01 294.35
  L 555.02 294.06
  Z"
/>
<path d="
  M 532.30 306.05
  C 530.71 306.82 529.63 307.52 529.08 308.14
  C 524.75 308.17 520.54 307.48 516.45 306.09
  L 532.30 306.05
  Z"
/>
<path d="
  M 312.80 307.07
  L 311.75 307.32
  C 311.94 307.05 312.29 306.96 312.80 307.07
  Z"
/>
<path d="
  M 317.02 324.02
  C 315.21 324.15 313.49 324.66 311.84 325.56
  C 306.99 328.21 301.87 330.39 296.47 332.08
  C 290.27 334.02 283.37 334.44 276.46 335.60
  C 276.34 335.62 276.23 335.55 276.20 335.44
  C 276.16 335.32 276.21 335.20 276.32 335.15
  L 298.77 324.10
  C 306.20 321.92 313.89 320.26 321.84 319.12
  C 322.22 319.07 322.44 319.55 322.14 319.79
  L 317.02 324.02
  Z"
/>
<path d="
  M 532.22 323.88
  C 532.03 324.11 532.29 324.41 532.98 324.79
  C 532.15 324.62 531.66 324.28 531.51 323.79
  C 531.76 323.87 531.99 323.90 532.22 323.88
  Z"
/>
<path d="
  M 517.50 325.39
  C 517.09 325.37 516.90 325.55 516.95 325.94
  L 516.12 325.32
  C 516.16 324.87 516.62 324.90 517.50 325.39
  Z"
/>
<path d="
  M 493.96 327.19
  C 494.26 327.18 494.45 327.04 494.54 326.78
  C 495.16 327.44 495.56 328.15 495.75 328.90
  C 495.80 329.08 495.58 329.21 495.43 329.09
  C 494.82 328.60 494.33 327.96 493.96 327.19
  Z"
/>
<path d="
  M 337.34 327.31
  L 335.87 329.61
  C 335.80 329.71 335.67 329.75 335.56 329.70
  C 335.45 329.64 335.40 329.52 335.44 329.40
  L 336.08 327.48
  C 336.42 327.58 336.84 327.52 337.34 327.31
  Z"
/>
<path d="
  M 385.35 382.23
  L 384.67 382.20
  L 384.86 381.80
  C 384.94 381.65 385.16 381.66 385.22 381.83
  L 385.35 382.23
  Z"
/>
<path d="
  M 352.32 399.06
  C 351.90 399.18 351.62 399.32 351.49 399.48
  C 351.40 399.60 351.42 399.90 351.57 400.39
  L 332.54 399.02
  C 333.85 398.98 334.77 398.46 335.30 397.46
  C 335.38 397.31 335.50 397.19 335.66 397.11
  L 336.89 396.50
  C 337.13 396.38 337.05 396.03 336.79 396.02
  L 335.16 395.95
  C 341.31 395.23 347.03 396.27 352.32 399.06
  Z"
/>
<path d="
  M 335.16 395.95
  C 335.01 396.14 334.80 396.16 334.54 396.01
  L 335.16 395.95
  Z"
/>
<path d="
  M 352.46 400.47
  C 352.19 400.46 351.94 400.40 351.71 400.31
  C 351.98 400.31 352.23 400.36 352.46 400.47
  Z"
/>
<path d="
  M 353.49 400.19
  C 353.79 400.23 353.98 400.32 354.07 400.46
  C 354.20 400.69 354.02 400.97 353.76 400.95
  C 353.45 400.92 353.18 400.79 352.96 400.55
  L 353.49 400.19
  Z"
/>
<path d="
  M 336.29 419.82
  L 336.37 419.47
  C 336.45 419.08 336.07 418.76 335.70 418.92
  C 329.84 421.39 325.40 423.20 322.37 424.35
  C 320.74 424.98 318.95 425.46 317.01 425.80
  C 316.79 425.84 316.65 425.58 316.80 425.42
  L 318.70 423.36
  C 318.81 423.23 318.95 423.12 319.10 423.03
  C 322.21 421.06 324.86 418.61 327.05 415.68
  C 333.12 412.05 340.19 410.23 348.26 410.22
  C 348.58 410.22 348.72 410.63 348.46 410.82
  L 336.29 419.82
  Z"
/>
<path d="
  M 497.26 412.70
  C 496.98 412.83 496.84 412.99 496.83 413.19
  C 495.98 413.18 495.29 412.73 494.77 411.85
  C 495.66 411.99 496.49 412.27 497.26 412.70
  Z"
/>
<path d="
  M 494.28 418.37
  C 493.91 418.37 493.62 418.52 493.43 418.81
  L 491.39 417.17
  C 492.12 416.96 493.09 417.36 494.28 418.37
  Z"
/>
<path d="
  M 352.70 425.27
  C 346.54 434.31 339.83 442.66 332.57 450.32
  C 331.94 450.98 331.18 451.47 330.30 451.78
  C 330.06 451.86 329.83 451.66 329.87 451.41
  C 330.22 449.59 331.04 447.81 332.35 446.08
  C 335.93 441.33 339.32 436.24 342.51 430.80
  C 345.58 427.47 349.28 424.49 353.59 421.84
  C 353.78 421.73 354.01 421.86 354.00 422.08
  C 353.93 423.56 353.50 424.62 352.70 425.27
  Z"
/>
<path d="
  M 362.63 421.77
  C 362.73 422.29 362.93 422.61 363.23 422.74
  C 363.22 423.49 363.07 424.17 362.80 424.77
  C 362.73 424.93 362.50 424.89 362.47 424.72
  C 362.32 423.79 362.38 422.80 362.63 421.77
  Z"
/>
<path d="
  M 468.50 423.45
  C 468.75 424.06 468.85 424.64 468.82 425.19
  C 468.81 425.43 468.50 425.53 468.36 425.33
  C 468.11 424.99 467.97 424.45 467.94 423.71
  L 468.50 423.45
  Z"
/>
<path d="
  M 483.22 426.16
  L 483.84 426.67
  C 483.69 426.84 483.59 427.02 483.52 427.21
  C 483.33 427.28 483.17 427.21 483.03 426.98
  C 482.77 426.55 482.83 426.28 483.22 426.16
  Z"
/>
<path d="
  M 374.47 549.80
  C 374.35 549.83 374.49 550.00 374.89 550.31
  C 374.74 550.37 374.61 550.40 374.51 550.41
  C 374.35 550.43 374.26 550.37 374.24 550.22
  C 374.23 550.09 374.30 549.95 374.47 549.80
  Z"
/>
</g>
<ellipse fill="#fffffe" cx="0.00" cy="0.00" transform="translate(419.47,65.69) rotate(-92.6)" rx="10.39" ry="9.91"/>
<path fill="#ef100b" d="
  M 517.97 258.55
  C 511.20 266.72 504.13 274.29 496.75 281.24
  C 495.88 282.07 495.03 282.78 494.21 283.37
  C 493.94 283.57 493.58 283.29 493.71 282.98
  C 495.68 278.25 499.09 274.31 502.65 270.43
  C 507.08 265.60 512.10 261.54 517.71 258.25
  C 517.79 258.20 517.90 258.22 517.97 258.29
  C 518.03 258.37 518.03 258.47 517.97 258.55
  Z"
/>
<path fill="#d80000" d="
  M 314.42 259.25
  C 319.39 262.98 322.63 265.51 324.14 266.86
  C 325.31 267.90 327.02 269.92 329.25 272.91
  C 329.60 273.37 329.99 273.79 330.43 274.16
  C 333.02 276.37 335.03 279.18 336.44 282.60
  C 336.52 282.80 336.29 282.98 336.11 282.85
  C 333.02 280.59 330.69 278.00 329.12 275.09
  C 328.55 274.03 327.84 273.18 327.00 272.53
  C 324.77 270.83 322.64 268.82 320.61 266.51
  C 316.88 262.26 314.71 259.91 314.11 259.46
  C 314.06 259.42 314.05 259.35 314.09 259.30
  L 314.09 259.29
  C 314.17 259.19 314.32 259.17 314.42 259.25
  Z"
/>
</svg>
