<?xml version="1.0" encoding="UTF-8" standalone="no"?>
<!DOCTYPE svg PUBLIC "-//W3C//DTD SVG 1.1//EN" "http://www.w3.org/Graphics/SVG/1.1/DTD/svg11.dtd">
<svg xmlns="http://www.w3.org/2000/svg" version="1.1" viewBox="0.00 0.00 1773.00 1773.00">
<g fill="#000000">
<path d="
  M 78.01 930.91
  C 77.63 930.85 77.41 930.47 77.54 930.11
  C 83.94 912.93 90.90 892.45 98.82 870.87
  C 104.97 854.12 117.19 819.84 135.49 768.04
  C 139.98 755.32 145.44 738.65 150.20 725.89
  C 152.20 720.53 155.23 711.83 159.28 699.80
  C 159.41 699.42 159.77 699.16 160.18 699.16
  L 241.67 699.16
  C 242.14 699.16 242.46 699.62 242.31 700.06
  L 180.34 877.70
  C 180.07 878.48 180.64 879.29 181.46 879.29
  L 343.91 879.29
  C 344.62 879.29 345.11 879.99 344.88 880.66
  L 327.73 929.81
  C 327.44 930.67 326.63 931.24 325.73 931.24
  C 243.16 931.18 162.17 931.19 82.75 931.28
  C 81.20 931.28 79.62 931.16 78.01 930.91
  Z"
/>
<path d="
  M 683.14 898.18
  C 673.79 910.89 661.67 920.19 646.77 926.08
  C 632.21 931.83 617.46 931.36 601.76 931.31
  C 565.38 931.18 505.90 931.14 423.32 931.21
  C 418.28 931.22 411.56 929.86 403.15 927.15
  C 385.37 921.40 372.83 906.42 373.60 887.33
  C 373.75 883.61 375.45 877.15 378.68 867.95
  C 378.79 867.63 385.01 849.67 397.35 814.06
  C 404.85 792.43 411.37 773.11 416.91 756.12
  C 421.29 742.70 428.05 730.73 439.50 721.24
  C 455.89 707.66 475.07 700.42 497.02 699.52
  C 503.07 699.27 512.23 699.14 524.50 699.13
  C 576.05 699.08 627.75 699.15 679.61 699.32
  C 692.85 699.36 704.80 702.22 715.46 707.89
  C 726.83 713.93 733.21 723.53 734.58 736.69
  C 735.35 744.08 734.74 751.19 732.75 758.02
  C 728.44 772.81 723.13 787.14 717.53 803.81
  C 703.00 847.06 693.65 874.71 689.48 886.74
  C 688.25 890.29 686.14 894.11 683.14 898.18
  Z
  M 503.16 759.35
  C 499.27 761.67 496.61 766.46 495.33 770.36
  C 485.89 799.18 476.73 826.09 467.85 851.10
  C 465.98 856.37 463.56 861.37 462.91 865.18
  C 461.61 872.84 465.38 877.47 472.51 878.86
  C 473.40 879.03 476.08 879.14 480.55 879.17
  C 511.84 879.40 546.94 879.46 585.87 879.36
  C 589.73 879.35 593.45 879.65 597.12 878.62
  C 605.58 876.23 611.03 870.84 613.48 862.47
  C 614.39 859.38 615.52 855.93 616.87 852.13
  C 624.93 829.50 633.74 804.59 643.31 777.40
  C 644.16 774.99 644.99 772.55 645.82 770.06
  C 648.52 761.91 644.76 755.89 636.05 755.90
  C 588.41 755.95 548.15 755.91 515.26 755.78
  C 511.21 755.77 507.17 756.96 503.16 759.35
  Z"
/>
<path d="
  M 961.29 842.18
  L 879.15 842.18
  C 878.35 842.18 877.79 841.38 878.07 840.63
  L 895.22 794.22
  C 895.44 793.64 895.95 793.22 896.56 793.13
  C 898.63 792.82 900.20 792.66 901.26 792.66
  C 956.88 792.63 1009.99 792.63 1060.59 792.67
  C 1061.16 792.67 1061.56 793.24 1061.35 793.77
  C 1056.10 807.26 1051.78 821.24 1046.89 834.76
  C 1039.14 856.20 1033.43 872.08 1029.75 882.41
  C 1026.72 890.93 1023.94 897.09 1021.42 900.90
  C 1011.40 916.04 995.89 925.99 978.43 929.79
  C 973.60 930.84 965.45 931.35 953.97 931.31
  C 906.06 931.16 849.50 931.16 784.27 931.33
  C 776.35 931.35 770.69 931.09 767.29 930.56
  C 753.59 928.43 742.09 923.48 732.89 912.80
  C 727.73 906.80 725.03 899.43 724.78 890.70
  C 724.65 885.93 725.18 881.75 726.39 878.14
  C 733.21 857.77 742.24 831.55 753.49 799.49
  C 755.14 794.76 757.51 787.51 760.59 777.74
  C 764.34 765.85 768.09 755.71 771.84 747.32
  C 775.68 738.73 781.61 730.91 789.64 723.86
  C 805.91 709.59 825.05 701.56 847.07 699.79
  C 851.24 699.46 858.15 699.27 867.78 699.23
  C 932.09 698.98 987.24 699.00 1033.25 699.29
  C 1049.17 699.39 1070.73 706.89 1075.26 724.46
  C 1077.73 734.08 1077.12 742.76 1073.59 752.22
  C 1072.38 755.46 1071.15 759.14 1069.92 763.25
  C 1069.82 763.55 1069.55 763.76 1069.24 763.76
  C 1049.41 763.95 1031.41 764.01 1015.25 763.93
  C 1006.91 763.89 999.17 763.64 992.04 763.19
  C 991.25 763.14 990.55 762.66 990.22 761.94
  C 989.00 759.30 988.13 756.68 984.73 756.58
  C 977.34 756.36 971.09 755.82 964.07 755.88
  C 958.43 755.93 928.74 755.93 875.00 755.88
  C 872.36 755.87 866.53 755.81 863.38 756.76
  C 854.08 759.58 850.25 765.14 847.19 774.20
  C 843.18 786.08 839.73 795.95 836.84 803.82
  C 832.87 814.63 829.83 824.11 825.65 835.48
  C 819.31 852.75 816.13 861.40 816.12 861.45
  C 814.73 866.15 813.48 870.08 816.43 874.10
  C 818.92 877.49 822.45 879.21 827.02 879.26
  C 836.91 879.36 873.23 879.39 935.99 879.36
  C 937.98 879.35 940.79 878.44 944.41 876.61
  C 950.48 873.54 952.43 870.22 954.80 863.17
  C 957.31 855.70 959.78 849.16 962.19 843.54
  C 962.46 842.90 961.99 842.18 961.29 842.18
  Z"
/>
<path d="
  M 1083.86 842.93
  L 1102.13 793.47
  C 1102.32 792.96 1102.80 792.63 1103.33 792.63
  L 1225.09 792.63
  C 1225.98 792.63 1226.59 793.50 1226.30 794.33
  L 1208.90 843.79
  C 1208.72 844.31 1208.24 844.65 1207.69 844.65
  L 1085.06 844.65
  C 1084.17 844.65 1083.55 843.76 1083.86 842.93
  Z"
/>
<path d="
  M 390.08 1019.55
  L 377.94 1022.94
  C 377.25 1023.13 376.53 1022.73 376.33 1022.04
  C 375.20 1018.17 372.57 1015.51 368.42 1014.08
  C 365.04 1012.91 361.62 1013.17 358.15 1014.86
  C 354.70 1016.55 352.41 1019.20 351.30 1022.81
  C 349.42 1028.91 349.38 1034.52 351.17 1039.65
  C 354.05 1047.88 363.21 1051.94 371.10 1047.44
  C 373.90 1045.84 375.41 1043.19 377.18 1040.26
  C 377.78 1039.28 378.97 1038.85 380.06 1039.22
  L 390.02 1042.64
  C 390.89 1042.94 391.34 1043.91 391.01 1044.77
  C 386.63 1056.06 378.22 1061.94 365.78 1062.43
  C 356.13 1062.81 348.31 1059.56 342.32 1052.67
  C 338.65 1048.45 336.49 1043.54 335.86 1037.94
  C 334.07 1022.06 338.83 1007.84 354.19 1001.96
  C 360.55 999.53 369.29 999.65 375.98 1002.48
  C 383.01 1005.45 387.93 1010.72 390.73 1018.27
  C 390.93 1018.81 390.63 1019.40 390.08 1019.55
  Z"
/>
<path d="
  M 1035.83 1018.71
  C 1035.96 1019.11 1035.73 1019.54 1035.33 1019.65
  L 1023.38 1022.98
  C 1022.86 1023.12 1022.30 1022.91 1022.02 1022.45
  L 1019.16 1017.94
  C 1019.05 1017.77 1018.92 1017.63 1018.77 1017.50
  C 1016.08 1015.17 1013.60 1013.89 1011.32 1013.65
  C 1005.61 1013.05 1001.18 1015.02 998.04 1019.55
  C 996.58 1021.66 995.66 1024.22 995.28 1027.24
  C 994.27 1035.33 995.55 1044.87 1003.74 1048.32
  C 1011.54 1051.61 1019.19 1047.26 1022.28 1039.86
  C 1022.55 1039.23 1023.25 1038.91 1023.90 1039.12
  L 1035.20 1042.87
  C 1035.92 1043.11 1036.31 1043.88 1036.08 1044.60
  C 1031.70 1058.21 1018.89 1063.61 1004.97 1062.31
  C 992.52 1061.15 982.67 1051.14 980.71 1039.01
  C 979.18 1029.53 980.37 1018.98 986.23 1011.38
  C 991.78 1004.19 999.05 1000.53 1008.06 1000.38
  C 1021.09 1000.17 1031.58 1006.19 1035.83 1018.71
  Z"
/>
<path d="
  M 1317.77 1015.86
  C 1317.84 1016.16 1317.64 1016.46 1317.34 1016.52
  C 1314.89 1017.00 1311.62 1017.68 1307.52 1018.55
  C 1305.89 1018.90 1304.44 1018.20 1303.74 1016.43
  C 1302.33 1012.90 1296.68 1011.28 1293.20 1012.43
  C 1289.42 1013.68 1288.21 1017.62 1290.38 1020.83
  C 1291.39 1022.32 1294.98 1023.63 1296.77 1024.07
  C 1303.76 1025.78 1311.70 1027.81 1316.33 1033.01
  C 1320.60 1037.80 1320.50 1045.92 1318.11 1051.28
  C 1312.71 1063.38 1294.56 1064.52 1284.14 1059.88
  C 1277.61 1056.97 1273.86 1051.90 1272.88 1044.67
  C 1272.84 1044.36 1273.02 1044.07 1273.32 1043.97
  C 1277.35 1042.67 1281.37 1042.04 1285.38 1042.07
  C 1285.93 1042.08 1286.40 1042.44 1286.55 1042.96
  C 1288.74 1050.68 1297.61 1052.53 1303.45 1048.14
  C 1303.68 1047.97 1303.88 1047.76 1304.04 1047.52
  C 1307.68 1042.05 1302.76 1039.34 1298.27 1037.73
  C 1291.09 1035.17 1280.20 1034.80 1276.43 1025.58
  C 1274.36 1020.52 1274.40 1015.48 1276.57 1010.46
  C 1280.78 1000.70 1295.01 998.92 1304.07 1001.47
  C 1311.49 1003.56 1316.06 1008.36 1317.77 1015.86
  Z"
/>
<path d="
  M 1473.5035 1035.7250
  C 1473.37 1050.47 1461.32 1062.32 1446.5715 1062.1910
  L 1441.4917 1062.1467
  C 1426.75 1062.02 1414.90 1049.96 1415.0257 1035.2147
  L 1415.0965 1027.0950
  C 1415.23 1012.35 1427.28 1000.50 1442.0285 1000.6290
  L 1447.1083 1000.6733
  C 1461.85 1000.80 1473.70 1012.86 1473.5743 1027.6053
  L 1473.5035 1035.7250
  Z
  M 1443.7576 1013.1700
  C 1435.38 1013.45 1428.87 1021.80 1429.1983 1031.8330
  C 1429.53 1041.86 1436.59 1049.77 1444.9624 1049.4900
  C 1453.34 1049.21 1459.85 1040.86 1459.5217 1030.8270
  C 1459.19 1020.80 1452.13 1012.89 1443.7576 1013.1700
  Z"
/>
<path d="
  M 268.86 1043.73
  L 279.87 1041.98
  C 280.54 1041.87 281.20 1042.22 281.48 1042.83
  C 282.04 1043.96 282.61 1044.97 283.20 1045.85
  C 286.25 1050.41 291.95 1051.40 296.83 1049.53
  C 298.98 1048.70 300.26 1047.25 300.66 1045.18
  C 301.22 1042.31 299.93 1040.20 296.77 1038.87
  C 290.84 1036.36 282.50 1035.77 276.16 1031.27
  C 269.47 1026.50 268.71 1014.83 273.32 1008.54
  C 278.18 1001.91 285.24 1000.25 293.12 1000.54
  C 303.06 1000.90 311.18 1005.76 313.58 1015.46
  C 313.76 1016.20 313.28 1016.94 312.53 1017.06
  L 301.72 1018.78
  C 301.06 1018.88 300.41 1018.49 300.19 1017.86
  C 299.12 1014.71 296.82 1012.83 293.31 1012.20
  C 289.80 1011.56 285.66 1012.74 284.72 1016.62
  C 283.63 1021.18 289.39 1023.28 292.70 1024.12
  C 303.58 1026.88 315.55 1030.40 315.30 1043.57
  C 314.99 1059.74 299.08 1064.22 285.95 1061.78
  C 276.15 1059.97 270.25 1054.24 268.27 1044.59
  C 268.19 1044.19 268.46 1043.80 268.86 1043.73
  Z"
/>
<path d="
  M 666.77 1043.76
  L 677.79 1041.99
  C 678.46 1041.88 679.12 1042.22 679.41 1042.83
  C 679.96 1043.96 680.54 1044.97 681.13 1045.86
  C 684.20 1050.42 689.91 1051.40 694.79 1049.52
  C 696.94 1048.69 698.22 1047.23 698.62 1045.16
  C 699.18 1042.28 697.88 1040.17 694.71 1038.84
  C 688.77 1036.34 680.42 1035.76 674.06 1031.26
  C 667.35 1026.50 666.57 1014.81 671.18 1008.50
  C 676.03 1001.85 683.10 1000.18 691.00 1000.46
  C 700.95 1000.80 709.09 1005.65 711.51 1015.37
  C 711.70 1016.11 711.21 1016.85 710.46 1016.97
  L 699.64 1018.71
  C 698.97 1018.81 698.33 1018.43 698.11 1017.79
  C 697.03 1014.64 694.73 1012.76 691.20 1012.13
  C 687.69 1011.50 683.54 1012.69 682.61 1016.58
  C 681.52 1021.14 687.30 1023.24 690.61 1024.07
  C 701.52 1026.82 713.51 1030.33 713.28 1043.52
  C 713.00 1059.72 697.07 1064.23 683.91 1061.81
  C 674.09 1060.01 668.18 1054.28 666.18 1044.62
  C 666.10 1044.22 666.37 1043.83 666.77 1043.76
  Z"
/>
<path d="
  M 1118.93 1044.69
  C 1118.84 1044.33 1119.07 1043.97 1119.44 1043.91
  L 1130.94 1042.07
  C 1131.37 1042.00 1131.81 1042.07 1132.19 1042.28
  C 1133.43 1042.95 1133.84 1045.60 1135.00 1046.86
  C 1138.78 1050.95 1146.39 1052.02 1150.60 1047.27
  C 1150.84 1046.99 1151.03 1046.67 1151.14 1046.32
  C 1152.65 1041.66 1147.82 1038.73 1144.04 1037.70
  C 1133.99 1034.95 1124.49 1033.44 1121.37 1022.63
  C 1118.40 1012.33 1126.41 1002.68 1136.35 1000.93
  C 1143.84 999.61 1151.76 1000.32 1157.82 1005.51
  C 1161.02 1008.25 1162.98 1011.74 1163.71 1015.97
  C 1163.79 1016.43 1163.48 1016.87 1163.02 1016.94
  L 1152.00 1018.72
  C 1151.39 1018.81 1150.81 1018.47 1150.59 1017.89
  C 1149.22 1014.20 1146.55 1012.29 1142.56 1012.16
  C 1140.32 1012.09 1138.55 1012.64 1137.24 1013.79
  C 1134.86 1015.89 1135.00 1020.19 1137.97 1021.83
  C 1139.41 1022.64 1140.54 1023.16 1141.37 1023.40
  C 1147.12 1025.08 1151.61 1026.50 1154.82 1027.65
  C 1162.40 1030.36 1166.07 1035.73 1165.82 1043.75
  C 1165.53 1053.16 1160.84 1059.02 1151.77 1061.33
  C 1143.75 1063.38 1133.95 1062.57 1127.32 1057.95
  C 1123.26 1055.12 1120.46 1050.70 1118.93 1044.69
  Z"
/>
<path d="
  M 438.59 1049.10
  C 444.16 1049.10 448.67 1045.85 448.75 1039.96
  C 448.86 1030.97 448.94 1018.37 448.99 1002.15
  C 448.99 1001.64 449.41 1001.22 449.92 1001.22
  L 462.11 1001.22
  C 462.81 1001.22 463.38 1001.78 463.39 1002.48
  C 463.63 1016.61 463.64 1029.29 463.41 1040.50
  C 463.10 1055.52 452.76 1062.46 438.58 1062.44
  C 424.40 1062.43 414.08 1055.47 413.80 1040.45
  C 413.59 1029.24 413.62 1016.56 413.89 1002.43
  C 413.90 1001.73 414.48 1001.17 415.17 1001.17
  L 427.36 1001.20
  C 427.88 1001.20 428.29 1001.62 428.29 1002.13
  C 428.31 1018.35 428.36 1030.95 428.46 1039.94
  C 428.52 1045.83 433.03 1049.09 438.59 1049.10
  Z"
/>
<path d="
  M 1343.22 1001.10
  L 1355.36 1001.10
  C 1355.81 1001.10 1356.17 1001.46 1356.17 1001.91
  L 1356.17 1023.07
  C 1356.17 1023.82 1356.78 1024.43 1357.53 1024.43
  L 1374.93 1024.43
  C 1376.01 1024.43 1376.88 1023.56 1376.88 1022.48
  L 1376.88 1002.13
  C 1376.88 1001.61 1377.31 1001.18 1377.84 1001.18
  L 1390.84 1001.18
  C 1391.18 1001.18 1391.45 1001.45 1391.45 1001.79
  L 1391.45 1060.45
  C 1391.45 1061.01 1391.00 1061.46 1390.44 1061.46
  L 1378.23 1061.46
  C 1377.50 1061.46 1376.90 1060.87 1376.90 1060.14
  L 1376.90 1039.05
  C 1376.90 1038.77 1376.77 1038.50 1376.54 1038.34
  C 1375.82 1037.83 1374.89 1037.56 1373.75 1037.55
  C 1369.62 1037.51 1364.13 1037.52 1357.26 1037.57
  C 1356.68 1037.58 1356.21 1038.04 1356.21 1038.62
  L 1356.21 1060.62
  C 1356.21 1061.09 1355.83 1061.47 1355.36 1061.47
  L 1343.42 1061.47
  C 1342.69 1061.47 1342.09 1060.87 1342.09 1060.14
  L 1342.09 1002.23
  C 1342.09 1001.61 1342.60 1001.10 1343.22 1001.10
  Z"
/>
<path d="
  M 1513.42 1041.43
  C 1512.49 1041.35 1511.69 1042.08 1511.69 1043.02
  L 1511.69 1060.80
  C 1511.69 1061.16 1511.39 1061.46 1511.03 1061.46
  L 1499.00 1061.46
  C 1498.20 1061.46 1497.56 1060.82 1497.56 1060.03
  L 1497.56 1002.05
  C 1497.56 1001.58 1497.94 1001.21 1498.41 1001.20
  L 1525.19 1001.06
  C 1525.60 1001.06 1526.01 1001.11 1526.42 1001.20
  C 1536.81 1003.53 1542.50 1009.56 1543.47 1019.29
  C 1544.42 1028.70 1540.31 1036.69 1531.43 1040.17
  C 1529.24 1041.03 1526.26 1041.51 1522.49 1041.60
  C 1518.68 1041.69 1515.66 1041.63 1513.42 1041.43
  Z
  M 1511.55 1015.13
  L 1511.67 1027.97
  C 1511.67 1028.58 1512.18 1029.08 1512.80 1029.08
  L 1521.59 1029.00
  C 1525.71 1028.96 1529.03 1025.80 1528.99 1021.94
  L 1528.98 1020.84
  C 1528.95 1016.98 1525.58 1013.88 1521.45 1013.92
  L 1512.66 1014.00
  C 1512.05 1014.00 1511.55 1014.51 1511.55 1015.13
  Z"
/>
<path d="
  M 488.99 1001.75
  C 488.99 1001.48 489.20 1001.27 489.47 1001.27
  C 498.96 1001.14 507.46 1001.14 514.96 1001.27
  C 518.20 1001.32 520.85 1001.74 522.90 1002.51
  C 529.18 1004.89 534.02 1010.07 534.10 1016.98
  C 534.15 1022.03 532.20 1025.89 528.23 1028.56
  C 527.50 1029.05 527.55 1030.15 528.32 1030.57
  C 535.41 1034.43 536.52 1041.25 535.05 1048.98
  C 533.33 1058.11 523.63 1061.42 515.60 1061.36
  C 511.92 1061.33 503.53 1061.34 490.42 1061.41
  C 489.63 1061.42 488.99 1060.78 488.99 1059.99
  L 488.99 1001.75
  Z
  M 503.14 1014.91
  L 503.16 1023.13
  C 503.16 1024.00 503.86 1024.70 504.73 1024.70
  L 513.64 1024.69
  C 517.15 1024.68 520.00 1022.24 519.99 1019.25
  L 519.99 1018.75
  C 519.98 1015.75 517.13 1013.32 513.62 1013.33
  L 504.71 1013.34
  C 503.84 1013.34 503.14 1014.05 503.14 1014.91
  Z
  M 503.09 1037.41
  L 503.17 1047.85
  C 503.17 1048.60 503.79 1049.21 504.54 1049.20
  L 514.55 1049.13
  C 518.37 1049.11 521.46 1046.28 521.43 1042.82
  L 521.43 1042.20
  C 521.40 1038.73 518.28 1035.95 514.45 1035.97
  L 504.44 1036.04
  C 503.69 1036.05 503.09 1036.66 503.09 1037.41
  Z"
/>
<path d="
  M 575.07 1001.20
  L 591.14 1001.20
  C 591.30 1001.20 591.45 1001.30 591.50 1001.46
  L 612.01 1060.40
  C 612.15 1060.79 611.86 1061.21 611.44 1061.21
  L 598.40 1061.21
  C 597.75 1061.21 597.18 1060.78 597.00 1060.15
  L 594.48 1051.07
  C 594.32 1050.51 593.81 1050.13 593.23 1050.13
  L 572.60 1050.13
  C 572.16 1050.13 571.77 1050.41 571.63 1050.82
  L 568.20 1060.66
  C 568.07 1061.02 567.73 1061.26 567.35 1061.26
  L 554.87 1061.26
  C 554.15 1061.26 553.65 1060.56 553.87 1059.88
  C 558.22 1046.48 562.84 1032.74 567.77 1019.89
  C 571.24 1010.85 573.43 1004.81 574.32 1001.77
  C 574.42 1001.43 574.73 1001.20 575.07 1001.20
  Z
  M 575.70 1037.60
  C 575.57 1038.00 575.87 1038.40 576.28 1038.40
  L 589.34 1038.33
  C 589.75 1038.33 590.04 1037.92 589.91 1037.53
  L 583.28 1017.68
  C 583.09 1017.12 582.30 1017.12 582.12 1017.68
  L 575.70 1037.60
  Z"
/>
<path d="
  M 748.69 1038.34
  L 748.69 1047.45
  C 748.69 1048.07 749.19 1048.57 749.81 1048.57
  L 773.16 1048.57
  C 773.78 1048.57 774.28 1049.07 774.28 1049.69
  L 774.28 1060.12
  C 774.28 1060.74 773.78 1061.24 773.16 1061.24
  L 735.81 1061.24
  C 735.19 1061.24 734.69 1060.74 734.69 1060.12
  L 734.69 1002.32
  C 734.69 1001.70 735.19 1001.20 735.81 1001.20
  L 772.52 1001.20
  C 773.14 1001.20 773.64 1001.70 773.64 1002.32
  L 773.64 1012.89
  C 773.64 1013.51 773.14 1014.01 772.52 1014.01
  L 749.94 1014.01
  C 749.32 1014.01 748.82 1014.51 748.82 1015.13
  L 748.82 1023.51
  C 748.82 1024.13 749.32 1024.63 749.94 1024.63
  L 770.80 1024.63
  C 771.42 1024.63 771.92 1025.13 771.92 1025.75
  L 771.92 1036.10
  C 771.92 1036.72 771.42 1037.22 770.80 1037.22
  L 749.81 1037.22
  C 749.19 1037.22 748.69 1037.72 748.69 1038.34
  Z"
/>
<path d="
  M 813.61 1060.85
  C 813.61 1061.12 813.40 1061.33 813.13 1061.33
  L 801.25 1061.33
  C 800.36 1061.33 799.63 1060.60 799.63 1059.71
  L 799.63 1001.63
  C 799.63 1001.39 799.83 1001.20 800.08 1001.21
  C 803.85 1001.40 810.18 1001.36 819.07 1001.10
  C 825.73 1000.90 830.78 1001.43 834.21 1002.70
  C 840.60 1005.05 844.44 1009.57 845.74 1016.25
  C 847.36 1024.58 844.76 1032.74 837.13 1037.11
  C 836.25 1037.62 835.93 1038.73 836.40 1039.63
  L 847.37 1060.22
  C 847.71 1060.86 847.21 1061.62 846.49 1061.56
  C 844.70 1061.41 840.96 1061.36 835.26 1061.39
  C 833.46 1061.40 832.10 1060.98 831.17 1060.12
  C 831.02 1059.98 830.91 1059.82 830.82 1059.64
  L 822.67 1041.78
  C 822.32 1041.02 821.57 1040.54 820.74 1040.54
  L 814.72 1040.54
  C 814.11 1040.54 813.61 1041.04 813.61 1041.65
  L 813.61 1060.85
  Z
  M 813.56 1015.03
  L 813.67 1027.71
  C 813.67 1028.34 814.19 1028.85 814.83 1028.85
  L 824.53 1028.76
  C 828.51 1028.73 831.71 1025.61 831.67 1021.79
  L 831.66 1020.63
  C 831.63 1016.82 828.38 1013.75 824.39 1013.78
  L 814.69 1013.87
  C 814.06 1013.87 813.55 1014.39 813.56 1015.03
  Z"
/>
<path d="
  M 893.15 1042.62
  C 893.47 1042.62 893.68 1042.43 893.80 1042.05
  C 897.60 1029.47 901.74 1016.09 906.21 1001.92
  C 906.36 1001.45 906.79 1001.13 907.28 1001.13
  L 920.36 1001.13
  C 921.04 1001.13 921.52 1001.80 921.30 1002.44
  L 902.22 1059.98
  C 901.94 1060.81 901.17 1061.36 900.30 1061.37
  C 899.20 1061.38 896.83 1061.38 893.19 1061.39
  C 889.55 1061.40 887.18 1061.40 886.07 1061.40
  C 885.20 1061.40 884.43 1060.85 884.15 1060.02
  L 864.80 1002.57
  C 864.58 1001.93 865.06 1001.26 865.74 1001.26
  L 878.82 1001.20
  C 879.30 1001.19 879.74 1001.51 879.89 1001.98
  C 884.43 1016.13 888.63 1029.49 892.49 1042.05
  C 892.60 1042.43 892.82 1042.62 893.15 1042.62
  Z"
/>
<rect x="-7.13" y="-30.08" transform="translate(949.82,1031.23) rotate(0.1)" width="14.26" height="60.16" rx="1.45"/>
<path d="
  M 1095.55 1031.15
  C 1095.55 1032.95 1095.50 1034.85 1095.39 1036.83
  C 1095.37 1037.22 1095.05 1037.52 1094.66 1037.52
  L 1073.62 1037.52
  C 1072.96 1037.52 1072.42 1038.06 1072.42 1038.72
  L 1072.42 1047.26
  C 1072.42 1047.92 1072.96 1048.46 1073.62 1048.46
  L 1096.85 1048.46
  C 1097.29 1048.46 1097.64 1048.81 1097.64 1049.25
  L 1097.64 1060.36
  C 1097.64 1060.87 1097.22 1061.29 1096.70 1061.29
  L 1059.26 1061.29
  C 1058.59 1061.29 1058.05 1060.75 1058.04 1060.09
  C 1057.95 1049.87 1057.89 1040.25 1057.86 1031.24
  C 1057.84 1022.24 1057.85 1012.62 1057.90 1002.40
  C 1057.90 1001.73 1058.44 1001.19 1059.11 1001.19
  L 1096.55 1001.00
  C 1097.07 1001.00 1097.49 1001.41 1097.49 1001.92
  L 1097.55 1013.03
  C 1097.55 1013.47 1097.20 1013.83 1096.76 1013.83
  L 1073.53 1013.95
  C 1072.87 1013.95 1072.33 1014.49 1072.34 1015.15
  L 1072.38 1023.69
  C 1072.39 1024.36 1072.93 1024.89 1073.59 1024.89
  L 1094.63 1024.78
  C 1095.01 1024.78 1095.34 1025.08 1095.36 1025.47
  C 1095.48 1027.45 1095.55 1029.34 1095.55 1031.15
  Z"
/>
</g>
<g fill="#dc0100">
<path d="
  M 1306.01 931.10
  L 1226.35 931.10
  C 1225.44 931.10 1224.81 930.20 1225.11 929.34
  L 1305.87 699.75
  C 1306.06 699.22 1306.55 698.87 1307.11 698.87
  L 1386.11 698.87
  C 1387.02 698.87 1387.66 699.77 1387.36 700.62
  L 1307.26 930.21
  C 1307.07 930.74 1306.57 931.10 1306.01 931.10
  Z"
/>
<path d="
  M 1488.94 757.51
  C 1489.14 756.85 1488.65 756.19 1487.97 756.19
  L 1400.92 755.89
  C 1400.02 755.89 1399.40 754.98 1399.72 754.13
  C 1403.93 742.99 1407.56 732.75 1410.59 723.42
  C 1412.86 716.43 1416.38 708.79 1418.48 701.03
  C 1418.81 699.79 1419.73 699.14 1421.24 699.08
  C 1424.44 698.96 1427.11 698.89 1429.25 698.88
  C 1508.58 698.55 1590.20 698.55 1674.10 698.88
  C 1674.47 698.88 1674.74 699.23 1674.64 699.58
  C 1673.97 702.15 1673.18 704.80 1672.27 707.52
  C 1667.82 720.85 1662.59 736.06 1656.57 753.13
  C 1655.96 754.85 1655.24 755.73 1654.40 755.77
  C 1650.28 755.96 1646.48 756.13 1641.00 756.12
  C 1602.30 756.02 1579.29 756.03 1571.98 756.15
  C 1571.31 756.16 1570.27 756.28 1568.84 756.51
  C 1567.93 756.66 1567.19 757.29 1566.89 758.15
  L 1507.80 930.20
  C 1507.55 930.91 1506.89 931.38 1506.14 931.38
  L 1430.30 931.38
  C 1429.35 931.38 1428.71 930.42 1429.06 929.55
  C 1430.85 925.16 1432.74 919.99 1434.75 914.04
  C 1441.25 894.69 1448.40 873.92 1456.21 851.71
  C 1459.31 842.90 1460.88 837.32 1463.33 830.93
  C 1466.05 823.84 1467.80 816.74 1470.50 809.78
  C 1475.08 797.96 1478.90 784.92 1483.77 772.19
  C 1484.88 769.28 1486.03 765.67 1487.22 761.36
  C 1487.57 760.06 1488.60 758.62 1488.94 757.51
  Z"
/>
<rect x="1213.38" y="997.06" width="10.82" height="74.32" rx="2.06"/>
<path d="
  M 48.43 1022.74
  C 68.26 1021.81 84.28 1020.87 96.48 1019.92
  C 102.85 1019.42 107.19 1019.18 109.49 1019.19
  C 115.14 1019.24 120.65 1018.40 126.84 1018.04
  C 155.61 1016.36 176.92 1015.16 190.75 1014.44
  C 198.18 1014.06 205.15 1013.78 211.64 1013.60
  C 211.97 1013.59 212.24 1013.85 212.24 1014.18
  L 212.24 1042.85
  C 212.24 1043.23 211.91 1043.53 211.53 1043.50
  C 199.77 1042.63 188.72 1041.41 178.37 1039.84
  C 166.03 1037.97 157.57 1037.04 147.18 1035.70
  C 138.92 1034.64 133.57 1033.99 131.12 1033.75
  C 125.11 1033.17 119.75 1032.48 115.06 1031.67
  C 104.56 1029.87 77.73 1027.82 48.40 1023.44
  C 48.22 1023.41 48.09 1023.25 48.10 1023.07
  C 48.11 1022.89 48.25 1022.75 48.43 1022.74
  Z"
/>
<path d="
  M 1689.69 1023.56
  C 1689.38 1023.93 1688.44 1024.28 1686.86 1024.61
  C 1677.97 1026.48 1670.92 1027.77 1665.70 1028.49
  C 1657.64 1029.60 1651.35 1031.14 1642.50 1032.70
  C 1628.41 1035.18 1614.35 1037.79 1600.34 1040.52
  C 1589.94 1042.55 1583.97 1043.72 1582.42 1044.05
  C 1581.70 1044.20 1581.03 1043.65 1581.03 1042.92
  L 1581.03 1015.28
  C 1581.03 1014.65 1581.58 1014.15 1582.21 1014.20
  L 1689.55 1023.22
  C 1689.72 1023.23 1689.80 1023.43 1689.69 1023.56
  Z"
/>
</g>
</svg>
